<?xml version="1.0" encoding="utf-8" standalone="no"?>
<!DOCTYPE svg PUBLIC "-//W3C//DTD SVG 1.1//EN"
  "http://www.w3.org/Graphics/SVG/1.1/DTD/svg11.dtd">
<svg xmlns:xlink="http://www.w3.org/1999/xlink" width="777.6pt" height="518.4pt" viewBox="0 0 777.6 518.4" xmlns="http://www.w3.org/2000/svg" version="1.1">
 <metadata>
  <rdf:RDF xmlns:dc="http://purl.org/dc/elements/1.1/" xmlns:cc="http://creativecommons.org/ns#" xmlns:rdf="http://www.w3.org/1999/02/22-rdf-syntax-ns#">
   <cc:Work>
    <dc:type rdf:resource="http://purl.org/dc/dcmitype/StillImage"/>
    <dc:format>image/svg+xml</dc:format>
    <dc:creator>
     <cc:Agent>
      <dc:title>Matplotlib v3.11.0, https://matplotlib.org/</dc:title>
     </cc:Agent>
    </dc:creator>
   </cc:Work>
  </rdf:RDF>
 </metadata>
 <defs>
  <style type="text/css">*{stroke-linejoin: round; stroke-linecap: butt}</style>
 </defs>
 <g id="figure_1">
  <g id="patch_1">
   <path d="M 0 518.4
L 777.6 518.4
L 777.6 0
L 0 0
z
" style="fill: #ffffff"/>
  </g>
  <g id="axes_1">
   <g id="patch_2">
    <path d="M 39.904146 225.198979
L 384.912391 225.198979
L 384.912391 18.118365
L 39.904146 18.118365
z
" style="fill: #ffffff"/>
   </g>
   <g id="matplotlib.axis_1">
    <g id="xtick_1">
     <g id="line2d_1">
      <path d="M 54.002279 225.198979
L 54.002279 18.118365
" clip-path="url(#pac831dc729)" style="fill: none; stroke: #b0b0b0; stroke-opacity: 0.18; stroke-width: 0.6; stroke-linecap: square"/>
     </g>
     <g id="line2d_2">
      <defs>
       <path id="mf3ce9f3e72" d="M 0 0
L 0 3.5
" style="stroke: #000000; stroke-width: 0.8"/>
      </defs>
      <g>
       <use xlink:href="#mf3ce9f3e72" x="54.002279" y="225.198979" style="stroke: #000000; stroke-width: 0.8"/>
      </g>
     </g>
     <g id="text_1">
      <!-- 0 -->
      <g transform="translate(50.821029 239.796635) scale(0.1 -0.1)">
       <defs>
        <path id="DejaVuSans-13" d="M 2034 4250
Q 1547 4250 1301 3770
Q 1056 3291 1056 2328
Q 1056 1369 1301 889
Q 1547 409 2034 409
Q 2525 409 2770 889
Q 3016 1369 3016 2328
Q 3016 3291 2770 3770
Q 2525 4250 2034 4250
z
M 2034 4750
Q 2819 4750 3233 4129
Q 3647 3509 3647 2328
Q 3647 1150 3233 529
Q 2819 -91 2034 -91
Q 1250 -91 836 529
Q 422 1150 422 2328
Q 422 3509 836 4129
Q 1250 4750 2034 4750
z
" transform="scale(0.015625)"/>
       </defs>
       <use xlink:href="#DejaVuSans-13"/>
      </g>
     </g>
    </g>
    <g id="xtick_2">
     <g id="line2d_3">
      <path d="M 93.603777 225.198979
L 93.603777 18.118365
" clip-path="url(#pac831dc729)" style="fill: none; stroke: #b0b0b0; stroke-opacity: 0.18; stroke-width: 0.6; stroke-linecap: square"/>
     </g>
     <g id="line2d_4">
      <g>
       <use xlink:href="#mf3ce9f3e72" x="93.603777" y="225.198979" style="stroke: #000000; stroke-width: 0.8"/>
      </g>
     </g>
     <g id="text_2">
      <!-- 1 -->
      <g transform="translate(90.422527 239.796635) scale(0.1 -0.1)">
       <defs>
        <path id="DejaVuSans-14" d="M 794 531
L 1825 531
L 1825 4091
L 703 3866
L 703 4441
L 1819 4666
L 2450 4666
L 2450 531
L 3481 531
L 3481 0
L 794 0
L 794 531
z
" transform="scale(0.015625)"/>
       </defs>
       <use xlink:href="#DejaVuSans-14"/>
      </g>
     </g>
    </g>
    <g id="xtick_3">
     <g id="line2d_5">
      <path d="M 133.205274 225.198979
L 133.205274 18.118365
" clip-path="url(#pac831dc729)" style="fill: none; stroke: #b0b0b0; stroke-opacity: 0.18; stroke-width: 0.6; stroke-linecap: square"/>
     </g>
     <g id="line2d_6">
      <g>
       <use xlink:href="#mf3ce9f3e72" x="133.205274" y="225.198979" style="stroke: #000000; stroke-width: 0.8"/>
      </g>
     </g>
     <g id="text_3">
      <!-- 2 -->
      <g transform="translate(130.024024 239.796635) scale(0.1 -0.1)">
       <defs>
        <path id="DejaVuSans-15" d="M 1228 531
L 3431 531
L 3431 0
L 469 0
L 469 531
Q 828 903 1448 1529
Q 2069 2156 2228 2338
Q 2531 2678 2651 2914
Q 2772 3150 2772 3378
Q 2772 3750 2511 3984
Q 2250 4219 1831 4219
Q 1534 4219 1204 4116
Q 875 4013 500 3803
L 500 4441
Q 881 4594 1212 4672
Q 1544 4750 1819 4750
Q 2544 4750 2975 4387
Q 3406 4025 3406 3419
Q 3406 3131 3298 2873
Q 3191 2616 2906 2266
Q 2828 2175 2409 1742
Q 1991 1309 1228 531
z
" transform="scale(0.015625)"/>
       </defs>
       <use xlink:href="#DejaVuSans-15"/>
      </g>
     </g>
    </g>
    <g id="xtick_4">
     <g id="line2d_7">
      <path d="M 172.806771 225.198979
L 172.806771 18.118365
" clip-path="url(#pac831dc729)" style="fill: none; stroke: #b0b0b0; stroke-opacity: 0.18; stroke-width: 0.6; stroke-linecap: square"/>
     </g>
     <g id="line2d_8">
      <g>
       <use xlink:href="#mf3ce9f3e72" x="172.806771" y="225.198979" style="stroke: #000000; stroke-width: 0.8"/>
      </g>
     </g>
     <g id="text_4">
      <!-- 3 -->
      <g transform="translate(169.625521 239.796635) scale(0.1 -0.1)">
       <defs>
        <path id="DejaVuSans-16" d="M 2597 2516
Q 3050 2419 3304 2112
Q 3559 1806 3559 1356
Q 3559 666 3084 287
Q 2609 -91 1734 -91
Q 1441 -91 1130 -33
Q 819 25 488 141
L 488 750
Q 750 597 1062 519
Q 1375 441 1716 441
Q 2309 441 2620 675
Q 2931 909 2931 1356
Q 2931 1769 2642 2001
Q 2353 2234 1838 2234
L 1294 2234
L 1294 2753
L 1863 2753
Q 2328 2753 2575 2939
Q 2822 3125 2822 3475
Q 2822 3834 2567 4026
Q 2313 4219 1838 4219
Q 1578 4219 1281 4162
Q 984 4106 628 3988
L 628 4550
Q 988 4650 1302 4700
Q 1616 4750 1894 4750
Q 2613 4750 3031 4423
Q 3450 4097 3450 3541
Q 3450 3153 3228 2886
Q 3006 2619 2597 2516
z
" transform="scale(0.015625)"/>
       </defs>
       <use xlink:href="#DejaVuSans-16"/>
      </g>
     </g>
    </g>
    <g id="xtick_5">
     <g id="line2d_9">
      <path d="M 212.408268 225.198979
L 212.408268 18.118365
" clip-path="url(#pac831dc729)" style="fill: none; stroke: #b0b0b0; stroke-opacity: 0.18; stroke-width: 0.6; stroke-linecap: square"/>
     </g>
     <g id="line2d_10">
      <g>
       <use xlink:href="#mf3ce9f3e72" x="212.408268" y="225.198979" style="stroke: #000000; stroke-width: 0.8"/>
      </g>
     </g>
     <g id="text_5">
      <!-- 4 -->
      <g transform="translate(209.227018 239.796635) scale(0.1 -0.1)">
       <defs>
        <path id="DejaVuSans-17" d="M 2419 4116
L 825 1625
L 2419 1625
L 2419 4116
z
M 2253 4666
L 3047 4666
L 3047 1625
L 3713 1625
L 3713 1100
L 3047 1100
L 3047 0
L 2419 0
L 2419 1100
L 313 1100
L 313 1709
L 2253 4666
z
" transform="scale(0.015625)"/>
       </defs>
       <use xlink:href="#DejaVuSans-17"/>
      </g>
     </g>
    </g>
    <g id="xtick_6">
     <g id="line2d_11">
      <path d="M 252.009766 225.198979
L 252.009766 18.118365
" clip-path="url(#pac831dc729)" style="fill: none; stroke: #b0b0b0; stroke-opacity: 0.18; stroke-width: 0.6; stroke-linecap: square"/>
     </g>
     <g id="line2d_12">
      <g>
       <use xlink:href="#mf3ce9f3e72" x="252.009766" y="225.198979" style="stroke: #000000; stroke-width: 0.8"/>
      </g>
     </g>
     <g id="text_6">
      <!-- 5 -->
      <g transform="translate(248.828516 239.796635) scale(0.1 -0.1)">
       <defs>
        <path id="DejaVuSans-18" d="M 691 4666
L 3169 4666
L 3169 4134
L 1269 4134
L 1269 2991
Q 1406 3038 1543 3061
Q 1681 3084 1819 3084
Q 2600 3084 3056 2656
Q 3513 2228 3513 1497
Q 3513 744 3044 326
Q 2575 -91 1722 -91
Q 1428 -91 1123 -41
Q 819 9 494 109
L 494 744
Q 775 591 1075 516
Q 1375 441 1709 441
Q 2250 441 2565 725
Q 2881 1009 2881 1497
Q 2881 1984 2565 2268
Q 2250 2553 1709 2553
Q 1456 2553 1204 2497
Q 953 2441 691 2322
L 691 4666
z
" transform="scale(0.015625)"/>
       </defs>
       <use xlink:href="#DejaVuSans-18"/>
      </g>
     </g>
    </g>
    <g id="xtick_7">
     <g id="line2d_13">
      <path d="M 291.611263 225.198979
L 291.611263 18.118365
" clip-path="url(#pac831dc729)" style="fill: none; stroke: #b0b0b0; stroke-opacity: 0.18; stroke-width: 0.6; stroke-linecap: square"/>
     </g>
     <g id="line2d_14">
      <g>
       <use xlink:href="#mf3ce9f3e72" x="291.611263" y="225.198979" style="stroke: #000000; stroke-width: 0.8"/>
      </g>
     </g>
     <g id="text_7">
      <!-- 6 -->
      <g transform="translate(288.430013 239.796635) scale(0.1 -0.1)">
       <defs>
        <path id="DejaVuSans-19" d="M 2113 2584
Q 1688 2584 1439 2293
Q 1191 2003 1191 1497
Q 1191 994 1439 701
Q 1688 409 2113 409
Q 2538 409 2786 701
Q 3034 994 3034 1497
Q 3034 2003 2786 2293
Q 2538 2584 2113 2584
z
M 3366 4563
L 3366 3988
Q 3128 4100 2886 4159
Q 2644 4219 2406 4219
Q 1781 4219 1451 3797
Q 1122 3375 1075 2522
Q 1259 2794 1537 2939
Q 1816 3084 2150 3084
Q 2853 3084 3261 2657
Q 3669 2231 3669 1497
Q 3669 778 3244 343
Q 2819 -91 2113 -91
Q 1303 -91 875 529
Q 447 1150 447 2328
Q 447 3434 972 4092
Q 1497 4750 2381 4750
Q 2619 4750 2861 4703
Q 3103 4656 3366 4563
z
" transform="scale(0.015625)"/>
       </defs>
       <use xlink:href="#DejaVuSans-19"/>
      </g>
     </g>
    </g>
    <g id="xtick_8">
     <g id="line2d_15">
      <path d="M 331.21276 225.198979
L 331.21276 18.118365
" clip-path="url(#pac831dc729)" style="fill: none; stroke: #b0b0b0; stroke-opacity: 0.18; stroke-width: 0.6; stroke-linecap: square"/>
     </g>
     <g id="line2d_16">
      <g>
       <use xlink:href="#mf3ce9f3e72" x="331.21276" y="225.198979" style="stroke: #000000; stroke-width: 0.8"/>
      </g>
     </g>
     <g id="text_8">
      <!-- 7 -->
      <g transform="translate(328.03151 239.796635) scale(0.1 -0.1)">
       <defs>
        <path id="DejaVuSans-1a" d="M 525 4666
L 3525 4666
L 3525 4397
L 1831 0
L 1172 0
L 2766 4134
L 525 4134
L 525 4666
z
" transform="scale(0.015625)"/>
       </defs>
       <use xlink:href="#DejaVuSans-1a"/>
      </g>
     </g>
    </g>
    <g id="xtick_9">
     <g id="line2d_17">
      <path d="M 370.814258 225.198979
L 370.814258 18.118365
" clip-path="url(#pac831dc729)" style="fill: none; stroke: #b0b0b0; stroke-opacity: 0.18; stroke-width: 0.6; stroke-linecap: square"/>
     </g>
     <g id="line2d_18">
      <g>
       <use xlink:href="#mf3ce9f3e72" x="370.814258" y="225.198979" style="stroke: #000000; stroke-width: 0.8"/>
      </g>
     </g>
     <g id="text_9">
      <!-- 8 -->
      <g transform="translate(367.633008 239.796635) scale(0.1 -0.1)">
       <defs>
        <path id="DejaVuSans-1b" d="M 2034 2216
Q 1584 2216 1326 1975
Q 1069 1734 1069 1313
Q 1069 891 1326 650
Q 1584 409 2034 409
Q 2484 409 2743 651
Q 3003 894 3003 1313
Q 3003 1734 2745 1975
Q 2488 2216 2034 2216
z
M 1403 2484
Q 997 2584 770 2862
Q 544 3141 544 3541
Q 544 4100 942 4425
Q 1341 4750 2034 4750
Q 2731 4750 3128 4425
Q 3525 4100 3525 3541
Q 3525 3141 3298 2862
Q 3072 2584 2669 2484
Q 3125 2378 3379 2068
Q 3634 1759 3634 1313
Q 3634 634 3220 271
Q 2806 -91 2034 -91
Q 1263 -91 848 271
Q 434 634 434 1313
Q 434 1759 690 2068
Q 947 2378 1403 2484
z
M 1172 3481
Q 1172 3119 1398 2916
Q 1625 2713 2034 2713
Q 2441 2713 2670 2916
Q 2900 3119 2900 3481
Q 2900 3844 2670 4047
Q 2441 4250 2034 4250
Q 1625 4250 1398 4047
Q 1172 3844 1172 3481
z
" transform="scale(0.015625)"/>
       </defs>
       <use xlink:href="#DejaVuSans-1b"/>
      </g>
     </g>
    </g>
    <g id="text_10">
     <!-- radius -->
     <g transform="translate(196.952018 253.797416) scale(0.1 -0.1)">
      <defs>
       <path id="DejaVuSans-55" d="M 2631 2963
Q 2534 3019 2420 3045
Q 2306 3072 2169 3072
Q 1681 3072 1420 2755
Q 1159 2438 1159 1844
L 1159 0
L 581 0
L 581 3500
L 1159 3500
L 1159 2956
Q 1341 3275 1631 3429
Q 1922 3584 2338 3584
Q 2397 3584 2469 3576
Q 2541 3569 2628 3553
L 2631 2963
z
" transform="scale(0.015625)"/>
       <path id="DejaVuSans-44" d="M 2194 1759
Q 1497 1759 1228 1600
Q 959 1441 959 1056
Q 959 750 1161 570
Q 1363 391 1709 391
Q 2188 391 2477 730
Q 2766 1069 2766 1631
L 2766 1759
L 2194 1759
z
M 3341 1997
L 3341 0
L 2766 0
L 2766 531
Q 2569 213 2275 61
Q 1981 -91 1556 -91
Q 1019 -91 701 211
Q 384 513 384 1019
Q 384 1609 779 1909
Q 1175 2209 1959 2209
L 2766 2209
L 2766 2266
Q 2766 2663 2505 2880
Q 2244 3097 1772 3097
Q 1472 3097 1187 3025
Q 903 2953 641 2809
L 641 3341
Q 956 3463 1253 3523
Q 1550 3584 1831 3584
Q 2591 3584 2966 3190
Q 3341 2797 3341 1997
z
" transform="scale(0.015625)"/>
       <path id="DejaVuSans-47" d="M 2906 2969
L 2906 4863
L 3481 4863
L 3481 0
L 2906 0
L 2906 525
Q 2725 213 2448 61
Q 2172 -91 1784 -91
Q 1150 -91 751 415
Q 353 922 353 1747
Q 353 2572 751 3078
Q 1150 3584 1784 3584
Q 2172 3584 2448 3432
Q 2725 3281 2906 2969
z
M 947 1747
Q 947 1113 1208 752
Q 1469 391 1925 391
Q 2381 391 2643 752
Q 2906 1113 2906 1747
Q 2906 2381 2643 2742
Q 2381 3103 1925 3103
Q 1469 3103 1208 2742
Q 947 2381 947 1747
z
" transform="scale(0.015625)"/>
       <path id="DejaVuSans-4c" d="M 603 3500
L 1178 3500
L 1178 0
L 603 0
L 603 3500
z
M 603 4863
L 1178 4863
L 1178 4134
L 603 4134
L 603 4863
z
" transform="scale(0.015625)"/>
       <path id="DejaVuSans-58" d="M 544 1381
L 544 3500
L 1119 3500
L 1119 1403
Q 1119 906 1312 657
Q 1506 409 1894 409
Q 2359 409 2629 706
Q 2900 1003 2900 1516
L 2900 3500
L 3475 3500
L 3475 0
L 2900 0
L 2900 538
Q 2691 219 2414 64
Q 2138 -91 1772 -91
Q 1169 -91 856 284
Q 544 659 544 1381
z
M 1991 3584
L 1991 3584
z
" transform="scale(0.015625)"/>
       <path id="DejaVuSans-56" d="M 2834 3397
L 2834 2853
Q 2591 2978 2328 3040
Q 2066 3103 1784 3103
Q 1356 3103 1142 2972
Q 928 2841 928 2578
Q 928 2378 1081 2264
Q 1234 2150 1697 2047
L 1894 2003
Q 2506 1872 2764 1633
Q 3022 1394 3022 966
Q 3022 478 2636 193
Q 2250 -91 1575 -91
Q 1294 -91 989 -36
Q 684 19 347 128
L 347 722
Q 666 556 975 473
Q 1284 391 1588 391
Q 1994 391 2212 530
Q 2431 669 2431 922
Q 2431 1156 2273 1281
Q 2116 1406 1581 1522
L 1381 1569
Q 847 1681 609 1914
Q 372 2147 372 2553
Q 372 3047 722 3315
Q 1072 3584 1716 3584
Q 2034 3584 2315 3537
Q 2597 3491 2834 3397
z
" transform="scale(0.015625)"/>
      </defs>
      <use xlink:href="#DejaVuSans-55"/>
      <use xlink:href="#DejaVuSans-44" transform="translate(41.109375 0)"/>
      <use xlink:href="#DejaVuSans-47" transform="translate(102.390625 0)"/>
      <use xlink:href="#DejaVuSans-4c" transform="translate(165.875 0)"/>
      <use xlink:href="#DejaVuSans-58" transform="translate(193.65625 0)"/>
      <use xlink:href="#DejaVuSans-56" transform="translate(257.03125 0)"/>
     </g>
    </g>
   </g>
   <g id="matplotlib.axis_2">
    <g id="ytick_1">
     <g id="line2d_19">
      <path d="M 39.904146 215.786224
L 384.912391 215.786224
" clip-path="url(#pac831dc729)" style="fill: none; stroke: #b0b0b0; stroke-opacity: 0.18; stroke-width: 0.6; stroke-linecap: square"/>
     </g>
     <g id="line2d_20">
      <defs>
       <path id="m92cf0501d5" d="M 0 0
L -3.5 0
" style="stroke: #000000; stroke-width: 0.8"/>
      </defs>
      <g>
       <use xlink:href="#m92cf0501d5" x="39.904146" y="215.786224" style="stroke: #000000; stroke-width: 0.8"/>
      </g>
     </g>
     <g id="text_11">
      <!-- 0 -->
      <g transform="translate(26.541646 219.585052) scale(0.1 -0.1)">
       <use xlink:href="#DejaVuSans-13"/>
      </g>
     </g>
    </g>
    <g id="ytick_2">
     <g id="line2d_21">
      <path d="M 39.904146 190.975448
L 384.912391 190.975448
" clip-path="url(#pac831dc729)" style="fill: none; stroke: #b0b0b0; stroke-opacity: 0.18; stroke-width: 0.6; stroke-linecap: square"/>
     </g>
     <g id="line2d_22">
      <g>
       <use xlink:href="#m92cf0501d5" x="39.904146" y="190.975448" style="stroke: #000000; stroke-width: 0.8"/>
      </g>
     </g>
     <g id="text_12">
      <!-- 1 -->
      <g transform="translate(26.541646 194.774276) scale(0.1 -0.1)">
       <use xlink:href="#DejaVuSans-14"/>
      </g>
     </g>
    </g>
    <g id="ytick_3">
     <g id="line2d_23">
      <path d="M 39.904146 166.164673
L 384.912391 166.164673
" clip-path="url(#pac831dc729)" style="fill: none; stroke: #b0b0b0; stroke-opacity: 0.18; stroke-width: 0.6; stroke-linecap: square"/>
     </g>
     <g id="line2d_24">
      <g>
       <use xlink:href="#m92cf0501d5" x="39.904146" y="166.164673" style="stroke: #000000; stroke-width: 0.8"/>
      </g>
     </g>
     <g id="text_13">
      <!-- 2 -->
      <g transform="translate(26.541646 169.963501) scale(0.1 -0.1)">
       <use xlink:href="#DejaVuSans-15"/>
      </g>
     </g>
    </g>
    <g id="ytick_4">
     <g id="line2d_25">
      <path d="M 39.904146 141.353897
L 384.912391 141.353897
" clip-path="url(#pac831dc729)" style="fill: none; stroke: #b0b0b0; stroke-opacity: 0.18; stroke-width: 0.6; stroke-linecap: square"/>
     </g>
     <g id="line2d_26">
      <g>
       <use xlink:href="#m92cf0501d5" x="39.904146" y="141.353897" style="stroke: #000000; stroke-width: 0.8"/>
      </g>
     </g>
     <g id="text_14">
      <!-- 3 -->
      <g transform="translate(26.541646 145.152726) scale(0.1 -0.1)">
       <use xlink:href="#DejaVuSans-16"/>
      </g>
     </g>
    </g>
    <g id="ytick_5">
     <g id="line2d_27">
      <path d="M 39.904146 116.543122
L 384.912391 116.543122
" clip-path="url(#pac831dc729)" style="fill: none; stroke: #b0b0b0; stroke-opacity: 0.18; stroke-width: 0.6; stroke-linecap: square"/>
     </g>
     <g id="line2d_28">
      <g>
       <use xlink:href="#m92cf0501d5" x="39.904146" y="116.543122" style="stroke: #000000; stroke-width: 0.8"/>
      </g>
     </g>
     <g id="text_15">
      <!-- 4 -->
      <g transform="translate(26.541646 120.34195) scale(0.1 -0.1)">
       <use xlink:href="#DejaVuSans-17"/>
      </g>
     </g>
    </g>
    <g id="ytick_6">
     <g id="line2d_29">
      <path d="M 39.904146 91.732347
L 384.912391 91.732347
" clip-path="url(#pac831dc729)" style="fill: none; stroke: #b0b0b0; stroke-opacity: 0.18; stroke-width: 0.6; stroke-linecap: square"/>
     </g>
     <g id="line2d_30">
      <g>
       <use xlink:href="#m92cf0501d5" x="39.904146" y="91.732347" style="stroke: #000000; stroke-width: 0.8"/>
      </g>
     </g>
     <g id="text_16">
      <!-- 5 -->
      <g transform="translate(26.541646 95.531175) scale(0.1 -0.1)">
       <use xlink:href="#DejaVuSans-18"/>
      </g>
     </g>
    </g>
    <g id="ytick_7">
     <g id="line2d_31">
      <path d="M 39.904146 66.921571
L 384.912391 66.921571
" clip-path="url(#pac831dc729)" style="fill: none; stroke: #b0b0b0; stroke-opacity: 0.18; stroke-width: 0.6; stroke-linecap: square"/>
     </g>
     <g id="line2d_32">
      <g>
       <use xlink:href="#m92cf0501d5" x="39.904146" y="66.921571" style="stroke: #000000; stroke-width: 0.8"/>
      </g>
     </g>
     <g id="text_17">
      <!-- 6 -->
      <g transform="translate(26.541646 70.720399) scale(0.1 -0.1)">
       <use xlink:href="#DejaVuSans-19"/>
      </g>
     </g>
    </g>
    <g id="ytick_8">
     <g id="line2d_33">
      <path d="M 39.904146 42.110796
L 384.912391 42.110796
" clip-path="url(#pac831dc729)" style="fill: none; stroke: #b0b0b0; stroke-opacity: 0.18; stroke-width: 0.6; stroke-linecap: square"/>
     </g>
     <g id="line2d_34">
      <g>
       <use xlink:href="#m92cf0501d5" x="39.904146" y="42.110796" style="stroke: #000000; stroke-width: 0.8"/>
      </g>
     </g>
     <g id="text_18">
      <!-- 7 -->
      <g transform="translate(26.541646 45.909624) scale(0.1 -0.1)">
       <use xlink:href="#DejaVuSans-1a"/>
      </g>
     </g>
    </g>
    <g id="text_19">
     <!-- g(r) -->
     <g transform="translate(20.139303 130.789922) rotate(-90) scale(0.1 -0.1)">
      <defs>
       <path id="DejaVuSans-4a" d="M 2906 1791
Q 2906 2416 2648 2759
Q 2391 3103 1925 3103
Q 1463 3103 1205 2759
Q 947 2416 947 1791
Q 947 1169 1205 825
Q 1463 481 1925 481
Q 2391 481 2648 825
Q 2906 1169 2906 1791
z
M 3481 434
Q 3481 -459 3084 -895
Q 2688 -1331 1869 -1331
Q 1566 -1331 1297 -1286
Q 1028 -1241 775 -1147
L 775 -588
Q 1028 -725 1275 -790
Q 1522 -856 1778 -856
Q 2344 -856 2625 -561
Q 2906 -266 2906 331
L 2906 616
Q 2728 306 2450 153
Q 2172 0 1784 0
Q 1141 0 747 490
Q 353 981 353 1791
Q 353 2603 747 3093
Q 1141 3584 1784 3584
Q 2172 3584 2450 3431
Q 2728 3278 2906 2969
L 2906 3500
L 3481 3500
L 3481 434
z
" transform="scale(0.015625)"/>
       <path id="DejaVuSans-b" d="M 1984 4856
Q 1566 4138 1362 3434
Q 1159 2731 1159 2009
Q 1159 1288 1364 580
Q 1569 -128 1984 -844
L 1484 -844
Q 1016 -109 783 600
Q 550 1309 550 2009
Q 550 2706 781 3412
Q 1013 4119 1484 4856
L 1984 4856
z
" transform="scale(0.015625)"/>
       <path id="DejaVuSans-c" d="M 513 4856
L 1013 4856
Q 1481 4119 1714 3412
Q 1947 2706 1947 2009
Q 1947 1309 1714 600
Q 1481 -109 1013 -844
L 513 -844
Q 928 -128 1133 580
Q 1338 1288 1338 2009
Q 1338 2731 1133 3434
Q 928 4138 513 4856
z
" transform="scale(0.015625)"/>
      </defs>
      <use xlink:href="#DejaVuSans-4a"/>
      <use xlink:href="#DejaVuSans-b" transform="translate(63.484375 0)"/>
      <use xlink:href="#DejaVuSans-55" transform="translate(102.5 0)"/>
      <use xlink:href="#DejaVuSans-c" transform="translate(143.609375 0)"/>
     </g>
    </g>
   </g>
   <g id="line2d_35">
    <path d="M 55.586339 215.786224
L 58.754459 215.786224
L 61.922579 215.786224
L 65.090699 215.786224
L 68.258818 215.786224
L 71.426938 215.786224
L 74.595058 215.786224
L 77.763178 215.786224
L 80.931297 215.786224
L 84.099417 215.786224
L 87.267537 215.786224
L 90.435657 215.786224
L 93.603777 215.786224
L 96.771896 215.786224
L 99.940016 215.786224
L 103.108136 215.786224
L 106.276256 215.786224
L 109.444375 215.786224
L 112.612495 215.786224
L 115.780615 215.786224
L 118.948735 215.786224
L 122.116855 215.786224
L 125.284974 215.786224
L 128.453094 215.786224
L 131.621214 215.786224
L 134.789334 215.786224
L 137.957454 215.786224
L 141.125573 215.786224
L 144.293693 215.786224
L 147.461813 215.786224
L 150.629933 215.786224
L 153.798052 215.786224
L 156.966172 215.786224
L 160.134292 215.786224
L 163.302412 215.786224
L 166.470532 215.786224
L 169.638651 215.786224
L 172.806771 215.786224
L 175.974891 215.786224
L 179.143011 215.786224
L 182.31113 215.786224
L 185.47925 215.786224
L 188.64737 215.786224
L 191.81549 215.786224
L 194.98361 215.568896
L 198.151729 212.73732
L 201.319849 204.441218
L 204.487969 179.862906
L 207.656089 134.064563
L 210.824209 69.828071
L 213.992328 27.962382
L 217.160448 37.348999
L 220.328568 98.315114
L 223.496688 154.890427
L 226.664807 193.665897
L 229.832927 208.940003
L 233.001047 214.572872
L 236.169167 215.699445
L 239.337287 215.786224
L 242.505406 215.786224
L 245.673526 215.786224
L 248.841646 215.786224
L 252.009766 215.786224
L 255.177886 215.786224
L 258.346005 215.786224
L 261.514125 215.752786
L 264.682245 215.072545
L 267.850365 213.267354
L 271.018484 207.164552
L 274.186604 196.837724
L 277.354724 180.832788
L 280.522844 170.999946
" clip-path="url(#pac831dc729)" style="fill: none; stroke: #2f6f9f; stroke-width: 1.4; stroke-linecap: square"/>
   </g>
   <g id="line2d_36">
    <path d="M 55.586339 215.786224
L 58.754459 215.786224
L 61.922579 215.786224
L 65.090699 215.786224
L 68.258818 215.786224
L 71.426938 215.786224
L 74.595058 215.786224
L 77.763178 215.786224
L 80.931297 215.786224
L 84.099417 215.786224
L 87.267537 215.786224
L 90.435657 215.786224
L 93.603777 215.786224
L 96.771896 215.786224
L 99.940016 215.786224
L 103.108136 215.786224
L 106.276256 215.786224
L 109.444375 215.786224
L 112.612495 215.786224
L 115.780615 215.786224
L 118.948735 215.786224
L 122.116855 215.786224
L 125.284974 215.786224
L 128.453094 215.786224
L 131.621214 215.786224
L 134.789334 215.786224
L 137.957454 215.786224
L 141.125573 215.786224
L 144.293693 215.786224
L 147.461813 215.786224
L 150.629933 215.786224
L 153.798052 215.786224
L 156.966172 215.786224
L 160.134292 215.786224
L 163.302412 215.786224
L 166.470532 215.786224
L 169.638651 215.786224
L 172.806771 215.786224
L 175.974891 215.786224
L 179.143011 215.786224
L 182.31113 215.786224
L 185.47925 215.786224
L 188.64737 215.786224
L 191.81549 215.718836
L 194.98361 215.314006
L 198.151729 213.938403
L 201.319849 204.915462
L 204.487969 181.367659
L 207.656089 132.356946
L 210.824209 68.264644
L 213.992328 27.53112
L 217.160448 39.738899
L 220.328568 95.760934
L 223.496688 154.721504
L 226.664807 193.218696
L 229.832927 210.625253
L 233.001047 214.694373
L 236.169167 215.606238
L 239.337287 215.761383
L 242.505406 215.786224
L 245.673526 215.786224
L 248.841646 215.786224
L 252.009766 215.786224
L 255.177886 215.786224
L 258.346005 215.776006
L 261.514125 215.736686
L 264.682245 215.29602
L 267.850365 213.351316
L 271.018484 207.832635
L 274.186604 196.118328
L 277.354724 180.60295
L 280.522844 168.834007
L 283.690964 171.681033
L 286.859083 183.660311
L 290.027203 199.596353
L 293.195323 209.872917
L 296.363443 214.188318
L 299.531562 215.389913
L 302.699682 215.731041
L 305.867802 215.779498
L 309.035922 215.779664
L 312.204042 215.664636
L 315.372161 214.830713
L 318.540281 210.768819
L 321.708401 198.361668
L 324.876521 169.839207
L 328.044641 127.333944
L 331.21276 95.167032
L 334.38088 93.242733
L 337.549 125.098407
L 340.71712 166.134804
L 343.885239 196.02129
L 347.053359 210.197376
L 350.221479 214.507473
L 353.389599 215.605351
L 356.557719 215.609119
L 359.725838 215.15175
L 362.893958 212.660708
L 366.062078 206.244229
L 369.230198 192.743211
" clip-path="url(#pac831dc729)" style="fill: none; stroke: #d88c3d; stroke-width: 1.4; stroke-linecap: square"/>
   </g>
   <g id="line2d_37">
    <path d="M 39.904146 190.975448
L 384.912391 190.975448
" clip-path="url(#pac831dc729)" style="fill: none; stroke-dasharray: 2.96,1.28; stroke-dashoffset: 0; stroke: #333333; stroke-width: 0.8"/>
   </g>
   <g id="patch_3">
    <path d="M 39.904146 225.198979
L 39.904146 18.118365
" style="fill: none; stroke: #000000; stroke-width: 0.8; stroke-linejoin: miter; stroke-linecap: square"/>
   </g>
   <g id="patch_4">
    <path d="M 39.904146 225.198979
L 384.912391 225.198979
" style="fill: none; stroke: #000000; stroke-width: 0.8; stroke-linejoin: miter; stroke-linecap: square"/>
   </g>
   <g id="text_20">
    <!-- RDF is an estimator -->
    <g transform="translate(153.327956 12.118365) scale(0.12 -0.12)">
     <defs>
      <path id="DejaVuSans-35" d="M 2841 2188
Q 3044 2119 3236 1894
Q 3428 1669 3622 1275
L 4263 0
L 3584 0
L 2988 1197
Q 2756 1666 2539 1819
Q 2322 1972 1947 1972
L 1259 1972
L 1259 0
L 628 0
L 628 4666
L 2053 4666
Q 2853 4666 3247 4331
Q 3641 3997 3641 3322
Q 3641 2881 3436 2590
Q 3231 2300 2841 2188
z
M 1259 4147
L 1259 2491
L 2053 2491
Q 2509 2491 2742 2702
Q 2975 2913 2975 3322
Q 2975 3731 2742 3939
Q 2509 4147 2053 4147
L 1259 4147
z
" transform="scale(0.015625)"/>
      <path id="DejaVuSans-27" d="M 1259 4147
L 1259 519
L 2022 519
Q 2988 519 3436 956
Q 3884 1394 3884 2338
Q 3884 3275 3436 3711
Q 2988 4147 2022 4147
L 1259 4147
z
M 628 4666
L 1925 4666
Q 3281 4666 3915 4102
Q 4550 3538 4550 2338
Q 4550 1131 3912 565
Q 3275 0 1925 0
L 628 0
L 628 4666
z
" transform="scale(0.015625)"/>
      <path id="DejaVuSans-29" d="M 628 4666
L 3309 4666
L 3309 4134
L 1259 4134
L 1259 2759
L 3109 2759
L 3109 2228
L 1259 2228
L 1259 0
L 628 0
L 628 4666
z
" transform="scale(0.015625)"/>
      <path id="DejaVuSans-3" transform="scale(0.015625)"/>
      <path id="DejaVuSans-51" d="M 3513 2113
L 3513 0
L 2938 0
L 2938 2094
Q 2938 2591 2744 2837
Q 2550 3084 2163 3084
Q 1697 3084 1428 2787
Q 1159 2491 1159 1978
L 1159 0
L 581 0
L 581 3500
L 1159 3500
L 1159 2956
Q 1366 3272 1645 3428
Q 1925 3584 2291 3584
Q 2894 3584 3203 3211
Q 3513 2838 3513 2113
z
" transform="scale(0.015625)"/>
      <path id="DejaVuSans-48" d="M 3597 1894
L 3597 1613
L 953 1613
Q 991 1019 1311 708
Q 1631 397 2203 397
Q 2534 397 2845 478
Q 3156 559 3463 722
L 3463 178
Q 3153 47 2828 -22
Q 2503 -91 2169 -91
Q 1331 -91 842 396
Q 353 884 353 1716
Q 353 2575 817 3079
Q 1281 3584 2069 3584
Q 2775 3584 3186 3129
Q 3597 2675 3597 1894
z
M 3022 2063
Q 3016 2534 2758 2815
Q 2500 3097 2075 3097
Q 1594 3097 1305 2825
Q 1016 2553 972 2059
L 3022 2063
z
" transform="scale(0.015625)"/>
      <path id="DejaVuSans-57" d="M 1172 4494
L 1172 3500
L 2356 3500
L 2356 3053
L 1172 3053
L 1172 1153
Q 1172 725 1289 603
Q 1406 481 1766 481
L 2356 481
L 2356 0
L 1766 0
Q 1100 0 847 248
Q 594 497 594 1153
L 594 3053
L 172 3053
L 172 3500
L 594 3500
L 594 4494
L 1172 4494
z
" transform="scale(0.015625)"/>
      <path id="DejaVuSans-50" d="M 3328 2828
Q 3544 3216 3844 3400
Q 4144 3584 4550 3584
Q 5097 3584 5394 3201
Q 5691 2819 5691 2113
L 5691 0
L 5113 0
L 5113 2094
Q 5113 2597 4934 2840
Q 4756 3084 4391 3084
Q 3944 3084 3684 2787
Q 3425 2491 3425 1978
L 3425 0
L 2847 0
L 2847 2094
Q 2847 2600 2669 2842
Q 2491 3084 2119 3084
Q 1678 3084 1418 2786
Q 1159 2488 1159 1978
L 1159 0
L 581 0
L 581 3500
L 1159 3500
L 1159 2956
Q 1356 3278 1631 3431
Q 1906 3584 2284 3584
Q 2666 3584 2933 3390
Q 3200 3197 3328 2828
z
" transform="scale(0.015625)"/>
      <path id="DejaVuSans-52" d="M 1959 3097
Q 1497 3097 1228 2736
Q 959 2375 959 1747
Q 959 1119 1226 758
Q 1494 397 1959 397
Q 2419 397 2687 759
Q 2956 1122 2956 1747
Q 2956 2369 2687 2733
Q 2419 3097 1959 3097
z
M 1959 3584
Q 2709 3584 3137 3096
Q 3566 2609 3566 1747
Q 3566 888 3137 398
Q 2709 -91 1959 -91
Q 1206 -91 779 398
Q 353 888 353 1747
Q 353 2609 779 3096
Q 1206 3584 1959 3584
z
" transform="scale(0.015625)"/>
     </defs>
     <use xlink:href="#DejaVuSans-35"/>
     <use xlink:href="#DejaVuSans-27" transform="translate(69.484375 0)"/>
     <use xlink:href="#DejaVuSans-29" transform="translate(146.484375 0)"/>
     <use xlink:href="#DejaVuSans-3" transform="translate(204 0)"/>
     <use xlink:href="#DejaVuSans-4c" transform="translate(235.78125 0)"/>
     <use xlink:href="#DejaVuSans-56" transform="translate(263.5625 0)"/>
     <use xlink:href="#DejaVuSans-3" transform="translate(315.65625 0)"/>
     <use xlink:href="#DejaVuSans-44" transform="translate(347.4375 0)"/>
     <use xlink:href="#DejaVuSans-51" transform="translate(408.71875 0)"/>
     <use xlink:href="#DejaVuSans-3" transform="translate(472.09375 0)"/>
     <use xlink:href="#DejaVuSans-48" transform="translate(503.875 0)"/>
     <use xlink:href="#DejaVuSans-56" transform="translate(565.40625 0)"/>
     <use xlink:href="#DejaVuSans-57" transform="translate(617.5 0)"/>
     <use xlink:href="#DejaVuSans-4c" transform="translate(656.703125 0)"/>
     <use xlink:href="#DejaVuSans-50" transform="translate(684.484375 0)"/>
     <use xlink:href="#DejaVuSans-44" transform="translate(781.890625 0)"/>
     <use xlink:href="#DejaVuSans-57" transform="translate(843.171875 0)"/>
     <use xlink:href="#DejaVuSans-52" transform="translate(882.375 0)"/>
     <use xlink:href="#DejaVuSans-55" transform="translate(943.5625 0)"/>
    </g>
   </g>
   <g id="legend_1">
    <g id="line2d_38">
     <path d="M 280.527391 28.597115
L 288.527391 28.597115
L 296.527391 28.597115
" style="fill: none; stroke: #2f6f9f; stroke-width: 1.4; stroke-linecap: square"/>
    </g>
    <g id="text_21">
     <!-- small_cell (N=32) -->
     <g transform="translate(302.927391 31.397115) scale(0.08 -0.08)">
      <defs>
       <path id="DejaVuSans-4f" d="M 603 4863
L 1178 4863
L 1178 0
L 603 0
L 603 4863
z
" transform="scale(0.015625)"/>
       <path id="DejaVuSans-42" d="M 3263 -1063
L 3263 -1509
L -63 -1509
L -63 -1063
L 3263 -1063
z
" transform="scale(0.015625)"/>
       <path id="DejaVuSans-46" d="M 3122 3366
L 3122 2828
Q 2878 2963 2633 3030
Q 2388 3097 2138 3097
Q 1578 3097 1268 2742
Q 959 2388 959 1747
Q 959 1106 1268 751
Q 1578 397 2138 397
Q 2388 397 2633 464
Q 2878 531 3122 666
L 3122 134
Q 2881 22 2623 -34
Q 2366 -91 2075 -91
Q 1284 -91 818 406
Q 353 903 353 1747
Q 353 2603 823 3093
Q 1294 3584 2113 3584
Q 2378 3584 2631 3529
Q 2884 3475 3122 3366
z
" transform="scale(0.015625)"/>
       <path id="DejaVuSans-31" d="M 628 4666
L 1478 4666
L 3547 763
L 3547 4666
L 4159 4666
L 4159 0
L 3309 0
L 1241 3903
L 1241 0
L 628 0
L 628 4666
z
" transform="scale(0.015625)"/>
       <path id="DejaVuSans-20" d="M 678 2906
L 4684 2906
L 4684 2381
L 678 2381
L 678 2906
z
M 678 1631
L 4684 1631
L 4684 1100
L 678 1100
L 678 1631
z
" transform="scale(0.015625)"/>
      </defs>
      <use xlink:href="#DejaVuSans-56"/>
      <use xlink:href="#DejaVuSans-50" transform="translate(52.09375 0)"/>
      <use xlink:href="#DejaVuSans-44" transform="translate(149.5 0)"/>
      <use xlink:href="#DejaVuSans-4f" transform="translate(210.78125 0)"/>
      <use xlink:href="#DejaVuSans-4f" transform="translate(238.5625 0)"/>
      <use xlink:href="#DejaVuSans-42" transform="translate(266.34375 0)"/>
      <use xlink:href="#DejaVuSans-46" transform="translate(316.34375 0)"/>
      <use xlink:href="#DejaVuSans-48" transform="translate(371.328125 0)"/>
      <use xlink:href="#DejaVuSans-4f" transform="translate(432.859375 0)"/>
      <use xlink:href="#DejaVuSans-4f" transform="translate(460.640625 0)"/>
      <use xlink:href="#DejaVuSans-3" transform="translate(488.421875 0)"/>
      <use xlink:href="#DejaVuSans-b" transform="translate(520.203125 0)"/>
      <use xlink:href="#DejaVuSans-31" transform="translate(559.21875 0)"/>
      <use xlink:href="#DejaVuSans-20" transform="translate(634.03125 0)"/>
      <use xlink:href="#DejaVuSans-16" transform="translate(717.828125 0)"/>
      <use xlink:href="#DejaVuSans-15" transform="translate(781.453125 0)"/>
      <use xlink:href="#DejaVuSans-c" transform="translate(845.078125 0)"/>
     </g>
    </g>
    <g id="line2d_39">
     <path d="M 280.527391 40.59774
L 288.527391 40.59774
L 296.527391 40.59774
" style="fill: none; stroke: #d88c3d; stroke-width: 1.4; stroke-linecap: square"/>
    </g>
    <g id="text_22">
     <!-- large_cell (N=108) -->
     <g transform="translate(302.927391 43.39774) scale(0.08 -0.08)">
      <use xlink:href="#DejaVuSans-4f"/>
      <use xlink:href="#DejaVuSans-44" transform="translate(27.78125 0)"/>
      <use xlink:href="#DejaVuSans-55" transform="translate(89.0625 0)"/>
      <use xlink:href="#DejaVuSans-4a" transform="translate(128.421875 0)"/>
      <use xlink:href="#DejaVuSans-48" transform="translate(191.90625 0)"/>
      <use xlink:href="#DejaVuSans-42" transform="translate(253.4375 0)"/>
      <use xlink:href="#DejaVuSans-46" transform="translate(303.4375 0)"/>
      <use xlink:href="#DejaVuSans-48" transform="translate(358.421875 0)"/>
      <use xlink:href="#DejaVuSans-4f" transform="translate(419.953125 0)"/>
      <use xlink:href="#DejaVuSans-4f" transform="translate(447.734375 0)"/>
      <use xlink:href="#DejaVuSans-3" transform="translate(475.515625 0)"/>
      <use xlink:href="#DejaVuSans-b" transform="translate(507.296875 0)"/>
      <use xlink:href="#DejaVuSans-31" transform="translate(546.3125 0)"/>
      <use xlink:href="#DejaVuSans-20" transform="translate(621.125 0)"/>
      <use xlink:href="#DejaVuSans-14" transform="translate(704.921875 0)"/>
      <use xlink:href="#DejaVuSans-13" transform="translate(768.546875 0)"/>
      <use xlink:href="#DejaVuSans-1b" transform="translate(832.171875 0)"/>
      <use xlink:href="#DejaVuSans-c" transform="translate(895.796875 0)"/>
     </g>
    </g>
   </g>
  </g>
  <g id="axes_2">
   <g id="patch_5">
    <path d="M 429.591516 225.198979
L 774.59976 225.198979
L 774.59976 18.118365
L 429.591516 18.118365
z
" style="fill: #ffffff"/>
   </g>
   <g id="patch_6">
    <path d="M 445.273709 225.198979
L 584.670979 225.198979
L 584.670979 27.979347
L 445.273709 27.979347
z
" clip-path="url(#p137e7f053c)" style="fill: #6a8f4e; stroke: #2d4721; stroke-width: 0.6; stroke-linejoin: miter"/>
   </g>
   <g id="patch_7">
    <path d="M 619.520297 225.198979
L 758.917567 225.198979
L 758.917567 27.986956
L 619.520297 27.986956
z
" clip-path="url(#p137e7f053c)" style="fill: #8c6bb1; stroke: #2d4721; stroke-width: 0.6; stroke-linejoin: miter"/>
   </g>
   <g id="matplotlib.axis_3">
    <g id="xtick_10">
     <g id="line2d_40">
      <path d="M 514.972344 225.198979
L 514.972344 18.118365
" clip-path="url(#p137e7f053c)" style="fill: none; stroke: #b0b0b0; stroke-opacity: 0.18; stroke-width: 0.6; stroke-linecap: square"/>
     </g>
     <g id="line2d_41">
      <g>
       <use xlink:href="#mf3ce9f3e72" x="514.972344" y="225.198979" style="stroke: #000000; stroke-width: 0.8"/>
      </g>
     </g>
     <g id="text_23">
      <!-- small_cell -->
      <g transform="translate(495.435469 239.07851) scale(0.08 -0.08)">
       <use xlink:href="#DejaVuSans-56"/>
       <use xlink:href="#DejaVuSans-50" transform="translate(52.09375 0)"/>
       <use xlink:href="#DejaVuSans-44" transform="translate(149.5 0)"/>
       <use xlink:href="#DejaVuSans-4f" transform="translate(210.78125 0)"/>
       <use xlink:href="#DejaVuSans-4f" transform="translate(238.5625 0)"/>
       <use xlink:href="#DejaVuSans-42" transform="translate(266.34375 0)"/>
       <use xlink:href="#DejaVuSans-46" transform="translate(316.34375 0)"/>
       <use xlink:href="#DejaVuSans-48" transform="translate(371.328125 0)"/>
       <use xlink:href="#DejaVuSans-4f" transform="translate(432.859375 0)"/>
       <use xlink:href="#DejaVuSans-4f" transform="translate(460.640625 0)"/>
      </g>
      <!-- N=32 -->
      <g transform="translate(503.537969 248.680072) scale(0.08 -0.08)">
       <use xlink:href="#DejaVuSans-31"/>
       <use xlink:href="#DejaVuSans-20" transform="translate(74.8125 0)"/>
       <use xlink:href="#DejaVuSans-16" transform="translate(158.609375 0)"/>
       <use xlink:href="#DejaVuSans-15" transform="translate(222.234375 0)"/>
      </g>
     </g>
    </g>
    <g id="xtick_11">
     <g id="line2d_42">
      <path d="M 689.218932 225.198979
L 689.218932 18.118365
" clip-path="url(#p137e7f053c)" style="fill: none; stroke: #b0b0b0; stroke-opacity: 0.18; stroke-width: 0.6; stroke-linecap: square"/>
     </g>
     <g id="line2d_43">
      <g>
       <use xlink:href="#mf3ce9f3e72" x="689.218932" y="225.198979" style="stroke: #000000; stroke-width: 0.8"/>
      </g>
     </g>
     <g id="text_24">
      <!-- large_cell -->
      <g transform="translate(670.198307 239.07851) scale(0.08 -0.08)">
       <use xlink:href="#DejaVuSans-4f"/>
       <use xlink:href="#DejaVuSans-44" transform="translate(27.78125 0)"/>
       <use xlink:href="#DejaVuSans-55" transform="translate(89.0625 0)"/>
       <use xlink:href="#DejaVuSans-4a" transform="translate(128.421875 0)"/>
       <use xlink:href="#DejaVuSans-48" transform="translate(191.90625 0)"/>
       <use xlink:href="#DejaVuSans-42" transform="translate(253.4375 0)"/>
       <use xlink:href="#DejaVuSans-46" transform="translate(303.4375 0)"/>
       <use xlink:href="#DejaVuSans-48" transform="translate(358.421875 0)"/>
       <use xlink:href="#DejaVuSans-4f" transform="translate(419.953125 0)"/>
       <use xlink:href="#DejaVuSans-4f" transform="translate(447.734375 0)"/>
      </g>
      <!-- N=108 -->
      <g transform="translate(675.239557 248.680072) scale(0.08 -0.08)">
       <use xlink:href="#DejaVuSans-31"/>
       <use xlink:href="#DejaVuSans-20" transform="translate(74.8125 0)"/>
       <use xlink:href="#DejaVuSans-14" transform="translate(158.609375 0)"/>
       <use xlink:href="#DejaVuSans-13" transform="translate(222.234375 0)"/>
       <use xlink:href="#DejaVuSans-1b" transform="translate(285.859375 0)"/>
      </g>
     </g>
    </g>
   </g>
   <g id="matplotlib.axis_4">
    <g id="ytick_9">
     <g id="line2d_44">
      <path d="M 429.591516 225.198979
L 774.59976 225.198979
" clip-path="url(#p137e7f053c)" style="fill: none; stroke: #b0b0b0; stroke-opacity: 0.18; stroke-width: 0.6; stroke-linecap: square"/>
     </g>
     <g id="line2d_45">
      <g>
       <use xlink:href="#m92cf0501d5" x="429.591516" y="225.198979" style="stroke: #000000; stroke-width: 0.8"/>
      </g>
     </g>
     <g id="text_25">
      <!-- 0 -->
      <g transform="translate(416.229016 228.997807) scale(0.1 -0.1)">
       <use xlink:href="#DejaVuSans-13"/>
      </g>
     </g>
    </g>
    <g id="ytick_10">
     <g id="line2d_46">
      <path d="M 429.591516 192.32798
L 774.59976 192.32798
" clip-path="url(#p137e7f053c)" style="fill: none; stroke: #b0b0b0; stroke-opacity: 0.18; stroke-width: 0.6; stroke-linecap: square"/>
     </g>
     <g id="line2d_47">
      <g>
       <use xlink:href="#m92cf0501d5" x="429.591516" y="192.32798" style="stroke: #000000; stroke-width: 0.8"/>
      </g>
     </g>
     <g id="text_26">
      <!-- 2 -->
      <g transform="translate(416.229016 196.126808) scale(0.1 -0.1)">
       <use xlink:href="#DejaVuSans-15"/>
      </g>
     </g>
    </g>
    <g id="ytick_11">
     <g id="line2d_48">
      <path d="M 429.591516 159.456981
L 774.59976 159.456981
" clip-path="url(#p137e7f053c)" style="fill: none; stroke: #b0b0b0; stroke-opacity: 0.18; stroke-width: 0.6; stroke-linecap: square"/>
     </g>
     <g id="line2d_49">
      <g>
       <use xlink:href="#m92cf0501d5" x="429.591516" y="159.456981" style="stroke: #000000; stroke-width: 0.8"/>
      </g>
     </g>
     <g id="text_27">
      <!-- 4 -->
      <g transform="translate(416.229016 163.255809) scale(0.1 -0.1)">
       <use xlink:href="#DejaVuSans-17"/>
      </g>
     </g>
    </g>
    <g id="ytick_12">
     <g id="line2d_50">
      <path d="M 429.591516 126.585981
L 774.59976 126.585981
" clip-path="url(#p137e7f053c)" style="fill: none; stroke: #b0b0b0; stroke-opacity: 0.18; stroke-width: 0.6; stroke-linecap: square"/>
     </g>
     <g id="line2d_51">
      <g>
       <use xlink:href="#m92cf0501d5" x="429.591516" y="126.585981" style="stroke: #000000; stroke-width: 0.8"/>
      </g>
     </g>
     <g id="text_28">
      <!-- 6 -->
      <g transform="translate(416.229016 130.38481) scale(0.1 -0.1)">
       <use xlink:href="#DejaVuSans-19"/>
      </g>
     </g>
    </g>
    <g id="ytick_13">
     <g id="line2d_52">
      <path d="M 429.591516 93.714982
L 774.59976 93.714982
" clip-path="url(#p137e7f053c)" style="fill: none; stroke: #b0b0b0; stroke-opacity: 0.18; stroke-width: 0.6; stroke-linecap: square"/>
     </g>
     <g id="line2d_53">
      <g>
       <use xlink:href="#m92cf0501d5" x="429.591516" y="93.714982" style="stroke: #000000; stroke-width: 0.8"/>
      </g>
     </g>
     <g id="text_29">
      <!-- 8 -->
      <g transform="translate(416.229016 97.51381) scale(0.1 -0.1)">
       <use xlink:href="#DejaVuSans-1b"/>
      </g>
     </g>
    </g>
    <g id="ytick_14">
     <g id="line2d_54">
      <path d="M 429.591516 60.843983
L 774.59976 60.843983
" clip-path="url(#p137e7f053c)" style="fill: none; stroke: #b0b0b0; stroke-opacity: 0.18; stroke-width: 0.6; stroke-linecap: square"/>
     </g>
     <g id="line2d_55">
      <g>
       <use xlink:href="#m92cf0501d5" x="429.591516" y="60.843983" style="stroke: #000000; stroke-width: 0.8"/>
      </g>
     </g>
     <g id="text_30">
      <!-- 10 -->
      <g transform="translate(409.866516 64.642811) scale(0.1 -0.1)">
       <use xlink:href="#DejaVuSans-14"/>
       <use xlink:href="#DejaVuSans-13" transform="translate(63.625 0)"/>
      </g>
     </g>
    </g>
    <g id="ytick_15">
     <g id="line2d_56">
      <path d="M 429.591516 27.972984
L 774.59976 27.972984
" clip-path="url(#p137e7f053c)" style="fill: none; stroke: #b0b0b0; stroke-opacity: 0.18; stroke-width: 0.6; stroke-linecap: square"/>
     </g>
     <g id="line2d_57">
      <g>
       <use xlink:href="#m92cf0501d5" x="429.591516" y="27.972984" style="stroke: #000000; stroke-width: 0.8"/>
      </g>
     </g>
     <g id="text_31">
      <!-- 12 -->
      <g transform="translate(409.866516 31.771812) scale(0.1 -0.1)">
       <use xlink:href="#DejaVuSans-14"/>
       <use xlink:href="#DejaVuSans-15" transform="translate(63.625 0)"/>
      </g>
     </g>
    </g>
    <g id="text_32">
     <!-- coordination number -->
     <g transform="translate(403.464172 173.971172) rotate(-90) scale(0.1 -0.1)">
      <defs>
       <path id="DejaVuSans-45" d="M 3116 1747
Q 3116 2381 2855 2742
Q 2594 3103 2138 3103
Q 1681 3103 1420 2742
Q 1159 2381 1159 1747
Q 1159 1113 1420 752
Q 1681 391 2138 391
Q 2594 391 2855 752
Q 3116 1113 3116 1747
z
M 1159 2969
Q 1341 3281 1617 3432
Q 1894 3584 2278 3584
Q 2916 3584 3314 3078
Q 3713 2572 3713 1747
Q 3713 922 3314 415
Q 2916 -91 2278 -91
Q 1894 -91 1617 61
Q 1341 213 1159 525
L 1159 0
L 581 0
L 581 4863
L 1159 4863
L 1159 2969
z
" transform="scale(0.015625)"/>
      </defs>
      <use xlink:href="#DejaVuSans-46"/>
      <use xlink:href="#DejaVuSans-52" transform="translate(54.984375 0)"/>
      <use xlink:href="#DejaVuSans-52" transform="translate(116.171875 0)"/>
      <use xlink:href="#DejaVuSans-55" transform="translate(177.359375 0)"/>
      <use xlink:href="#DejaVuSans-47" transform="translate(216.71875 0)"/>
      <use xlink:href="#DejaVuSans-4c" transform="translate(280.203125 0)"/>
      <use xlink:href="#DejaVuSans-51" transform="translate(307.984375 0)"/>
      <use xlink:href="#DejaVuSans-44" transform="translate(371.359375 0)"/>
      <use xlink:href="#DejaVuSans-57" transform="translate(432.640625 0)"/>
      <use xlink:href="#DejaVuSans-4c" transform="translate(471.84375 0)"/>
      <use xlink:href="#DejaVuSans-52" transform="translate(499.625 0)"/>
      <use xlink:href="#DejaVuSans-51" transform="translate(560.8125 0)"/>
      <use xlink:href="#DejaVuSans-3" transform="translate(624.1875 0)"/>
      <use xlink:href="#DejaVuSans-51" transform="translate(655.96875 0)"/>
      <use xlink:href="#DejaVuSans-58" transform="translate(719.34375 0)"/>
      <use xlink:href="#DejaVuSans-50" transform="translate(782.71875 0)"/>
      <use xlink:href="#DejaVuSans-45" transform="translate(880.125 0)"/>
      <use xlink:href="#DejaVuSans-48" transform="translate(943.609375 0)"/>
      <use xlink:href="#DejaVuSans-55" transform="translate(1005.140625 0)"/>
     </g>
    </g>
   </g>
   <g id="LineCollection_1">
    <path d="M 514.972344 27.979348
L 514.972344 27.979347
" clip-path="url(#p137e7f053c)" style="fill: none; stroke: #000000; stroke-width: 1.5"/>
    <path d="M 689.218932 27.991891
L 689.218932 27.98202
" clip-path="url(#p137e7f053c)" style="fill: none; stroke: #000000; stroke-width: 1.5"/>
   </g>
   <g id="line2d_58">
    <defs>
     <path id="me85b6c52d0" d="M 4 0
L -4 -0
" style="stroke: #000000"/>
    </defs>
    <g clip-path="url(#p137e7f053c)">
     <use xlink:href="#me85b6c52d0" x="514.972344" y="27.979348" style="fill: #1f77b4; stroke: #000000"/>
     <use xlink:href="#me85b6c52d0" x="689.218932" y="27.991891" style="fill: #1f77b4; stroke: #000000"/>
    </g>
   </g>
   <g id="line2d_59">
    <g clip-path="url(#p137e7f053c)">
     <use xlink:href="#me85b6c52d0" x="514.972344" y="27.979347" style="fill: #1f77b4; stroke: #000000"/>
     <use xlink:href="#me85b6c52d0" x="689.218932" y="27.98202" style="fill: #1f77b4; stroke: #000000"/>
    </g>
   </g>
   <g id="patch_8">
    <path d="M 429.591516 225.198979
L 429.591516 18.118365
" style="fill: none; stroke: #000000; stroke-width: 0.8; stroke-linejoin: miter; stroke-linecap: square"/>
   </g>
   <g id="patch_9">
    <path d="M 429.591516 225.198979
L 774.59976 225.198979
" style="fill: none; stroke: #000000; stroke-width: 0.8; stroke-linejoin: miter; stroke-linecap: square"/>
   </g>
   <g id="text_33">
    <!-- Coordination needs an error bar -->
    <g transform="translate(506.047825 12.118365) scale(0.12 -0.12)">
     <defs>
      <path id="DejaVuSans-26" d="M 4122 4306
L 4122 3641
Q 3803 3938 3442 4084
Q 3081 4231 2675 4231
Q 1875 4231 1450 3742
Q 1025 3253 1025 2328
Q 1025 1406 1450 917
Q 1875 428 2675 428
Q 3081 428 3442 575
Q 3803 722 4122 1019
L 4122 359
Q 3791 134 3420 21
Q 3050 -91 2638 -91
Q 1578 -91 968 557
Q 359 1206 359 2328
Q 359 3453 968 4101
Q 1578 4750 2638 4750
Q 3056 4750 3426 4639
Q 3797 4528 4122 4306
z
" transform="scale(0.015625)"/>
     </defs>
     <use xlink:href="#DejaVuSans-26"/>
     <use xlink:href="#DejaVuSans-52" transform="translate(69.828125 0)"/>
     <use xlink:href="#DejaVuSans-52" transform="translate(131.015625 0)"/>
     <use xlink:href="#DejaVuSans-55" transform="translate(192.203125 0)"/>
     <use xlink:href="#DejaVuSans-47" transform="translate(231.5625 0)"/>
     <use xlink:href="#DejaVuSans-4c" transform="translate(295.046875 0)"/>
     <use xlink:href="#DejaVuSans-51" transform="translate(322.828125 0)"/>
     <use xlink:href="#DejaVuSans-44" transform="translate(386.203125 0)"/>
     <use xlink:href="#DejaVuSans-57" transform="translate(447.484375 0)"/>
     <use xlink:href="#DejaVuSans-4c" transform="translate(486.6875 0)"/>
     <use xlink:href="#DejaVuSans-52" transform="translate(514.46875 0)"/>
     <use xlink:href="#DejaVuSans-51" transform="translate(575.65625 0)"/>
     <use xlink:href="#DejaVuSans-3" transform="translate(639.03125 0)"/>
     <use xlink:href="#DejaVuSans-51" transform="translate(670.8125 0)"/>
     <use xlink:href="#DejaVuSans-48" transform="translate(734.1875 0)"/>
     <use xlink:href="#DejaVuSans-48" transform="translate(795.71875 0)"/>
     <use xlink:href="#DejaVuSans-47" transform="translate(857.25 0)"/>
     <use xlink:href="#DejaVuSans-56" transform="translate(920.734375 0)"/>
     <use xlink:href="#DejaVuSans-3" transform="translate(972.828125 0)"/>
     <use xlink:href="#DejaVuSans-44" transform="translate(1004.609375 0)"/>
     <use xlink:href="#DejaVuSans-51" transform="translate(1065.890625 0)"/>
     <use xlink:href="#DejaVuSans-3" transform="translate(1129.265625 0)"/>
     <use xlink:href="#DejaVuSans-48" transform="translate(1161.046875 0)"/>
     <use xlink:href="#DejaVuSans-55" transform="translate(1222.578125 0)"/>
     <use xlink:href="#DejaVuSans-55" transform="translate(1261.9375 0)"/>
     <use xlink:href="#DejaVuSans-52" transform="translate(1300.84375 0)"/>
     <use xlink:href="#DejaVuSans-55" transform="translate(1362.03125 0)"/>
     <use xlink:href="#DejaVuSans-3" transform="translate(1403.140625 0)"/>
     <use xlink:href="#DejaVuSans-45" transform="translate(1434.921875 0)"/>
     <use xlink:href="#DejaVuSans-44" transform="translate(1498.40625 0)"/>
     <use xlink:href="#DejaVuSans-55" transform="translate(1559.6875 0)"/>
    </g>
   </g>
  </g>
  <g id="axes_3">
   <g id="patch_10">
    <path d="M 39.904146 484.398979
L 384.912391 484.398979
L 384.912391 277.318365
L 39.904146 277.318365
z
" style="fill: #ffffff"/>
   </g>
   <g id="matplotlib.axis_5">
    <g id="xtick_12">
     <g id="line2d_60">
      <path d="M 55.586339 484.398979
L 55.586339 277.318365
" clip-path="url(#p55bb140b9d)" style="fill: none; stroke: #b0b0b0; stroke-opacity: 0.18; stroke-width: 0.6; stroke-linecap: square"/>
     </g>
     <g id="line2d_61">
      <g>
       <use xlink:href="#mf3ce9f3e72" x="55.586339" y="484.398979" style="stroke: #000000; stroke-width: 0.8"/>
      </g>
     </g>
     <g id="text_34">
      <!-- 0 -->
      <g transform="translate(52.405089 498.996635) scale(0.1 -0.1)">
       <use xlink:href="#DejaVuSans-13"/>
      </g>
     </g>
    </g>
    <g id="xtick_13">
     <g id="line2d_62">
      <path d="M 94.791821 484.398979
L 94.791821 277.318365
" clip-path="url(#p55bb140b9d)" style="fill: none; stroke: #b0b0b0; stroke-opacity: 0.18; stroke-width: 0.6; stroke-linecap: square"/>
     </g>
     <g id="line2d_63">
      <g>
       <use xlink:href="#mf3ce9f3e72" x="94.791821" y="484.398979" style="stroke: #000000; stroke-width: 0.8"/>
      </g>
     </g>
     <g id="text_35">
      <!-- 5 -->
      <g transform="translate(91.610571 498.996635) scale(0.1 -0.1)">
       <use xlink:href="#DejaVuSans-18"/>
      </g>
     </g>
    </g>
    <g id="xtick_14">
     <g id="line2d_64">
      <path d="M 133.997304 484.398979
L 133.997304 277.318365
" clip-path="url(#p55bb140b9d)" style="fill: none; stroke: #b0b0b0; stroke-opacity: 0.18; stroke-width: 0.6; stroke-linecap: square"/>
     </g>
     <g id="line2d_65">
      <g>
       <use xlink:href="#mf3ce9f3e72" x="133.997304" y="484.398979" style="stroke: #000000; stroke-width: 0.8"/>
      </g>
     </g>
     <g id="text_36">
      <!-- 10 -->
      <g transform="translate(127.634804 498.996635) scale(0.1 -0.1)">
       <use xlink:href="#DejaVuSans-14"/>
       <use xlink:href="#DejaVuSans-13" transform="translate(63.625 0)"/>
      </g>
     </g>
    </g>
    <g id="xtick_15">
     <g id="line2d_66">
      <path d="M 173.202786 484.398979
L 173.202786 277.318365
" clip-path="url(#p55bb140b9d)" style="fill: none; stroke: #b0b0b0; stroke-opacity: 0.18; stroke-width: 0.6; stroke-linecap: square"/>
     </g>
     <g id="line2d_67">
      <g>
       <use xlink:href="#mf3ce9f3e72" x="173.202786" y="484.398979" style="stroke: #000000; stroke-width: 0.8"/>
      </g>
     </g>
     <g id="text_37">
      <!-- 15 -->
      <g transform="translate(166.840286 498.996635) scale(0.1 -0.1)">
       <use xlink:href="#DejaVuSans-14"/>
       <use xlink:href="#DejaVuSans-18" transform="translate(63.625 0)"/>
      </g>
     </g>
    </g>
    <g id="xtick_16">
     <g id="line2d_68">
      <path d="M 212.408268 484.398979
L 212.408268 277.318365
" clip-path="url(#p55bb140b9d)" style="fill: none; stroke: #b0b0b0; stroke-opacity: 0.18; stroke-width: 0.6; stroke-linecap: square"/>
     </g>
     <g id="line2d_69">
      <g>
       <use xlink:href="#mf3ce9f3e72" x="212.408268" y="484.398979" style="stroke: #000000; stroke-width: 0.8"/>
      </g>
     </g>
     <g id="text_38">
      <!-- 20 -->
      <g transform="translate(206.045768 498.996635) scale(0.1 -0.1)">
       <use xlink:href="#DejaVuSans-15"/>
       <use xlink:href="#DejaVuSans-13" transform="translate(63.625 0)"/>
      </g>
     </g>
    </g>
    <g id="xtick_17">
     <g id="line2d_70">
      <path d="M 251.613751 484.398979
L 251.613751 277.318365
" clip-path="url(#p55bb140b9d)" style="fill: none; stroke: #b0b0b0; stroke-opacity: 0.18; stroke-width: 0.6; stroke-linecap: square"/>
     </g>
     <g id="line2d_71">
      <g>
       <use xlink:href="#mf3ce9f3e72" x="251.613751" y="484.398979" style="stroke: #000000; stroke-width: 0.8"/>
      </g>
     </g>
     <g id="text_39">
      <!-- 25 -->
      <g transform="translate(245.251251 498.996635) scale(0.1 -0.1)">
       <use xlink:href="#DejaVuSans-15"/>
       <use xlink:href="#DejaVuSans-18" transform="translate(63.625 0)"/>
      </g>
     </g>
    </g>
    <g id="xtick_18">
     <g id="line2d_72">
      <path d="M 290.819233 484.398979
L 290.819233 277.318365
" clip-path="url(#p55bb140b9d)" style="fill: none; stroke: #b0b0b0; stroke-opacity: 0.18; stroke-width: 0.6; stroke-linecap: square"/>
     </g>
     <g id="line2d_73">
      <g>
       <use xlink:href="#mf3ce9f3e72" x="290.819233" y="484.398979" style="stroke: #000000; stroke-width: 0.8"/>
      </g>
     </g>
     <g id="text_40">
      <!-- 30 -->
      <g transform="translate(284.456733 498.996635) scale(0.1 -0.1)">
       <use xlink:href="#DejaVuSans-16"/>
       <use xlink:href="#DejaVuSans-13" transform="translate(63.625 0)"/>
      </g>
     </g>
    </g>
    <g id="xtick_19">
     <g id="line2d_74">
      <path d="M 330.024715 484.398979
L 330.024715 277.318365
" clip-path="url(#p55bb140b9d)" style="fill: none; stroke: #b0b0b0; stroke-opacity: 0.18; stroke-width: 0.6; stroke-linecap: square"/>
     </g>
     <g id="line2d_75">
      <g>
       <use xlink:href="#mf3ce9f3e72" x="330.024715" y="484.398979" style="stroke: #000000; stroke-width: 0.8"/>
      </g>
     </g>
     <g id="text_41">
      <!-- 35 -->
      <g transform="translate(323.662215 498.996635) scale(0.1 -0.1)">
       <use xlink:href="#DejaVuSans-16"/>
       <use xlink:href="#DejaVuSans-18" transform="translate(63.625 0)"/>
      </g>
     </g>
    </g>
    <g id="xtick_20">
     <g id="line2d_76">
      <path d="M 369.230198 484.398979
L 369.230198 277.318365
" clip-path="url(#p55bb140b9d)" style="fill: none; stroke: #b0b0b0; stroke-opacity: 0.18; stroke-width: 0.6; stroke-linecap: square"/>
     </g>
     <g id="line2d_77">
      <g>
       <use xlink:href="#mf3ce9f3e72" x="369.230198" y="484.398979" style="stroke: #000000; stroke-width: 0.8"/>
      </g>
     </g>
     <g id="text_42">
      <!-- 40 -->
      <g transform="translate(362.867698 498.996635) scale(0.1 -0.1)">
       <use xlink:href="#DejaVuSans-17"/>
       <use xlink:href="#DejaVuSans-13" transform="translate(63.625 0)"/>
      </g>
     </g>
    </g>
    <g id="text_43">
     <!-- lag -->
     <g transform="translate(204.780925 512.997416) scale(0.1 -0.1)">
      <use xlink:href="#DejaVuSans-4f"/>
      <use xlink:href="#DejaVuSans-44" transform="translate(27.78125 0)"/>
      <use xlink:href="#DejaVuSans-4a" transform="translate(89.0625 0)"/>
     </g>
    </g>
   </g>
   <g id="matplotlib.axis_6">
    <g id="ytick_16">
     <g id="line2d_78">
      <path d="M 39.904146 469.904546
L 384.912391 469.904546
" clip-path="url(#p55bb140b9d)" style="fill: none; stroke: #b0b0b0; stroke-opacity: 0.18; stroke-width: 0.6; stroke-linecap: square"/>
     </g>
     <g id="line2d_79">
      <g>
       <use xlink:href="#m92cf0501d5" x="39.904146" y="469.904546" style="stroke: #000000; stroke-width: 0.8"/>
      </g>
     </g>
     <g id="text_44">
      <!-- 0.0 -->
      <g transform="translate(17.001021 473.703374) scale(0.1 -0.1)">
       <defs>
        <path id="DejaVuSans-11" d="M 684 794
L 1344 794
L 1344 0
L 684 0
L 684 794
z
" transform="scale(0.015625)"/>
       </defs>
       <use xlink:href="#DejaVuSans-13"/>
       <use xlink:href="#DejaVuSans-11" transform="translate(63.625 0)"/>
       <use xlink:href="#DejaVuSans-13" transform="translate(95.40625 0)"/>
      </g>
     </g>
    </g>
    <g id="ytick_17">
     <g id="line2d_80">
      <path d="M 39.904146 433.269861
L 384.912391 433.269861
" clip-path="url(#p55bb140b9d)" style="fill: none; stroke: #b0b0b0; stroke-opacity: 0.18; stroke-width: 0.6; stroke-linecap: square"/>
     </g>
     <g id="line2d_81">
      <g>
       <use xlink:href="#m92cf0501d5" x="39.904146" y="433.269861" style="stroke: #000000; stroke-width: 0.8"/>
      </g>
     </g>
     <g id="text_45">
      <!-- 0.2 -->
      <g transform="translate(17.001021 437.068689) scale(0.1 -0.1)">
       <use xlink:href="#DejaVuSans-13"/>
       <use xlink:href="#DejaVuSans-11" transform="translate(63.625 0)"/>
       <use xlink:href="#DejaVuSans-15" transform="translate(95.40625 0)"/>
      </g>
     </g>
    </g>
    <g id="ytick_18">
     <g id="line2d_82">
      <path d="M 39.904146 396.635176
L 384.912391 396.635176
" clip-path="url(#p55bb140b9d)" style="fill: none; stroke: #b0b0b0; stroke-opacity: 0.18; stroke-width: 0.6; stroke-linecap: square"/>
     </g>
     <g id="line2d_83">
      <g>
       <use xlink:href="#m92cf0501d5" x="39.904146" y="396.635176" style="stroke: #000000; stroke-width: 0.8"/>
      </g>
     </g>
     <g id="text_46">
      <!-- 0.4 -->
      <g transform="translate(17.001021 400.434004) scale(0.1 -0.1)">
       <use xlink:href="#DejaVuSans-13"/>
       <use xlink:href="#DejaVuSans-11" transform="translate(63.625 0)"/>
       <use xlink:href="#DejaVuSans-17" transform="translate(95.40625 0)"/>
      </g>
     </g>
    </g>
    <g id="ytick_19">
     <g id="line2d_84">
      <path d="M 39.904146 360.000491
L 384.912391 360.000491
" clip-path="url(#p55bb140b9d)" style="fill: none; stroke: #b0b0b0; stroke-opacity: 0.18; stroke-width: 0.6; stroke-linecap: square"/>
     </g>
     <g id="line2d_85">
      <g>
       <use xlink:href="#m92cf0501d5" x="39.904146" y="360.000491" style="stroke: #000000; stroke-width: 0.8"/>
      </g>
     </g>
     <g id="text_47">
      <!-- 0.6 -->
      <g transform="translate(17.001021 363.799319) scale(0.1 -0.1)">
       <use xlink:href="#DejaVuSans-13"/>
       <use xlink:href="#DejaVuSans-11" transform="translate(63.625 0)"/>
       <use xlink:href="#DejaVuSans-19" transform="translate(95.40625 0)"/>
      </g>
     </g>
    </g>
    <g id="ytick_20">
     <g id="line2d_86">
      <path d="M 39.904146 323.365805
L 384.912391 323.365805
" clip-path="url(#p55bb140b9d)" style="fill: none; stroke: #b0b0b0; stroke-opacity: 0.18; stroke-width: 0.6; stroke-linecap: square"/>
     </g>
     <g id="line2d_87">
      <g>
       <use xlink:href="#m92cf0501d5" x="39.904146" y="323.365805" style="stroke: #000000; stroke-width: 0.8"/>
      </g>
     </g>
     <g id="text_48">
      <!-- 0.8 -->
      <g transform="translate(17.001021 327.164634) scale(0.1 -0.1)">
       <use xlink:href="#DejaVuSans-13"/>
       <use xlink:href="#DejaVuSans-11" transform="translate(63.625 0)"/>
       <use xlink:href="#DejaVuSans-1b" transform="translate(95.40625 0)"/>
      </g>
     </g>
    </g>
    <g id="ytick_21">
     <g id="line2d_88">
      <path d="M 39.904146 286.73112
L 384.912391 286.73112
" clip-path="url(#p55bb140b9d)" style="fill: none; stroke: #b0b0b0; stroke-opacity: 0.18; stroke-width: 0.6; stroke-linecap: square"/>
     </g>
     <g id="line2d_89">
      <g>
       <use xlink:href="#m92cf0501d5" x="39.904146" y="286.73112" style="stroke: #000000; stroke-width: 0.8"/>
      </g>
     </g>
     <g id="text_49">
      <!-- 1.0 -->
      <g transform="translate(17.001021 290.529948) scale(0.1 -0.1)">
       <use xlink:href="#DejaVuSans-14"/>
       <use xlink:href="#DejaVuSans-11" transform="translate(63.625 0)"/>
       <use xlink:href="#DejaVuSans-13" transform="translate(95.40625 0)"/>
      </g>
     </g>
    </g>
    <g id="text_50">
     <!-- normalized VACF -->
     <g transform="translate(10.598678 423.032109) rotate(-90) scale(0.1 -0.1)">
      <defs>
       <path id="DejaVuSans-5d" d="M 353 3500
L 3084 3500
L 3084 2975
L 922 459
L 3084 459
L 3084 0
L 275 0
L 275 525
L 2438 3041
L 353 3041
L 353 3500
z
" transform="scale(0.015625)"/>
       <path id="DejaVuSans-39" d="M 1831 0
L 50 4666
L 709 4666
L 2188 738
L 3669 4666
L 4325 4666
L 2547 0
L 1831 0
z
" transform="scale(0.015625)"/>
       <path id="DejaVuSans-24" d="M 2188 4044
L 1331 1722
L 3047 1722
L 2188 4044
z
M 1831 4666
L 2547 4666
L 4325 0
L 3669 0
L 3244 1197
L 1141 1197
L 716 0
L 50 0
L 1831 4666
z
" transform="scale(0.015625)"/>
      </defs>
      <use xlink:href="#DejaVuSans-51"/>
      <use xlink:href="#DejaVuSans-52" transform="translate(63.375 0)"/>
      <use xlink:href="#DejaVuSans-55" transform="translate(124.5625 0)"/>
      <use xlink:href="#DejaVuSans-50" transform="translate(163.921875 0)"/>
      <use xlink:href="#DejaVuSans-44" transform="translate(261.328125 0)"/>
      <use xlink:href="#DejaVuSans-4f" transform="translate(322.609375 0)"/>
      <use xlink:href="#DejaVuSans-4c" transform="translate(350.390625 0)"/>
      <use xlink:href="#DejaVuSans-5d" transform="translate(378.171875 0)"/>
      <use xlink:href="#DejaVuSans-48" transform="translate(430.65625 0)"/>
      <use xlink:href="#DejaVuSans-47" transform="translate(492.1875 0)"/>
      <use xlink:href="#DejaVuSans-3" transform="translate(555.671875 0)"/>
      <use xlink:href="#DejaVuSans-39" transform="translate(587.453125 0)"/>
      <use xlink:href="#DejaVuSans-24" transform="translate(649.46875 0)"/>
      <use xlink:href="#DejaVuSans-26" transform="translate(716.125 0)"/>
      <use xlink:href="#DejaVuSans-29" transform="translate(785.953125 0)"/>
     </g>
    </g>
   </g>
   <g id="line2d_90">
    <path d="M 39.904146 469.904546
L 384.912391 469.904546
" clip-path="url(#p55bb140b9d)" style="fill: none; stroke: #333333; stroke-width: 0.8; stroke-linecap: square"/>
   </g>
   <g id="line2d_91">
    <path d="M 55.586339 286.73112
L 63.427436 308.570145
L 71.268532 328.205299
L 79.109629 345.2666
L 86.950725 360.602633
L 94.791821 373.80807
L 102.632918 385.009489
L 110.474014 394.447154
L 118.315111 403.223513
L 126.156207 411.379655
L 133.997304 418.957868
L 141.8384 425.795009
L 149.679497 431.365583
L 157.520593 436.443981
L 165.36169 440.976352
L 173.202786 444.7456
L 181.043883 448.152099
L 188.884979 450.628293
L 196.726076 452.76434
L 204.567172 454.34793
L 212.408268 455.936873
L 220.249365 457.141071
L 228.090461 458.303737
L 235.931558 459.521732
L 243.772654 460.822286
L 251.613751 461.892632
L 259.454847 462.854812
L 267.295944 463.938815
L 275.13704 465.16353
L 282.978137 466.356453
L 290.819233 467.741851
L 298.66033 468.51584
L 306.501426 469.446244
L 314.342522 470.257647
L 322.183619 471.403897
L 330.024715 472.588813
L 337.865812 473.991405
L 345.706908 474.583081
L 353.548005 474.986224
L 361.389101 474.795912
L 369.230198 474.311745
" clip-path="url(#p55bb140b9d)" style="fill: none; stroke: #2f6f9f; stroke-width: 1.5; stroke-linecap: square"/>
   </g>
   <g id="patch_11">
    <path d="M 39.904146 484.398979
L 39.904146 277.318365
" style="fill: none; stroke: #000000; stroke-width: 0.8; stroke-linejoin: miter; stroke-linecap: square"/>
   </g>
   <g id="patch_12">
    <path d="M 39.904146 484.398979
L 384.912391 484.398979
" style="fill: none; stroke: #000000; stroke-width: 0.8; stroke-linejoin: miter; stroke-linecap: square"/>
   </g>
   <g id="text_51">
    <g id="patch_13">
     <path d="M 50.254394 310.457044
L 101.047206 310.457044
Q 103.427206 310.457044 103.427206 308.077044
L 103.427206 287.672396
Q 103.427206 285.292396 101.047206 285.292396
L 50.254394 285.292396
Q 47.874394 285.292396 47.874394 287.672396
L 47.874394 308.077044
Q 47.874394 310.457044 50.254394 310.457044
z
" style="fill: #ffffff; opacity: 0.9; stroke: #000000; stroke-linejoin: miter"/>
    </g>
    <!-- rho = 0.021 -->
    <g transform="translate(50.254394 294.981898) scale(0.085 -0.085)">
     <defs>
      <path id="DejaVuSans-4b" d="M 3513 2113
L 3513 0
L 2938 0
L 2938 2094
Q 2938 2591 2744 2837
Q 2550 3084 2163 3084
Q 1697 3084 1428 2787
Q 1159 2491 1159 1978
L 1159 0
L 581 0
L 581 4863
L 1159 4863
L 1159 2956
Q 1366 3272 1645 3428
Q 1925 3584 2291 3584
Q 2894 3584 3203 3211
Q 3513 2838 3513 2113
z
" transform="scale(0.015625)"/>
     </defs>
     <use xlink:href="#DejaVuSans-55"/>
     <use xlink:href="#DejaVuSans-4b" transform="translate(39.359375 0)"/>
     <use xlink:href="#DejaVuSans-52" transform="translate(102.734375 0)"/>
     <use xlink:href="#DejaVuSans-3" transform="translate(163.921875 0)"/>
     <use xlink:href="#DejaVuSans-20" transform="translate(195.703125 0)"/>
     <use xlink:href="#DejaVuSans-3" transform="translate(279.5 0)"/>
     <use xlink:href="#DejaVuSans-13" transform="translate(311.28125 0)"/>
     <use xlink:href="#DejaVuSans-11" transform="translate(374.90625 0)"/>
     <use xlink:href="#DejaVuSans-13" transform="translate(406.6875 0)"/>
     <use xlink:href="#DejaVuSans-15" transform="translate(470.3125 0)"/>
     <use xlink:href="#DejaVuSans-14" transform="translate(533.9375 0)"/>
    </g>
    <!-- bin = 0.08 -->
    <g transform="translate(50.254394 305.184222) scale(0.085 -0.085)">
     <use xlink:href="#DejaVuSans-45"/>
     <use xlink:href="#DejaVuSans-4c" transform="translate(63.484375 0)"/>
     <use xlink:href="#DejaVuSans-51" transform="translate(91.265625 0)"/>
     <use xlink:href="#DejaVuSans-3" transform="translate(154.640625 0)"/>
     <use xlink:href="#DejaVuSans-20" transform="translate(186.421875 0)"/>
     <use xlink:href="#DejaVuSans-3" transform="translate(270.21875 0)"/>
     <use xlink:href="#DejaVuSans-13" transform="translate(302 0)"/>
     <use xlink:href="#DejaVuSans-11" transform="translate(365.625 0)"/>
     <use xlink:href="#DejaVuSans-13" transform="translate(397.40625 0)"/>
     <use xlink:href="#DejaVuSans-1b" transform="translate(461.03125 0)"/>
    </g>
   </g>
   <g id="text_52">
    <!-- Time correlation is an observable -->
    <g transform="translate(112.470768 271.318365) scale(0.12 -0.12)">
     <defs>
      <path id="DejaVuSans-37" d="M -19 4666
L 3928 4666
L 3928 4134
L 2272 4134
L 2272 0
L 1638 0
L 1638 4134
L -19 4134
L -19 4666
z
" transform="scale(0.015625)"/>
      <path id="DejaVuSans-59" d="M 191 3500
L 800 3500
L 1894 563
L 2988 3500
L 3597 3500
L 2284 0
L 1503 0
L 191 3500
z
" transform="scale(0.015625)"/>
     </defs>
     <use xlink:href="#DejaVuSans-37"/>
     <use xlink:href="#DejaVuSans-4c" transform="translate(58 0)"/>
     <use xlink:href="#DejaVuSans-50" transform="translate(85.78125 0)"/>
     <use xlink:href="#DejaVuSans-48" transform="translate(183.1875 0)"/>
     <use xlink:href="#DejaVuSans-3" transform="translate(244.71875 0)"/>
     <use xlink:href="#DejaVuSans-46" transform="translate(276.5 0)"/>
     <use xlink:href="#DejaVuSans-52" transform="translate(331.484375 0)"/>
     <use xlink:href="#DejaVuSans-55" transform="translate(392.671875 0)"/>
     <use xlink:href="#DejaVuSans-55" transform="translate(432.03125 0)"/>
     <use xlink:href="#DejaVuSans-48" transform="translate(470.9375 0)"/>
     <use xlink:href="#DejaVuSans-4f" transform="translate(532.46875 0)"/>
     <use xlink:href="#DejaVuSans-44" transform="translate(560.25 0)"/>
     <use xlink:href="#DejaVuSans-57" transform="translate(621.53125 0)"/>
     <use xlink:href="#DejaVuSans-4c" transform="translate(660.734375 0)"/>
     <use xlink:href="#DejaVuSans-52" transform="translate(688.515625 0)"/>
     <use xlink:href="#DejaVuSans-51" transform="translate(749.703125 0)"/>
     <use xlink:href="#DejaVuSans-3" transform="translate(813.078125 0)"/>
     <use xlink:href="#DejaVuSans-4c" transform="translate(844.859375 0)"/>
     <use xlink:href="#DejaVuSans-56" transform="translate(872.640625 0)"/>
     <use xlink:href="#DejaVuSans-3" transform="translate(924.734375 0)"/>
     <use xlink:href="#DejaVuSans-44" transform="translate(956.515625 0)"/>
     <use xlink:href="#DejaVuSans-51" transform="translate(1017.796875 0)"/>
     <use xlink:href="#DejaVuSans-3" transform="translate(1081.171875 0)"/>
     <use xlink:href="#DejaVuSans-52" transform="translate(1112.953125 0)"/>
     <use xlink:href="#DejaVuSans-45" transform="translate(1174.140625 0)"/>
     <use xlink:href="#DejaVuSans-56" transform="translate(1237.625 0)"/>
     <use xlink:href="#DejaVuSans-48" transform="translate(1289.71875 0)"/>
     <use xlink:href="#DejaVuSans-55" transform="translate(1351.25 0)"/>
     <use xlink:href="#DejaVuSans-59" transform="translate(1392.359375 0)"/>
     <use xlink:href="#DejaVuSans-44" transform="translate(1451.546875 0)"/>
     <use xlink:href="#DejaVuSans-45" transform="translate(1512.828125 0)"/>
     <use xlink:href="#DejaVuSans-4f" transform="translate(1576.3125 0)"/>
     <use xlink:href="#DejaVuSans-48" transform="translate(1604.09375 0)"/>
    </g>
   </g>
  </g>
  <g id="axes_4">
   <g id="patch_14">
    <path d="M 429.591516 484.398979
L 774.59976 484.398979
L 774.59976 277.318365
L 429.591516 277.318365
z
" style="fill: #ffffff"/>
   </g>
   <g id="FillBetweenPolyCollection_1">
    <defs>
     <path id="m6b64d74d8d" d="M 445.273709 -43.413776
L 445.273709 -43.413776
L 452.923559 -43.413776
L 460.573409 -43.413776
L 468.223259 -43.413776
L 475.873109 -43.413776
L 483.52296 -43.413776
L 491.17281 -43.413776
L 498.82266 -43.413776
L 506.47251 -43.413776
L 514.12236 -43.413776
L 521.772211 -43.413776
L 529.422061 -43.413776
L 537.071911 -43.413776
L 544.721761 -43.413776
L 552.371611 -43.413776
L 560.021462 -43.413776
L 567.671312 -43.413776
L 575.321162 -43.413776
L 582.971012 -43.413776
L 590.620863 -43.413776
L 598.270713 -43.413776
L 605.920563 -43.413776
L 613.570413 -43.413776
L 621.220263 -45.477471
L 628.870114 -67.043016
L 636.519964 -128.341967
L 644.169814 -199.159985
L 651.819664 -219.044688
L 659.469514 -212.754424
L 667.119365 -192.523162
L 674.769215 -162.35041
L 682.419065 -135.198733
L 690.068915 -113.787494
L 697.718765 -99.693046
L 705.368616 -89.600663
L 713.018466 -78.043497
L 720.668316 -74.395918
L 728.318166 -73.134731
L 735.968016 -73.761639
L 743.617867 -75.10782
L 751.267717 -78.717436
L 758.917567 -78.163195
L 758.917567 -78.587506
L 758.917567 -78.587506
L 751.267717 -81.197998
L 743.617867 -78.762191
L 735.968016 -74.608997
L 728.318166 -75.732994
L 720.668316 -78.189066
L 713.018466 -83.032762
L 705.368616 -91.41304
L 697.718765 -103.622293
L 690.068915 -119.830271
L 682.419065 -141.962137
L 674.769215 -170.45019
L 667.119365 -198.164865
L 659.469514 -229.012522
L 651.819664 -231.66888
L 644.169814 -206.28232
L 636.519964 -139.77629
L 628.870114 -73.851994
L 621.220263 -46.097207
L 613.570413 -43.413776
L 605.920563 -43.413776
L 598.270713 -43.413776
L 590.620863 -43.413776
L 582.971012 -43.413776
L 575.321162 -43.413776
L 567.671312 -43.413776
L 560.021462 -43.413776
L 552.371611 -43.413776
L 544.721761 -43.413776
L 537.071911 -43.413776
L 529.422061 -43.413776
L 521.772211 -43.413776
L 514.12236 -43.413776
L 506.47251 -43.413776
L 498.82266 -43.413776
L 491.17281 -43.413776
L 483.52296 -43.413776
L 475.873109 -43.413776
L 468.223259 -43.413776
L 460.573409 -43.413776
L 452.923559 -43.413776
L 445.273709 -43.413776
z
"/>
    </defs>
    <g clip-path="url(#p5b2f978bae)">
     <use xlink:href="#m6b64d74d8d" x="0" y="518.4" style="fill: #2b8a6e; fill-opacity: 0.18"/>
    </g>
   </g>
   <g id="matplotlib.axis_7">
    <g id="xtick_21">
     <g id="line2d_92">
      <path d="M 441.448783 484.398979
L 441.448783 277.318365
" clip-path="url(#p5b2f978bae)" style="fill: none; stroke: #b0b0b0; stroke-opacity: 0.18; stroke-width: 0.6; stroke-linecap: square"/>
     </g>
     <g id="line2d_93">
      <g>
       <use xlink:href="#mf3ce9f3e72" x="441.448783" y="484.398979" style="stroke: #000000; stroke-width: 0.8"/>
      </g>
     </g>
     <g id="text_53">
      <!-- 0.00 -->
      <g transform="translate(430.315971 498.996635) scale(0.1 -0.1)">
       <use xlink:href="#DejaVuSans-13"/>
       <use xlink:href="#DejaVuSans-11" transform="translate(63.625 0)"/>
       <use xlink:href="#DejaVuSans-13" transform="translate(95.40625 0)"/>
       <use xlink:href="#DejaVuSans-13" transform="translate(159.03125 0)"/>
      </g>
     </g>
    </g>
    <g id="xtick_22">
     <g id="line2d_94">
      <path d="M 489.260347 484.398979
L 489.260347 277.318365
" clip-path="url(#p5b2f978bae)" style="fill: none; stroke: #b0b0b0; stroke-opacity: 0.18; stroke-width: 0.6; stroke-linecap: square"/>
     </g>
     <g id="line2d_95">
      <g>
       <use xlink:href="#mf3ce9f3e72" x="489.260347" y="484.398979" style="stroke: #000000; stroke-width: 0.8"/>
      </g>
     </g>
     <g id="text_54">
      <!-- 0.25 -->
      <g transform="translate(478.127535 498.996635) scale(0.1 -0.1)">
       <use xlink:href="#DejaVuSans-13"/>
       <use xlink:href="#DejaVuSans-11" transform="translate(63.625 0)"/>
       <use xlink:href="#DejaVuSans-15" transform="translate(95.40625 0)"/>
       <use xlink:href="#DejaVuSans-18" transform="translate(159.03125 0)"/>
      </g>
     </g>
    </g>
    <g id="xtick_23">
     <g id="line2d_96">
      <path d="M 537.071911 484.398979
L 537.071911 277.318365
" clip-path="url(#p5b2f978bae)" style="fill: none; stroke: #b0b0b0; stroke-opacity: 0.18; stroke-width: 0.6; stroke-linecap: square"/>
     </g>
     <g id="line2d_97">
      <g>
       <use xlink:href="#mf3ce9f3e72" x="537.071911" y="484.398979" style="stroke: #000000; stroke-width: 0.8"/>
      </g>
     </g>
     <g id="text_55">
      <!-- 0.50 -->
      <g transform="translate(525.939099 498.996635) scale(0.1 -0.1)">
       <use xlink:href="#DejaVuSans-13"/>
       <use xlink:href="#DejaVuSans-11" transform="translate(63.625 0)"/>
       <use xlink:href="#DejaVuSans-18" transform="translate(95.40625 0)"/>
       <use xlink:href="#DejaVuSans-13" transform="translate(159.03125 0)"/>
      </g>
     </g>
    </g>
    <g id="xtick_24">
     <g id="line2d_98">
      <path d="M 584.883475 484.398979
L 584.883475 277.318365
" clip-path="url(#p5b2f978bae)" style="fill: none; stroke: #b0b0b0; stroke-opacity: 0.18; stroke-width: 0.6; stroke-linecap: square"/>
     </g>
     <g id="line2d_99">
      <g>
       <use xlink:href="#mf3ce9f3e72" x="584.883475" y="484.398979" style="stroke: #000000; stroke-width: 0.8"/>
      </g>
     </g>
     <g id="text_56">
      <!-- 0.75 -->
      <g transform="translate(573.750662 498.996635) scale(0.1 -0.1)">
       <use xlink:href="#DejaVuSans-13"/>
       <use xlink:href="#DejaVuSans-11" transform="translate(63.625 0)"/>
       <use xlink:href="#DejaVuSans-1a" transform="translate(95.40625 0)"/>
       <use xlink:href="#DejaVuSans-18" transform="translate(159.03125 0)"/>
      </g>
     </g>
    </g>
    <g id="xtick_25">
     <g id="line2d_100">
      <path d="M 632.695039 484.398979
L 632.695039 277.318365
" clip-path="url(#p5b2f978bae)" style="fill: none; stroke: #b0b0b0; stroke-opacity: 0.18; stroke-width: 0.6; stroke-linecap: square"/>
     </g>
     <g id="line2d_101">
      <g>
       <use xlink:href="#mf3ce9f3e72" x="632.695039" y="484.398979" style="stroke: #000000; stroke-width: 0.8"/>
      </g>
     </g>
     <g id="text_57">
      <!-- 1.00 -->
      <g transform="translate(621.562226 498.996635) scale(0.1 -0.1)">
       <use xlink:href="#DejaVuSans-14"/>
       <use xlink:href="#DejaVuSans-11" transform="translate(63.625 0)"/>
       <use xlink:href="#DejaVuSans-13" transform="translate(95.40625 0)"/>
       <use xlink:href="#DejaVuSans-13" transform="translate(159.03125 0)"/>
      </g>
     </g>
    </g>
    <g id="xtick_26">
     <g id="line2d_102">
      <path d="M 680.506602 484.398979
L 680.506602 277.318365
" clip-path="url(#p5b2f978bae)" style="fill: none; stroke: #b0b0b0; stroke-opacity: 0.18; stroke-width: 0.6; stroke-linecap: square"/>
     </g>
     <g id="line2d_103">
      <g>
       <use xlink:href="#mf3ce9f3e72" x="680.506602" y="484.398979" style="stroke: #000000; stroke-width: 0.8"/>
      </g>
     </g>
     <g id="text_58">
      <!-- 1.25 -->
      <g transform="translate(669.37379 498.996635) scale(0.1 -0.1)">
       <use xlink:href="#DejaVuSans-14"/>
       <use xlink:href="#DejaVuSans-11" transform="translate(63.625 0)"/>
       <use xlink:href="#DejaVuSans-15" transform="translate(95.40625 0)"/>
       <use xlink:href="#DejaVuSans-18" transform="translate(159.03125 0)"/>
      </g>
     </g>
    </g>
    <g id="xtick_27">
     <g id="line2d_104">
      <path d="M 728.318166 484.398979
L 728.318166 277.318365
" clip-path="url(#p5b2f978bae)" style="fill: none; stroke: #b0b0b0; stroke-opacity: 0.18; stroke-width: 0.6; stroke-linecap: square"/>
     </g>
     <g id="line2d_105">
      <g>
       <use xlink:href="#mf3ce9f3e72" x="728.318166" y="484.398979" style="stroke: #000000; stroke-width: 0.8"/>
      </g>
     </g>
     <g id="text_59">
      <!-- 1.50 -->
      <g transform="translate(717.185354 498.996635) scale(0.1 -0.1)">
       <use xlink:href="#DejaVuSans-14"/>
       <use xlink:href="#DejaVuSans-11" transform="translate(63.625 0)"/>
       <use xlink:href="#DejaVuSans-18" transform="translate(95.40625 0)"/>
       <use xlink:href="#DejaVuSans-13" transform="translate(159.03125 0)"/>
      </g>
     </g>
    </g>
    <g id="text_60">
     <!-- radius -->
     <g transform="translate(586.639388 512.997416) scale(0.1 -0.1)">
      <use xlink:href="#DejaVuSans-55"/>
      <use xlink:href="#DejaVuSans-44" transform="translate(41.109375 0)"/>
      <use xlink:href="#DejaVuSans-47" transform="translate(102.390625 0)"/>
      <use xlink:href="#DejaVuSans-4c" transform="translate(165.875 0)"/>
      <use xlink:href="#DejaVuSans-58" transform="translate(193.65625 0)"/>
      <use xlink:href="#DejaVuSans-56" transform="translate(257.03125 0)"/>
     </g>
    </g>
   </g>
   <g id="matplotlib.axis_8">
    <g id="ytick_22">
     <g id="line2d_106">
      <path d="M 429.591516 474.986224
L 774.59976 474.986224
" clip-path="url(#p5b2f978bae)" style="fill: none; stroke: #b0b0b0; stroke-opacity: 0.18; stroke-width: 0.6; stroke-linecap: square"/>
     </g>
     <g id="line2d_107">
      <g>
       <use xlink:href="#m92cf0501d5" x="429.591516" y="474.986224" style="stroke: #000000; stroke-width: 0.8"/>
      </g>
     </g>
     <g id="text_61">
      <!-- 0.0 -->
      <g transform="translate(406.688391 478.785052) scale(0.1 -0.1)">
       <use xlink:href="#DejaVuSans-13"/>
       <use xlink:href="#DejaVuSans-11" transform="translate(63.625 0)"/>
       <use xlink:href="#DejaVuSans-13" transform="translate(95.40625 0)"/>
      </g>
     </g>
    </g>
    <g id="ytick_23">
     <g id="line2d_108">
      <path d="M 429.591516 443.835133
L 774.59976 443.835133
" clip-path="url(#p5b2f978bae)" style="fill: none; stroke: #b0b0b0; stroke-opacity: 0.18; stroke-width: 0.6; stroke-linecap: square"/>
     </g>
     <g id="line2d_109">
      <g>
       <use xlink:href="#m92cf0501d5" x="429.591516" y="443.835133" style="stroke: #000000; stroke-width: 0.8"/>
      </g>
     </g>
     <g id="text_62">
      <!-- 0.5 -->
      <g transform="translate(406.688391 447.633961) scale(0.1 -0.1)">
       <use xlink:href="#DejaVuSans-13"/>
       <use xlink:href="#DejaVuSans-11" transform="translate(63.625 0)"/>
       <use xlink:href="#DejaVuSans-18" transform="translate(95.40625 0)"/>
      </g>
     </g>
    </g>
    <g id="ytick_24">
     <g id="line2d_110">
      <path d="M 429.591516 412.684042
L 774.59976 412.684042
" clip-path="url(#p5b2f978bae)" style="fill: none; stroke: #b0b0b0; stroke-opacity: 0.18; stroke-width: 0.6; stroke-linecap: square"/>
     </g>
     <g id="line2d_111">
      <g>
       <use xlink:href="#m92cf0501d5" x="429.591516" y="412.684042" style="stroke: #000000; stroke-width: 0.8"/>
      </g>
     </g>
     <g id="text_63">
      <!-- 1.0 -->
      <g transform="translate(406.688391 416.48287) scale(0.1 -0.1)">
       <use xlink:href="#DejaVuSans-14"/>
       <use xlink:href="#DejaVuSans-11" transform="translate(63.625 0)"/>
       <use xlink:href="#DejaVuSans-13" transform="translate(95.40625 0)"/>
      </g>
     </g>
    </g>
    <g id="ytick_25">
     <g id="line2d_112">
      <path d="M 429.591516 381.532951
L 774.59976 381.532951
" clip-path="url(#p5b2f978bae)" style="fill: none; stroke: #b0b0b0; stroke-opacity: 0.18; stroke-width: 0.6; stroke-linecap: square"/>
     </g>
     <g id="line2d_113">
      <g>
       <use xlink:href="#m92cf0501d5" x="429.591516" y="381.532951" style="stroke: #000000; stroke-width: 0.8"/>
      </g>
     </g>
     <g id="text_64">
      <!-- 1.5 -->
      <g transform="translate(406.688391 385.331779) scale(0.1 -0.1)">
       <use xlink:href="#DejaVuSans-14"/>
       <use xlink:href="#DejaVuSans-11" transform="translate(63.625 0)"/>
       <use xlink:href="#DejaVuSans-18" transform="translate(95.40625 0)"/>
      </g>
     </g>
    </g>
    <g id="ytick_26">
     <g id="line2d_114">
      <path d="M 429.591516 350.381861
L 774.59976 350.381861
" clip-path="url(#p5b2f978bae)" style="fill: none; stroke: #b0b0b0; stroke-opacity: 0.18; stroke-width: 0.6; stroke-linecap: square"/>
     </g>
     <g id="line2d_115">
      <g>
       <use xlink:href="#m92cf0501d5" x="429.591516" y="350.381861" style="stroke: #000000; stroke-width: 0.8"/>
      </g>
     </g>
     <g id="text_65">
      <!-- 2.0 -->
      <g transform="translate(406.688391 354.180689) scale(0.1 -0.1)">
       <use xlink:href="#DejaVuSans-15"/>
       <use xlink:href="#DejaVuSans-11" transform="translate(63.625 0)"/>
       <use xlink:href="#DejaVuSans-13" transform="translate(95.40625 0)"/>
      </g>
     </g>
    </g>
    <g id="ytick_27">
     <g id="line2d_116">
      <path d="M 429.591516 319.23077
L 774.59976 319.23077
" clip-path="url(#p5b2f978bae)" style="fill: none; stroke: #b0b0b0; stroke-opacity: 0.18; stroke-width: 0.6; stroke-linecap: square"/>
     </g>
     <g id="line2d_117">
      <g>
       <use xlink:href="#m92cf0501d5" x="429.591516" y="319.23077" style="stroke: #000000; stroke-width: 0.8"/>
      </g>
     </g>
     <g id="text_66">
      <!-- 2.5 -->
      <g transform="translate(406.688391 323.029598) scale(0.1 -0.1)">
       <use xlink:href="#DejaVuSans-15"/>
       <use xlink:href="#DejaVuSans-11" transform="translate(63.625 0)"/>
       <use xlink:href="#DejaVuSans-18" transform="translate(95.40625 0)"/>
      </g>
     </g>
    </g>
    <g id="ytick_28">
     <g id="line2d_118">
      <path d="M 429.591516 288.079679
L 774.59976 288.079679
" clip-path="url(#p5b2f978bae)" style="fill: none; stroke: #b0b0b0; stroke-opacity: 0.18; stroke-width: 0.6; stroke-linecap: square"/>
     </g>
     <g id="line2d_119">
      <g>
       <use xlink:href="#m92cf0501d5" x="429.591516" y="288.079679" style="stroke: #000000; stroke-width: 0.8"/>
      </g>
     </g>
     <g id="text_67">
      <!-- 3.0 -->
      <g transform="translate(406.688391 291.878507) scale(0.1 -0.1)">
       <use xlink:href="#DejaVuSans-16"/>
       <use xlink:href="#DejaVuSans-11" transform="translate(63.625 0)"/>
       <use xlink:href="#DejaVuSans-13" transform="translate(95.40625 0)"/>
      </g>
     </g>
    </g>
    <g id="text_68">
     <!-- g(r) -->
     <g transform="translate(400.286047 389.989922) rotate(-90) scale(0.1 -0.1)">
      <use xlink:href="#DejaVuSans-4a"/>
      <use xlink:href="#DejaVuSans-b" transform="translate(63.484375 0)"/>
      <use xlink:href="#DejaVuSans-55" transform="translate(102.5 0)"/>
      <use xlink:href="#DejaVuSans-c" transform="translate(143.609375 0)"/>
     </g>
    </g>
   </g>
   <g id="line2d_120">
    <path d="M 445.273709 474.986224
L 452.923559 474.986224
L 460.573409 474.986224
L 468.223259 474.986224
L 475.873109 474.986224
L 483.52296 474.986224
L 491.17281 474.986224
L 498.82266 474.986224
L 506.47251 474.986224
L 514.12236 474.986224
L 521.772211 474.986224
L 529.422061 474.986224
L 537.071911 474.986224
L 544.721761 474.986224
L 552.371611 474.986224
L 560.021462 474.986224
L 567.671312 474.986224
L 575.321162 474.986224
L 582.971012 474.986224
L 590.620863 474.986224
L 598.270713 474.986224
L 605.920563 474.986224
L 613.570413 474.986224
L 621.220263 472.612661
L 628.870114 447.952495
L 636.519964 384.340872
L 644.169814 315.678847
L 651.819664 293.043216
L 659.469514 297.516527
L 667.119365 323.055986
L 674.769215 351.9997
L 682.419065 379.819565
L 690.068915 401.591118
L 697.718765 416.742331
L 705.368616 427.893148
L 713.018466 437.861871
L 720.668316 442.107508
L 728.318166 443.966137
L 735.968016 444.214682
L 743.617867 441.464994
L 751.267717 438.442283
L 758.917567 440.024649
" clip-path="url(#p5b2f978bae)" style="fill: none; stroke: #2b8a6e; stroke-width: 1.5; stroke-linecap: square"/>
   </g>
   <g id="line2d_121">
    <path d="M 429.591516 412.684042
L 774.59976 412.684042
" clip-path="url(#p5b2f978bae)" style="fill: none; stroke-dasharray: 2.96,1.28; stroke-dashoffset: 0; stroke: #333333; stroke-width: 0.8"/>
   </g>
   <g id="line2d_122">
    <path d="M 718.755853 484.398979
L 718.755853 277.318365
" clip-path="url(#p5b2f978bae)" style="fill: none; stroke-dasharray: 0.8,1.32; stroke-dashoffset: 0; stroke: #5b5b5b; stroke-width: 0.8"/>
   </g>
   <g id="patch_15">
    <path d="M 429.591516 484.398979
L 429.591516 277.318365
" style="fill: none; stroke: #000000; stroke-width: 0.8; stroke-linejoin: miter; stroke-linecap: square"/>
   </g>
   <g id="patch_16">
    <path d="M 429.591516 484.398979
L 774.59976 484.398979
" style="fill: none; stroke: #000000; stroke-width: 0.8; stroke-linejoin: miter; stroke-linecap: square"/>
   </g>
   <g id="text_69">
    <g id="patch_17">
     <path d="M 439.941763 320.65804
L 504.203091 320.65804
Q 506.583091 320.65804 506.583091 318.27804
L 506.583091 287.672396
Q 506.583091 285.292396 504.203091 285.292396
L 439.941763 285.292396
Q 437.561763 285.292396 437.561763 287.672396
L 437.561763 318.27804
Q 437.561763 320.65804 439.941763 320.65804
z
" style="fill: #ffffff; opacity: 0.9; stroke: #000000; stroke-linejoin: miter"/>
    </g>
    <!-- N = 32 -->
    <g transform="translate(439.941763 294.981234) scale(0.085 -0.085)">
     <use xlink:href="#DejaVuSans-31"/>
     <use xlink:href="#DejaVuSans-3" transform="translate(74.8125 0)"/>
     <use xlink:href="#DejaVuSans-20" transform="translate(106.59375 0)"/>
     <use xlink:href="#DejaVuSans-3" transform="translate(190.390625 0)"/>
     <use xlink:href="#DejaVuSans-16" transform="translate(222.171875 0)"/>
     <use xlink:href="#DejaVuSans-15" transform="translate(285.796875 0)"/>
    </g>
    <!-- coord = 11.60 -->
    <g transform="translate(439.941763 305.183558) scale(0.085 -0.085)">
     <use xlink:href="#DejaVuSans-46"/>
     <use xlink:href="#DejaVuSans-52" transform="translate(54.984375 0)"/>
     <use xlink:href="#DejaVuSans-52" transform="translate(116.171875 0)"/>
     <use xlink:href="#DejaVuSans-55" transform="translate(177.359375 0)"/>
     <use xlink:href="#DejaVuSans-47" transform="translate(216.71875 0)"/>
     <use xlink:href="#DejaVuSans-3" transform="translate(280.203125 0)"/>
     <use xlink:href="#DejaVuSans-20" transform="translate(311.984375 0)"/>
     <use xlink:href="#DejaVuSans-3" transform="translate(395.78125 0)"/>
     <use xlink:href="#DejaVuSans-14" transform="translate(427.5625 0)"/>
     <use xlink:href="#DejaVuSans-14" transform="translate(491.1875 0)"/>
     <use xlink:href="#DejaVuSans-11" transform="translate(554.8125 0)"/>
     <use xlink:href="#DejaVuSans-19" transform="translate(586.59375 0)"/>
     <use xlink:href="#DejaVuSans-13" transform="translate(650.21875 0)"/>
    </g>
    <!-- rep SE = 0.046 -->
    <g transform="translate(439.941763 315.385218) scale(0.085 -0.085)">
     <defs>
      <path id="DejaVuSans-53" d="M 1159 525
L 1159 -1331
L 581 -1331
L 581 3500
L 1159 3500
L 1159 2969
Q 1341 3281 1617 3432
Q 1894 3584 2278 3584
Q 2916 3584 3314 3078
Q 3713 2572 3713 1747
Q 3713 922 3314 415
Q 2916 -91 2278 -91
Q 1894 -91 1617 61
Q 1341 213 1159 525
z
M 3116 1747
Q 3116 2381 2855 2742
Q 2594 3103 2138 3103
Q 1681 3103 1420 2742
Q 1159 2381 1159 1747
Q 1159 1113 1420 752
Q 1681 391 2138 391
Q 2594 391 2855 752
Q 3116 1113 3116 1747
z
" transform="scale(0.015625)"/>
      <path id="DejaVuSans-36" d="M 3425 4513
L 3425 3897
Q 3066 4069 2747 4153
Q 2428 4238 2131 4238
Q 1616 4238 1336 4038
Q 1056 3838 1056 3469
Q 1056 3159 1242 3001
Q 1428 2844 1947 2747
L 2328 2669
Q 3034 2534 3370 2195
Q 3706 1856 3706 1288
Q 3706 609 3251 259
Q 2797 -91 1919 -91
Q 1588 -91 1214 -16
Q 841 59 441 206
L 441 856
Q 825 641 1194 531
Q 1563 422 1919 422
Q 2459 422 2753 634
Q 3047 847 3047 1241
Q 3047 1584 2836 1778
Q 2625 1972 2144 2069
L 1759 2144
Q 1053 2284 737 2584
Q 422 2884 422 3419
Q 422 4038 858 4394
Q 1294 4750 2059 4750
Q 2388 4750 2728 4690
Q 3069 4631 3425 4513
z
" transform="scale(0.015625)"/>
      <path id="DejaVuSans-28" d="M 628 4666
L 3578 4666
L 3578 4134
L 1259 4134
L 1259 2753
L 3481 2753
L 3481 2222
L 1259 2222
L 1259 531
L 3634 531
L 3634 0
L 628 0
L 628 4666
z
" transform="scale(0.015625)"/>
     </defs>
     <use xlink:href="#DejaVuSans-55"/>
     <use xlink:href="#DejaVuSans-48" transform="translate(38.90625 0)"/>
     <use xlink:href="#DejaVuSans-53" transform="translate(100.4375 0)"/>
     <use xlink:href="#DejaVuSans-3" transform="translate(163.921875 0)"/>
     <use xlink:href="#DejaVuSans-36" transform="translate(195.703125 0)"/>
     <use xlink:href="#DejaVuSans-28" transform="translate(259.1875 0)"/>
     <use xlink:href="#DejaVuSans-3" transform="translate(322.375 0)"/>
     <use xlink:href="#DejaVuSans-20" transform="translate(354.15625 0)"/>
     <use xlink:href="#DejaVuSans-3" transform="translate(437.953125 0)"/>
     <use xlink:href="#DejaVuSans-13" transform="translate(469.734375 0)"/>
     <use xlink:href="#DejaVuSans-11" transform="translate(533.359375 0)"/>
     <use xlink:href="#DejaVuSans-13" transform="translate(565.140625 0)"/>
     <use xlink:href="#DejaVuSans-17" transform="translate(628.765625 0)"/>
     <use xlink:href="#DejaVuSans-19" transform="translate(692.390625 0)"/>
    </g>
   </g>
   <g id="text_70">
    <!-- Trajectory RDF is physical -->
    <g transform="translate(525.119388 271.318365) scale(0.12 -0.12)">
     <defs>
      <path id="DejaVuSans-4d" d="M 603 3500
L 1178 3500
L 1178 -63
Q 1178 -731 923 -1031
Q 669 -1331 103 -1331
L -116 -1331
L -116 -844
L 38 -844
Q 366 -844 484 -692
Q 603 -541 603 -63
L 603 3500
z
M 603 4863
L 1178 4863
L 1178 4134
L 603 4134
L 603 4863
z
" transform="scale(0.015625)"/>
      <path id="DejaVuSans-5c" d="M 2059 -325
Q 1816 -950 1584 -1140
Q 1353 -1331 966 -1331
L 506 -1331
L 506 -850
L 844 -850
Q 1081 -850 1212 -737
Q 1344 -625 1503 -206
L 1606 56
L 191 3500
L 800 3500
L 1894 763
L 2988 3500
L 3597 3500
L 2059 -325
z
" transform="scale(0.015625)"/>
     </defs>
     <use xlink:href="#DejaVuSans-37"/>
     <use xlink:href="#DejaVuSans-55" transform="translate(46.375 0)"/>
     <use xlink:href="#DejaVuSans-44" transform="translate(87.484375 0)"/>
     <use xlink:href="#DejaVuSans-4d" transform="translate(148.765625 0)"/>
     <use xlink:href="#DejaVuSans-48" transform="translate(176.546875 0)"/>
     <use xlink:href="#DejaVuSans-46" transform="translate(238.078125 0)"/>
     <use xlink:href="#DejaVuSans-57" transform="translate(293.0625 0)"/>
     <use xlink:href="#DejaVuSans-52" transform="translate(332.265625 0)"/>
     <use xlink:href="#DejaVuSans-55" transform="translate(393.453125 0)"/>
     <use xlink:href="#DejaVuSans-5c" transform="translate(434.5625 0)"/>
     <use xlink:href="#DejaVuSans-3" transform="translate(493.75 0)"/>
     <use xlink:href="#DejaVuSans-35" transform="translate(525.53125 0)"/>
     <use xlink:href="#DejaVuSans-27" transform="translate(595.015625 0)"/>
     <use xlink:href="#DejaVuSans-29" transform="translate(672.015625 0)"/>
     <use xlink:href="#DejaVuSans-3" transform="translate(729.53125 0)"/>
     <use xlink:href="#DejaVuSans-4c" transform="translate(761.3125 0)"/>
     <use xlink:href="#DejaVuSans-56" transform="translate(789.09375 0)"/>
     <use xlink:href="#DejaVuSans-3" transform="translate(841.1875 0)"/>
     <use xlink:href="#DejaVuSans-53" transform="translate(872.96875 0)"/>
     <use xlink:href="#DejaVuSans-4b" transform="translate(936.453125 0)"/>
     <use xlink:href="#DejaVuSans-5c" transform="translate(999.828125 0)"/>
     <use xlink:href="#DejaVuSans-56" transform="translate(1059.015625 0)"/>
     <use xlink:href="#DejaVuSans-4c" transform="translate(1111.109375 0)"/>
     <use xlink:href="#DejaVuSans-46" transform="translate(1138.890625 0)"/>
     <use xlink:href="#DejaVuSans-44" transform="translate(1193.875 0)"/>
     <use xlink:href="#DejaVuSans-4f" transform="translate(1255.15625 0)"/>
    </g>
   </g>
   <g id="legend_2">
    <g id="patch_18">
     <path d="M 436.791516 376.936797
L 452.791516 376.936797
L 452.791516 371.336797
L 436.791516 371.336797
z
" style="fill: #2b8a6e; fill-opacity: 0.18"/>
    </g>
    <g id="text_71">
     <!-- replica std -->
     <g transform="translate(459.191516 376.936797) scale(0.08 -0.08)">
      <use xlink:href="#DejaVuSans-55"/>
      <use xlink:href="#DejaVuSans-48" transform="translate(38.90625 0)"/>
      <use xlink:href="#DejaVuSans-53" transform="translate(100.4375 0)"/>
      <use xlink:href="#DejaVuSans-4f" transform="translate(163.921875 0)"/>
      <use xlink:href="#DejaVuSans-4c" transform="translate(191.703125 0)"/>
      <use xlink:href="#DejaVuSans-46" transform="translate(219.484375 0)"/>
      <use xlink:href="#DejaVuSans-44" transform="translate(274.46875 0)"/>
      <use xlink:href="#DejaVuSans-3" transform="translate(335.75 0)"/>
      <use xlink:href="#DejaVuSans-56" transform="translate(367.53125 0)"/>
      <use xlink:href="#DejaVuSans-57" transform="translate(419.625 0)"/>
      <use xlink:href="#DejaVuSans-47" transform="translate(458.828125 0)"/>
     </g>
    </g>
    <g id="line2d_123">
     <path d="M 436.791516 386.137422
L 444.791516 386.137422
L 452.791516 386.137422
" style="fill: none; stroke: #2b8a6e; stroke-width: 1.5; stroke-linecap: square"/>
    </g>
    <g id="text_72">
     <!-- trajectory RDF -->
     <g transform="translate(459.191516 388.937422) scale(0.08 -0.08)">
      <use xlink:href="#DejaVuSans-57"/>
      <use xlink:href="#DejaVuSans-55" transform="translate(39.203125 0)"/>
      <use xlink:href="#DejaVuSans-44" transform="translate(80.3125 0)"/>
      <use xlink:href="#DejaVuSans-4d" transform="translate(141.59375 0)"/>
      <use xlink:href="#DejaVuSans-48" transform="translate(169.375 0)"/>
      <use xlink:href="#DejaVuSans-46" transform="translate(230.90625 0)"/>
      <use xlink:href="#DejaVuSans-57" transform="translate(285.890625 0)"/>
      <use xlink:href="#DejaVuSans-52" transform="translate(325.09375 0)"/>
      <use xlink:href="#DejaVuSans-55" transform="translate(386.28125 0)"/>
      <use xlink:href="#DejaVuSans-5c" transform="translate(427.390625 0)"/>
      <use xlink:href="#DejaVuSans-3" transform="translate(486.578125 0)"/>
      <use xlink:href="#DejaVuSans-35" transform="translate(518.359375 0)"/>
      <use xlink:href="#DejaVuSans-27" transform="translate(587.84375 0)"/>
      <use xlink:href="#DejaVuSans-29" transform="translate(664.84375 0)"/>
     </g>
    </g>
   </g>
  </g>
 </g>
 <defs>
  <clipPath id="pac831dc729">
   <rect x="39.904146" y="18.118365" width="345.008244" height="207.080614"/>
  </clipPath>
  <clipPath id="p137e7f053c">
   <rect x="429.591516" y="18.118365" width="345.008244" height="207.080614"/>
  </clipPath>
  <clipPath id="p55bb140b9d">
   <rect x="39.904146" y="277.318365" width="345.008244" height="207.080614"/>
  </clipPath>
  <clipPath id="p5b2f978bae">
   <rect x="429.591516" y="277.318365" width="345.008244" height="207.080614"/>
  </clipPath>
 </defs>
</svg>
