<?xml version="1.0" encoding="utf-8" standalone="no"?>
<!DOCTYPE svg PUBLIC "-//W3C//DTD SVG 1.1//EN"
  "http://www.w3.org/Graphics/SVG/1.1/DTD/svg11.dtd">
<svg xmlns:xlink="http://www.w3.org/1999/xlink" width="878.4pt" height="259.2pt" viewBox="0 0 878.4 259.2" xmlns="http://www.w3.org/2000/svg" version="1.1">
 <metadata>
  <rdf:RDF xmlns:dc="http://purl.org/dc/elements/1.1/" xmlns:cc="http://creativecommons.org/ns#" xmlns:rdf="http://www.w3.org/1999/02/22-rdf-syntax-ns#">
   <cc:Work>
    <dc:type rdf:resource="http://purl.org/dc/dcmitype/StillImage"/>
    <dc:format>image/svg+xml</dc:format>
    <dc:creator>
     <cc:Agent>
      <dc:title>Matplotlib v3.11.0, https://matplotlib.org/</dc:title>
     </cc:Agent>
    </dc:creator>
   </cc:Work>
  </rdf:RDF>
 </metadata>
 <defs>
  <style type="text/css">*{stroke-linejoin: round; stroke-linecap: butt}</style>
 </defs>
 <g id="figure_1">
  <g id="patch_1">
   <path d="M 0 259.2
L 878.4 259.2
L 878.4 0
L 0 0
z
" style="fill: #ffffff"/>
  </g>
  <g id="axes_1">
   <g id="patch_2">
    <path d="M 39.904146 225.198979
L 286.751998 225.198979
L 286.751998 18.118365
L 39.904146 18.118365
z
" style="fill: #ffffff"/>
   </g>
   <g id="patch_3">
    <path d="M 51.124503 225.198979
L 82.437127 225.198979
L 82.437127 60.909815
L 51.124503 60.909815
z
" clip-path="url(#p62f664bf7e)" style="fill: #2f6f9f"/>
   </g>
   <g id="patch_4">
    <path d="M 181.593769 225.198979
L 212.906393 225.198979
L 212.906393 61.609391
L 181.593769 61.609391
z
" clip-path="url(#p62f664bf7e)" style="fill: #2f6f9f"/>
   </g>
   <g id="patch_5">
    <path d="M 82.437127 225.198979
L 113.749751 225.198979
L 113.749751 57.694716
L 82.437127 57.694716
z
" clip-path="url(#p62f664bf7e)" style="fill: #d88c3d"/>
   </g>
   <g id="patch_6">
    <path d="M 212.906393 225.198979
L 244.219017 225.198979
L 244.219017 27.979347
L 212.906393 27.979347
z
" clip-path="url(#p62f664bf7e)" style="fill: #d88c3d"/>
   </g>
   <g id="patch_7">
    <path d="M 113.749751 225.198979
L 145.062375 225.198979
L 145.062375 58.648066
L 113.749751 58.648066
z
" clip-path="url(#p62f664bf7e)" style="fill: #6a8f4e"/>
   </g>
   <g id="patch_8">
    <path d="M 244.219017 225.198979
L 275.531641 225.198979
L 275.531641 59.327877
L 244.219017 59.327877
z
" clip-path="url(#p62f664bf7e)" style="fill: #6a8f4e"/>
   </g>
   <g id="matplotlib.axis_1">
    <g id="xtick_1">
     <g id="line2d_1">
      <path d="M 98.093439 225.198979
L 98.093439 18.118365
" clip-path="url(#p62f664bf7e)" style="fill: none; stroke: #b0b0b0; stroke-opacity: 0.18; stroke-width: 0.6; stroke-linecap: square"/>
     </g>
     <g id="line2d_2">
      <defs>
       <path id="m30a26c73de" d="M 0 0
L 0 3.5
" style="stroke: #000000; stroke-width: 0.8"/>
      </defs>
      <g>
       <use xlink:href="#m30a26c73de" x="98.093439" y="225.198979" style="stroke: #000000; stroke-width: 0.8"/>
      </g>
     </g>
     <g id="text_1">
      <!-- good -->
      <g transform="translate(88.119689 239.07851) scale(0.08 -0.08)">
       <defs>
        <path id="DejaVuSans-4a" d="M 2906 1791
Q 2906 2416 2648 2759
Q 2391 3103 1925 3103
Q 1463 3103 1205 2759
Q 947 2416 947 1791
Q 947 1169 1205 825
Q 1463 481 1925 481
Q 2391 481 2648 825
Q 2906 1169 2906 1791
z
M 3481 434
Q 3481 -459 3084 -895
Q 2688 -1331 1869 -1331
Q 1566 -1331 1297 -1286
Q 1028 -1241 775 -1147
L 775 -588
Q 1028 -725 1275 -790
Q 1522 -856 1778 -856
Q 2344 -856 2625 -561
Q 2906 -266 2906 331
L 2906 616
Q 2728 306 2450 153
Q 2172 0 1784 0
Q 1141 0 747 490
Q 353 981 353 1791
Q 353 2603 747 3093
Q 1141 3584 1784 3584
Q 2172 3584 2450 3431
Q 2728 3278 2906 2969
L 2906 3500
L 3481 3500
L 3481 434
z
" transform="scale(0.015625)"/>
        <path id="DejaVuSans-52" d="M 1959 3097
Q 1497 3097 1228 2736
Q 959 2375 959 1747
Q 959 1119 1226 758
Q 1494 397 1959 397
Q 2419 397 2687 759
Q 2956 1122 2956 1747
Q 2956 2369 2687 2733
Q 2419 3097 1959 3097
z
M 1959 3584
Q 2709 3584 3137 3096
Q 3566 2609 3566 1747
Q 3566 888 3137 398
Q 2709 -91 1959 -91
Q 1206 -91 779 398
Q 353 888 353 1747
Q 353 2609 779 3096
Q 1206 3584 1959 3584
z
" transform="scale(0.015625)"/>
        <path id="DejaVuSans-47" d="M 2906 2969
L 2906 4863
L 3481 4863
L 3481 0
L 2906 0
L 2906 525
Q 2725 213 2448 61
Q 2172 -91 1784 -91
Q 1150 -91 751 415
Q 353 922 353 1747
Q 353 2572 751 3078
Q 1150 3584 1784 3584
Q 2172 3584 2448 3432
Q 2725 3281 2906 2969
z
M 947 1747
Q 947 1113 1208 752
Q 1469 391 1925 391
Q 2381 391 2643 752
Q 2906 1113 2906 1747
Q 2906 2381 2643 2742
Q 2381 3103 1925 3103
Q 1469 3103 1208 2742
Q 947 2381 947 1747
z
" transform="scale(0.015625)"/>
       </defs>
       <use xlink:href="#DejaVuSans-4a"/>
       <use xlink:href="#DejaVuSans-52" transform="translate(63.484375 0)"/>
       <use xlink:href="#DejaVuSans-52" transform="translate(124.671875 0)"/>
       <use xlink:href="#DejaVuSans-47" transform="translate(185.859375 0)"/>
      </g>
      <!-- overlap -->
      <g transform="translate(83.070939 248.680697) scale(0.08 -0.08)">
       <defs>
        <path id="DejaVuSans-59" d="M 191 3500
L 800 3500
L 1894 563
L 2988 3500
L 3597 3500
L 2284 0
L 1503 0
L 191 3500
z
" transform="scale(0.015625)"/>
        <path id="DejaVuSans-48" d="M 3597 1894
L 3597 1613
L 953 1613
Q 991 1019 1311 708
Q 1631 397 2203 397
Q 2534 397 2845 478
Q 3156 559 3463 722
L 3463 178
Q 3153 47 2828 -22
Q 2503 -91 2169 -91
Q 1331 -91 842 396
Q 353 884 353 1716
Q 353 2575 817 3079
Q 1281 3584 2069 3584
Q 2775 3584 3186 3129
Q 3597 2675 3597 1894
z
M 3022 2063
Q 3016 2534 2758 2815
Q 2500 3097 2075 3097
Q 1594 3097 1305 2825
Q 1016 2553 972 2059
L 3022 2063
z
" transform="scale(0.015625)"/>
        <path id="DejaVuSans-55" d="M 2631 2963
Q 2534 3019 2420 3045
Q 2306 3072 2169 3072
Q 1681 3072 1420 2755
Q 1159 2438 1159 1844
L 1159 0
L 581 0
L 581 3500
L 1159 3500
L 1159 2956
Q 1341 3275 1631 3429
Q 1922 3584 2338 3584
Q 2397 3584 2469 3576
Q 2541 3569 2628 3553
L 2631 2963
z
" transform="scale(0.015625)"/>
        <path id="DejaVuSans-4f" d="M 603 4863
L 1178 4863
L 1178 0
L 603 0
L 603 4863
z
" transform="scale(0.015625)"/>
        <path id="DejaVuSans-44" d="M 2194 1759
Q 1497 1759 1228 1600
Q 959 1441 959 1056
Q 959 750 1161 570
Q 1363 391 1709 391
Q 2188 391 2477 730
Q 2766 1069 2766 1631
L 2766 1759
L 2194 1759
z
M 3341 1997
L 3341 0
L 2766 0
L 2766 531
Q 2569 213 2275 61
Q 1981 -91 1556 -91
Q 1019 -91 701 211
Q 384 513 384 1019
Q 384 1609 779 1909
Q 1175 2209 1959 2209
L 2766 2209
L 2766 2266
Q 2766 2663 2505 2880
Q 2244 3097 1772 3097
Q 1472 3097 1187 3025
Q 903 2953 641 2809
L 641 3341
Q 956 3463 1253 3523
Q 1550 3584 1831 3584
Q 2591 3584 2966 3190
Q 3341 2797 3341 1997
z
" transform="scale(0.015625)"/>
        <path id="DejaVuSans-53" d="M 1159 525
L 1159 -1331
L 581 -1331
L 581 3500
L 1159 3500
L 1159 2969
Q 1341 3281 1617 3432
Q 1894 3584 2278 3584
Q 2916 3584 3314 3078
Q 3713 2572 3713 1747
Q 3713 922 3314 415
Q 2916 -91 2278 -91
Q 1894 -91 1617 61
Q 1341 213 1159 525
z
M 3116 1747
Q 3116 2381 2855 2742
Q 2594 3103 2138 3103
Q 1681 3103 1420 2742
Q 1159 2381 1159 1747
Q 1159 1113 1420 752
Q 1681 391 2138 391
Q 2594 391 2855 752
Q 3116 1113 3116 1747
z
" transform="scale(0.015625)"/>
       </defs>
       <use xlink:href="#DejaVuSans-52"/>
       <use xlink:href="#DejaVuSans-59" transform="translate(61.1875 0)"/>
       <use xlink:href="#DejaVuSans-48" transform="translate(120.375 0)"/>
       <use xlink:href="#DejaVuSans-55" transform="translate(181.90625 0)"/>
       <use xlink:href="#DejaVuSans-4f" transform="translate(223.015625 0)"/>
       <use xlink:href="#DejaVuSans-44" transform="translate(250.796875 0)"/>
       <use xlink:href="#DejaVuSans-53" transform="translate(312.078125 0)"/>
      </g>
     </g>
    </g>
    <g id="xtick_2">
     <g id="line2d_3">
      <path d="M 228.562705 225.198979
L 228.562705 18.118365
" clip-path="url(#p62f664bf7e)" style="fill: none; stroke: #b0b0b0; stroke-opacity: 0.18; stroke-width: 0.6; stroke-linecap: square"/>
     </g>
     <g id="line2d_4">
      <g>
       <use xlink:href="#m30a26c73de" x="228.562705" y="225.198979" style="stroke: #000000; stroke-width: 0.8"/>
      </g>
     </g>
     <g id="text_2">
      <!-- poor -->
      <g transform="translate(219.483955 239.077885) scale(0.08 -0.08)">
       <use xlink:href="#DejaVuSans-53"/>
       <use xlink:href="#DejaVuSans-52" transform="translate(63.484375 0)"/>
       <use xlink:href="#DejaVuSans-52" transform="translate(124.671875 0)"/>
       <use xlink:href="#DejaVuSans-55" transform="translate(185.859375 0)"/>
      </g>
      <!-- overlap -->
      <g transform="translate(213.540205 248.680072) scale(0.08 -0.08)">
       <use xlink:href="#DejaVuSans-52"/>
       <use xlink:href="#DejaVuSans-59" transform="translate(61.1875 0)"/>
       <use xlink:href="#DejaVuSans-48" transform="translate(120.375 0)"/>
       <use xlink:href="#DejaVuSans-55" transform="translate(181.90625 0)"/>
       <use xlink:href="#DejaVuSans-4f" transform="translate(223.015625 0)"/>
       <use xlink:href="#DejaVuSans-44" transform="translate(250.796875 0)"/>
       <use xlink:href="#DejaVuSans-53" transform="translate(312.078125 0)"/>
      </g>
     </g>
    </g>
   </g>
   <g id="matplotlib.axis_2">
    <g id="ytick_1">
     <g id="line2d_5">
      <path d="M 39.904146 225.198979
L 286.751998 225.198979
" clip-path="url(#p62f664bf7e)" style="fill: none; stroke: #b0b0b0; stroke-opacity: 0.18; stroke-width: 0.6; stroke-linecap: square"/>
     </g>
     <g id="line2d_6">
      <defs>
       <path id="mf41590833d" d="M 0 0
L -3.5 0
" style="stroke: #000000; stroke-width: 0.8"/>
      </defs>
      <g>
       <use xlink:href="#mf41590833d" x="39.904146" y="225.198979" style="stroke: #000000; stroke-width: 0.8"/>
      </g>
     </g>
     <g id="text_3">
      <!-- 0.0 -->
      <g transform="translate(17.001021 228.997807) scale(0.1 -0.1)">
       <defs>
        <path id="DejaVuSans-13" d="M 2034 4250
Q 1547 4250 1301 3770
Q 1056 3291 1056 2328
Q 1056 1369 1301 889
Q 1547 409 2034 409
Q 2525 409 2770 889
Q 3016 1369 3016 2328
Q 3016 3291 2770 3770
Q 2525 4250 2034 4250
z
M 2034 4750
Q 2819 4750 3233 4129
Q 3647 3509 3647 2328
Q 3647 1150 3233 529
Q 2819 -91 2034 -91
Q 1250 -91 836 529
Q 422 1150 422 2328
Q 422 3509 836 4129
Q 1250 4750 2034 4750
z
" transform="scale(0.015625)"/>
        <path id="DejaVuSans-11" d="M 684 794
L 1344 794
L 1344 0
L 684 0
L 684 794
z
" transform="scale(0.015625)"/>
       </defs>
       <use xlink:href="#DejaVuSans-13"/>
       <use xlink:href="#DejaVuSans-11" transform="translate(63.625 0)"/>
       <use xlink:href="#DejaVuSans-13" transform="translate(95.40625 0)"/>
      </g>
     </g>
    </g>
    <g id="ytick_2">
     <g id="line2d_7">
      <path d="M 39.904146 183.77275
L 286.751998 183.77275
" clip-path="url(#p62f664bf7e)" style="fill: none; stroke: #b0b0b0; stroke-opacity: 0.18; stroke-width: 0.6; stroke-linecap: square"/>
     </g>
     <g id="line2d_8">
      <g>
       <use xlink:href="#mf41590833d" x="39.904146" y="183.77275" style="stroke: #000000; stroke-width: 0.8"/>
      </g>
     </g>
     <g id="text_4">
      <!-- 0.2 -->
      <g transform="translate(17.001021 187.571578) scale(0.1 -0.1)">
       <defs>
        <path id="DejaVuSans-15" d="M 1228 531
L 3431 531
L 3431 0
L 469 0
L 469 531
Q 828 903 1448 1529
Q 2069 2156 2228 2338
Q 2531 2678 2651 2914
Q 2772 3150 2772 3378
Q 2772 3750 2511 3984
Q 2250 4219 1831 4219
Q 1534 4219 1204 4116
Q 875 4013 500 3803
L 500 4441
Q 881 4594 1212 4672
Q 1544 4750 1819 4750
Q 2544 4750 2975 4387
Q 3406 4025 3406 3419
Q 3406 3131 3298 2873
Q 3191 2616 2906 2266
Q 2828 2175 2409 1742
Q 1991 1309 1228 531
z
" transform="scale(0.015625)"/>
       </defs>
       <use xlink:href="#DejaVuSans-13"/>
       <use xlink:href="#DejaVuSans-11" transform="translate(63.625 0)"/>
       <use xlink:href="#DejaVuSans-15" transform="translate(95.40625 0)"/>
      </g>
     </g>
    </g>
    <g id="ytick_3">
     <g id="line2d_9">
      <path d="M 39.904146 142.346521
L 286.751998 142.346521
" clip-path="url(#p62f664bf7e)" style="fill: none; stroke: #b0b0b0; stroke-opacity: 0.18; stroke-width: 0.6; stroke-linecap: square"/>
     </g>
     <g id="line2d_10">
      <g>
       <use xlink:href="#mf41590833d" x="39.904146" y="142.346521" style="stroke: #000000; stroke-width: 0.8"/>
      </g>
     </g>
     <g id="text_5">
      <!-- 0.4 -->
      <g transform="translate(17.001021 146.145349) scale(0.1 -0.1)">
       <defs>
        <path id="DejaVuSans-17" d="M 2419 4116
L 825 1625
L 2419 1625
L 2419 4116
z
M 2253 4666
L 3047 4666
L 3047 1625
L 3713 1625
L 3713 1100
L 3047 1100
L 3047 0
L 2419 0
L 2419 1100
L 313 1100
L 313 1709
L 2253 4666
z
" transform="scale(0.015625)"/>
       </defs>
       <use xlink:href="#DejaVuSans-13"/>
       <use xlink:href="#DejaVuSans-11" transform="translate(63.625 0)"/>
       <use xlink:href="#DejaVuSans-17" transform="translate(95.40625 0)"/>
      </g>
     </g>
    </g>
    <g id="ytick_4">
     <g id="line2d_11">
      <path d="M 39.904146 100.920292
L 286.751998 100.920292
" clip-path="url(#p62f664bf7e)" style="fill: none; stroke: #b0b0b0; stroke-opacity: 0.18; stroke-width: 0.6; stroke-linecap: square"/>
     </g>
     <g id="line2d_12">
      <g>
       <use xlink:href="#mf41590833d" x="39.904146" y="100.920292" style="stroke: #000000; stroke-width: 0.8"/>
      </g>
     </g>
     <g id="text_6">
      <!-- 0.6 -->
      <g transform="translate(17.001021 104.71912) scale(0.1 -0.1)">
       <defs>
        <path id="DejaVuSans-19" d="M 2113 2584
Q 1688 2584 1439 2293
Q 1191 2003 1191 1497
Q 1191 994 1439 701
Q 1688 409 2113 409
Q 2538 409 2786 701
Q 3034 994 3034 1497
Q 3034 2003 2786 2293
Q 2538 2584 2113 2584
z
M 3366 4563
L 3366 3988
Q 3128 4100 2886 4159
Q 2644 4219 2406 4219
Q 1781 4219 1451 3797
Q 1122 3375 1075 2522
Q 1259 2794 1537 2939
Q 1816 3084 2150 3084
Q 2853 3084 3261 2657
Q 3669 2231 3669 1497
Q 3669 778 3244 343
Q 2819 -91 2113 -91
Q 1303 -91 875 529
Q 447 1150 447 2328
Q 447 3434 972 4092
Q 1497 4750 2381 4750
Q 2619 4750 2861 4703
Q 3103 4656 3366 4563
z
" transform="scale(0.015625)"/>
       </defs>
       <use xlink:href="#DejaVuSans-13"/>
       <use xlink:href="#DejaVuSans-11" transform="translate(63.625 0)"/>
       <use xlink:href="#DejaVuSans-19" transform="translate(95.40625 0)"/>
      </g>
     </g>
    </g>
    <g id="ytick_5">
     <g id="line2d_13">
      <path d="M 39.904146 59.494063
L 286.751998 59.494063
" clip-path="url(#p62f664bf7e)" style="fill: none; stroke: #b0b0b0; stroke-opacity: 0.18; stroke-width: 0.6; stroke-linecap: square"/>
     </g>
     <g id="line2d_14">
      <g>
       <use xlink:href="#mf41590833d" x="39.904146" y="59.494063" style="stroke: #000000; stroke-width: 0.8"/>
      </g>
     </g>
     <g id="text_7">
      <!-- 0.8 -->
      <g transform="translate(17.001021 63.292891) scale(0.1 -0.1)">
       <defs>
        <path id="DejaVuSans-1b" d="M 2034 2216
Q 1584 2216 1326 1975
Q 1069 1734 1069 1313
Q 1069 891 1326 650
Q 1584 409 2034 409
Q 2484 409 2743 651
Q 3003 894 3003 1313
Q 3003 1734 2745 1975
Q 2488 2216 2034 2216
z
M 1403 2484
Q 997 2584 770 2862
Q 544 3141 544 3541
Q 544 4100 942 4425
Q 1341 4750 2034 4750
Q 2731 4750 3128 4425
Q 3525 4100 3525 3541
Q 3525 3141 3298 2862
Q 3072 2584 2669 2484
Q 3125 2378 3379 2068
Q 3634 1759 3634 1313
Q 3634 634 3220 271
Q 2806 -91 2034 -91
Q 1263 -91 848 271
Q 434 634 434 1313
Q 434 1759 690 2068
Q 947 2378 1403 2484
z
M 1172 3481
Q 1172 3119 1398 2916
Q 1625 2713 2034 2713
Q 2441 2713 2670 2916
Q 2900 3119 2900 3481
Q 2900 3844 2670 4047
Q 2441 4250 2034 4250
Q 1625 4250 1398 4047
Q 1172 3844 1172 3481
z
" transform="scale(0.015625)"/>
       </defs>
       <use xlink:href="#DejaVuSans-13"/>
       <use xlink:href="#DejaVuSans-11" transform="translate(63.625 0)"/>
       <use xlink:href="#DejaVuSans-1b" transform="translate(95.40625 0)"/>
      </g>
     </g>
    </g>
    <g id="text_8">
     <!-- Delta F -->
     <g transform="translate(10.598678 139.463359) rotate(-90) scale(0.1 -0.1)">
      <defs>
       <path id="DejaVuSans-27" d="M 1259 4147
L 1259 519
L 2022 519
Q 2988 519 3436 956
Q 3884 1394 3884 2338
Q 3884 3275 3436 3711
Q 2988 4147 2022 4147
L 1259 4147
z
M 628 4666
L 1925 4666
Q 3281 4666 3915 4102
Q 4550 3538 4550 2338
Q 4550 1131 3912 565
Q 3275 0 1925 0
L 628 0
L 628 4666
z
" transform="scale(0.015625)"/>
       <path id="DejaVuSans-57" d="M 1172 4494
L 1172 3500
L 2356 3500
L 2356 3053
L 1172 3053
L 1172 1153
Q 1172 725 1289 603
Q 1406 481 1766 481
L 2356 481
L 2356 0
L 1766 0
Q 1100 0 847 248
Q 594 497 594 1153
L 594 3053
L 172 3053
L 172 3500
L 594 3500
L 594 4494
L 1172 4494
z
" transform="scale(0.015625)"/>
       <path id="DejaVuSans-3" transform="scale(0.015625)"/>
       <path id="DejaVuSans-29" d="M 628 4666
L 3309 4666
L 3309 4134
L 1259 4134
L 1259 2759
L 3109 2759
L 3109 2228
L 1259 2228
L 1259 0
L 628 0
L 628 4666
z
" transform="scale(0.015625)"/>
      </defs>
      <use xlink:href="#DejaVuSans-27"/>
      <use xlink:href="#DejaVuSans-48" transform="translate(77 0)"/>
      <use xlink:href="#DejaVuSans-4f" transform="translate(138.53125 0)"/>
      <use xlink:href="#DejaVuSans-57" transform="translate(166.3125 0)"/>
      <use xlink:href="#DejaVuSans-44" transform="translate(205.515625 0)"/>
      <use xlink:href="#DejaVuSans-3" transform="translate(266.796875 0)"/>
      <use xlink:href="#DejaVuSans-29" transform="translate(298.578125 0)"/>
     </g>
    </g>
   </g>
   <g id="line2d_15">
    <path d="M 39.904146 59.494063
L 286.751998 59.494063
" clip-path="url(#p62f664bf7e)" style="fill: none; stroke: #333333; stroke-width: 0.9; stroke-linecap: square"/>
   </g>
   <g id="patch_9">
    <path d="M 39.904146 225.198979
L 39.904146 18.118365
" style="fill: none; stroke: #000000; stroke-width: 0.8; stroke-linejoin: miter; stroke-linecap: square"/>
   </g>
   <g id="patch_10">
    <path d="M 39.904146 225.198979
L 286.751998 225.198979
" style="fill: none; stroke: #000000; stroke-width: 0.8; stroke-linejoin: miter; stroke-linecap: square"/>
   </g>
   <g id="text_9">
    <!-- Estimators need overlap -->
    <g transform="translate(89.912447 12.118365) scale(0.12 -0.12)">
     <defs>
      <path id="DejaVuSans-28" d="M 628 4666
L 3578 4666
L 3578 4134
L 1259 4134
L 1259 2753
L 3481 2753
L 3481 2222
L 1259 2222
L 1259 531
L 3634 531
L 3634 0
L 628 0
L 628 4666
z
" transform="scale(0.015625)"/>
      <path id="DejaVuSans-56" d="M 2834 3397
L 2834 2853
Q 2591 2978 2328 3040
Q 2066 3103 1784 3103
Q 1356 3103 1142 2972
Q 928 2841 928 2578
Q 928 2378 1081 2264
Q 1234 2150 1697 2047
L 1894 2003
Q 2506 1872 2764 1633
Q 3022 1394 3022 966
Q 3022 478 2636 193
Q 2250 -91 1575 -91
Q 1294 -91 989 -36
Q 684 19 347 128
L 347 722
Q 666 556 975 473
Q 1284 391 1588 391
Q 1994 391 2212 530
Q 2431 669 2431 922
Q 2431 1156 2273 1281
Q 2116 1406 1581 1522
L 1381 1569
Q 847 1681 609 1914
Q 372 2147 372 2553
Q 372 3047 722 3315
Q 1072 3584 1716 3584
Q 2034 3584 2315 3537
Q 2597 3491 2834 3397
z
" transform="scale(0.015625)"/>
      <path id="DejaVuSans-4c" d="M 603 3500
L 1178 3500
L 1178 0
L 603 0
L 603 3500
z
M 603 4863
L 1178 4863
L 1178 4134
L 603 4134
L 603 4863
z
" transform="scale(0.015625)"/>
      <path id="DejaVuSans-50" d="M 3328 2828
Q 3544 3216 3844 3400
Q 4144 3584 4550 3584
Q 5097 3584 5394 3201
Q 5691 2819 5691 2113
L 5691 0
L 5113 0
L 5113 2094
Q 5113 2597 4934 2840
Q 4756 3084 4391 3084
Q 3944 3084 3684 2787
Q 3425 2491 3425 1978
L 3425 0
L 2847 0
L 2847 2094
Q 2847 2600 2669 2842
Q 2491 3084 2119 3084
Q 1678 3084 1418 2786
Q 1159 2488 1159 1978
L 1159 0
L 581 0
L 581 3500
L 1159 3500
L 1159 2956
Q 1356 3278 1631 3431
Q 1906 3584 2284 3584
Q 2666 3584 2933 3390
Q 3200 3197 3328 2828
z
" transform="scale(0.015625)"/>
      <path id="DejaVuSans-51" d="M 3513 2113
L 3513 0
L 2938 0
L 2938 2094
Q 2938 2591 2744 2837
Q 2550 3084 2163 3084
Q 1697 3084 1428 2787
Q 1159 2491 1159 1978
L 1159 0
L 581 0
L 581 3500
L 1159 3500
L 1159 2956
Q 1366 3272 1645 3428
Q 1925 3584 2291 3584
Q 2894 3584 3203 3211
Q 3513 2838 3513 2113
z
" transform="scale(0.015625)"/>
     </defs>
     <use xlink:href="#DejaVuSans-28"/>
     <use xlink:href="#DejaVuSans-56" transform="translate(63.1875 0)"/>
     <use xlink:href="#DejaVuSans-57" transform="translate(115.28125 0)"/>
     <use xlink:href="#DejaVuSans-4c" transform="translate(154.484375 0)"/>
     <use xlink:href="#DejaVuSans-50" transform="translate(182.265625 0)"/>
     <use xlink:href="#DejaVuSans-44" transform="translate(279.671875 0)"/>
     <use xlink:href="#DejaVuSans-57" transform="translate(340.953125 0)"/>
     <use xlink:href="#DejaVuSans-52" transform="translate(380.15625 0)"/>
     <use xlink:href="#DejaVuSans-55" transform="translate(441.34375 0)"/>
     <use xlink:href="#DejaVuSans-56" transform="translate(482.453125 0)"/>
     <use xlink:href="#DejaVuSans-3" transform="translate(534.546875 0)"/>
     <use xlink:href="#DejaVuSans-51" transform="translate(566.328125 0)"/>
     <use xlink:href="#DejaVuSans-48" transform="translate(629.703125 0)"/>
     <use xlink:href="#DejaVuSans-48" transform="translate(691.234375 0)"/>
     <use xlink:href="#DejaVuSans-47" transform="translate(752.765625 0)"/>
     <use xlink:href="#DejaVuSans-3" transform="translate(816.25 0)"/>
     <use xlink:href="#DejaVuSans-52" transform="translate(848.03125 0)"/>
     <use xlink:href="#DejaVuSans-59" transform="translate(909.21875 0)"/>
     <use xlink:href="#DejaVuSans-48" transform="translate(968.40625 0)"/>
     <use xlink:href="#DejaVuSans-55" transform="translate(1029.9375 0)"/>
     <use xlink:href="#DejaVuSans-4f" transform="translate(1071.046875 0)"/>
     <use xlink:href="#DejaVuSans-44" transform="translate(1098.828125 0)"/>
     <use xlink:href="#DejaVuSans-53" transform="translate(1160.109375 0)"/>
    </g>
   </g>
   <g id="legend_1">
    <g id="patch_11">
     <path d="M 128.280572 192.075854
L 144.280572 192.075854
L 144.280572 186.475854
L 128.280572 186.475854
z
" style="fill: #2f6f9f"/>
    </g>
    <g id="text_10">
     <!-- forward FEP -->
     <g transform="translate(150.680572 192.075854) scale(0.08 -0.08)">
      <defs>
       <path id="DejaVuSans-49" d="M 2375 4863
L 2375 4384
L 1825 4384
Q 1516 4384 1395 4259
Q 1275 4134 1275 3809
L 1275 3500
L 2222 3500
L 2222 3053
L 1275 3053
L 1275 0
L 697 0
L 697 3053
L 147 3053
L 147 3500
L 697 3500
L 697 3744
Q 697 4328 969 4595
Q 1241 4863 1831 4863
L 2375 4863
z
" transform="scale(0.015625)"/>
       <path id="DejaVuSans-5a" d="M 269 3500
L 844 3500
L 1563 769
L 2278 3500
L 2956 3500
L 3675 769
L 4391 3500
L 4966 3500
L 4050 0
L 3372 0
L 2619 2869
L 1863 0
L 1184 0
L 269 3500
z
" transform="scale(0.015625)"/>
       <path id="DejaVuSans-33" d="M 1259 4147
L 1259 2394
L 2053 2394
Q 2494 2394 2734 2622
Q 2975 2850 2975 3272
Q 2975 3691 2734 3919
Q 2494 4147 2053 4147
L 1259 4147
z
M 628 4666
L 2053 4666
Q 2838 4666 3239 4311
Q 3641 3956 3641 3272
Q 3641 2581 3239 2228
Q 2838 1875 2053 1875
L 1259 1875
L 1259 0
L 628 0
L 628 4666
z
" transform="scale(0.015625)"/>
      </defs>
      <use xlink:href="#DejaVuSans-49"/>
      <use xlink:href="#DejaVuSans-52" transform="translate(35.203125 0)"/>
      <use xlink:href="#DejaVuSans-55" transform="translate(96.390625 0)"/>
      <use xlink:href="#DejaVuSans-5a" transform="translate(137.5 0)"/>
      <use xlink:href="#DejaVuSans-44" transform="translate(219.28125 0)"/>
      <use xlink:href="#DejaVuSans-55" transform="translate(280.5625 0)"/>
      <use xlink:href="#DejaVuSans-47" transform="translate(319.921875 0)"/>
      <use xlink:href="#DejaVuSans-3" transform="translate(383.40625 0)"/>
      <use xlink:href="#DejaVuSans-29" transform="translate(415.1875 0)"/>
      <use xlink:href="#DejaVuSans-28" transform="translate(472.703125 0)"/>
      <use xlink:href="#DejaVuSans-33" transform="translate(535.890625 0)"/>
     </g>
    </g>
    <g id="patch_12">
     <path d="M 128.280572 204.076479
L 144.280572 204.076479
L 144.280572 198.476479
L 128.280572 198.476479
z
" style="fill: #d88c3d"/>
    </g>
    <g id="text_11">
     <!-- reverse FEP -->
     <g transform="translate(150.680572 204.076479) scale(0.08 -0.08)">
      <use xlink:href="#DejaVuSans-55"/>
      <use xlink:href="#DejaVuSans-48" transform="translate(38.90625 0)"/>
      <use xlink:href="#DejaVuSans-59" transform="translate(100.4375 0)"/>
      <use xlink:href="#DejaVuSans-48" transform="translate(159.625 0)"/>
      <use xlink:href="#DejaVuSans-55" transform="translate(221.15625 0)"/>
      <use xlink:href="#DejaVuSans-56" transform="translate(262.265625 0)"/>
      <use xlink:href="#DejaVuSans-48" transform="translate(314.359375 0)"/>
      <use xlink:href="#DejaVuSans-3" transform="translate(375.890625 0)"/>
      <use xlink:href="#DejaVuSans-29" transform="translate(407.671875 0)"/>
      <use xlink:href="#DejaVuSans-28" transform="translate(465.1875 0)"/>
      <use xlink:href="#DejaVuSans-33" transform="translate(528.375 0)"/>
     </g>
    </g>
    <g id="patch_13">
     <path d="M 128.280572 216.077104
L 144.280572 216.077104
L 144.280572 210.477104
L 128.280572 210.477104
z
" style="fill: #6a8f4e"/>
    </g>
    <g id="text_12">
     <!-- BAR -->
     <g transform="translate(150.680572 216.077104) scale(0.08 -0.08)">
      <defs>
       <path id="DejaVuSans-25" d="M 1259 2228
L 1259 519
L 2272 519
Q 2781 519 3026 730
Q 3272 941 3272 1375
Q 3272 1813 3026 2020
Q 2781 2228 2272 2228
L 1259 2228
z
M 1259 4147
L 1259 2741
L 2194 2741
Q 2656 2741 2882 2914
Q 3109 3088 3109 3444
Q 3109 3797 2882 3972
Q 2656 4147 2194 4147
L 1259 4147
z
M 628 4666
L 2241 4666
Q 2963 4666 3353 4366
Q 3744 4066 3744 3513
Q 3744 3084 3544 2831
Q 3344 2578 2956 2516
Q 3422 2416 3680 2098
Q 3938 1781 3938 1306
Q 3938 681 3513 340
Q 3088 0 2303 0
L 628 0
L 628 4666
z
" transform="scale(0.015625)"/>
       <path id="DejaVuSans-24" d="M 2188 4044
L 1331 1722
L 3047 1722
L 2188 4044
z
M 1831 4666
L 2547 4666
L 4325 0
L 3669 0
L 3244 1197
L 1141 1197
L 716 0
L 50 0
L 1831 4666
z
" transform="scale(0.015625)"/>
       <path id="DejaVuSans-35" d="M 2841 2188
Q 3044 2119 3236 1894
Q 3428 1669 3622 1275
L 4263 0
L 3584 0
L 2988 1197
Q 2756 1666 2539 1819
Q 2322 1972 1947 1972
L 1259 1972
L 1259 0
L 628 0
L 628 4666
L 2053 4666
Q 2853 4666 3247 4331
Q 3641 3997 3641 3322
Q 3641 2881 3436 2590
Q 3231 2300 2841 2188
z
M 1259 4147
L 1259 2491
L 2053 2491
Q 2509 2491 2742 2702
Q 2975 2913 2975 3322
Q 2975 3731 2742 3939
Q 2509 4147 2053 4147
L 1259 4147
z
" transform="scale(0.015625)"/>
      </defs>
      <use xlink:href="#DejaVuSans-25"/>
      <use xlink:href="#DejaVuSans-24" transform="translate(68.609375 0)"/>
      <use xlink:href="#DejaVuSans-35" transform="translate(137.015625 0)"/>
     </g>
    </g>
   </g>
  </g>
  <g id="axes_2">
   <g id="patch_14">
    <path d="M 329.656384 225.198979
L 576.504236 225.198979
L 576.504236 18.118365
L 329.656384 18.118365
z
" style="fill: #ffffff"/>
   </g>
   <g id="matplotlib.axis_3">
    <g id="xtick_3">
     <g id="line2d_16">
      <path d="M 340.876741 225.198979
L 340.876741 18.118365
" clip-path="url(#p8a5ab42e3f)" style="fill: none; stroke: #b0b0b0; stroke-opacity: 0.18; stroke-width: 0.6; stroke-linecap: square"/>
     </g>
     <g id="line2d_17">
      <g>
       <use xlink:href="#m30a26c73de" x="340.876741" y="225.198979" style="stroke: #000000; stroke-width: 0.8"/>
      </g>
     </g>
     <g id="text_13">
      <!-- good -->
      <g transform="translate(330.902991 239.07851) scale(0.08 -0.08)">
       <use xlink:href="#DejaVuSans-4a"/>
       <use xlink:href="#DejaVuSans-52" transform="translate(63.484375 0)"/>
       <use xlink:href="#DejaVuSans-52" transform="translate(124.671875 0)"/>
       <use xlink:href="#DejaVuSans-47" transform="translate(185.859375 0)"/>
      </g>
      <!-- overlap -->
      <g transform="translate(325.854241 248.680697) scale(0.08 -0.08)">
       <use xlink:href="#DejaVuSans-52"/>
       <use xlink:href="#DejaVuSans-59" transform="translate(61.1875 0)"/>
       <use xlink:href="#DejaVuSans-48" transform="translate(120.375 0)"/>
       <use xlink:href="#DejaVuSans-55" transform="translate(181.90625 0)"/>
       <use xlink:href="#DejaVuSans-4f" transform="translate(223.015625 0)"/>
       <use xlink:href="#DejaVuSans-44" transform="translate(250.796875 0)"/>
       <use xlink:href="#DejaVuSans-53" transform="translate(312.078125 0)"/>
      </g>
     </g>
    </g>
    <g id="xtick_4">
     <g id="line2d_18">
      <path d="M 565.283879 225.198979
L 565.283879 18.118365
" clip-path="url(#p8a5ab42e3f)" style="fill: none; stroke: #b0b0b0; stroke-opacity: 0.18; stroke-width: 0.6; stroke-linecap: square"/>
     </g>
     <g id="line2d_19">
      <g>
       <use xlink:href="#m30a26c73de" x="565.283879" y="225.198979" style="stroke: #000000; stroke-width: 0.8"/>
      </g>
     </g>
     <g id="text_14">
      <!-- poor -->
      <g transform="translate(556.205129 239.077885) scale(0.08 -0.08)">
       <use xlink:href="#DejaVuSans-53"/>
       <use xlink:href="#DejaVuSans-52" transform="translate(63.484375 0)"/>
       <use xlink:href="#DejaVuSans-52" transform="translate(124.671875 0)"/>
       <use xlink:href="#DejaVuSans-55" transform="translate(185.859375 0)"/>
      </g>
      <!-- overlap -->
      <g transform="translate(550.261379 248.680072) scale(0.08 -0.08)">
       <use xlink:href="#DejaVuSans-52"/>
       <use xlink:href="#DejaVuSans-59" transform="translate(61.1875 0)"/>
       <use xlink:href="#DejaVuSans-48" transform="translate(120.375 0)"/>
       <use xlink:href="#DejaVuSans-55" transform="translate(181.90625 0)"/>
       <use xlink:href="#DejaVuSans-4f" transform="translate(223.015625 0)"/>
       <use xlink:href="#DejaVuSans-44" transform="translate(250.796875 0)"/>
       <use xlink:href="#DejaVuSans-53" transform="translate(312.078125 0)"/>
      </g>
     </g>
    </g>
   </g>
   <g id="matplotlib.axis_4">
    <g id="ytick_6">
     <g id="line2d_20">
      <path d="M 329.656384 219.297656
L 576.504236 219.297656
" clip-path="url(#p8a5ab42e3f)" style="fill: none; stroke: #b0b0b0; stroke-opacity: 0.18; stroke-width: 0.6; stroke-linecap: square"/>
     </g>
     <g id="line2d_21">
      <g>
       <use xlink:href="#mf41590833d" x="329.656384" y="219.297656" style="stroke: #000000; stroke-width: 0.8"/>
      </g>
     </g>
     <g id="text_15">
      <!-- 0.0 -->
      <g transform="translate(306.753259 223.096484) scale(0.1 -0.1)">
       <use xlink:href="#DejaVuSans-13"/>
       <use xlink:href="#DejaVuSans-11" transform="translate(63.625 0)"/>
       <use xlink:href="#DejaVuSans-13" transform="translate(95.40625 0)"/>
      </g>
     </g>
    </g>
    <g id="ytick_7">
     <g id="line2d_22">
      <path d="M 329.656384 195.404111
L 576.504236 195.404111
" clip-path="url(#p8a5ab42e3f)" style="fill: none; stroke: #b0b0b0; stroke-opacity: 0.18; stroke-width: 0.6; stroke-linecap: square"/>
     </g>
     <g id="line2d_23">
      <g>
       <use xlink:href="#mf41590833d" x="329.656384" y="195.404111" style="stroke: #000000; stroke-width: 0.8"/>
      </g>
     </g>
     <g id="text_16">
      <!-- 0.1 -->
      <g transform="translate(306.753259 199.202939) scale(0.1 -0.1)">
       <defs>
        <path id="DejaVuSans-14" d="M 794 531
L 1825 531
L 1825 4091
L 703 3866
L 703 4441
L 1819 4666
L 2450 4666
L 2450 531
L 3481 531
L 3481 0
L 794 0
L 794 531
z
" transform="scale(0.015625)"/>
       </defs>
       <use xlink:href="#DejaVuSans-13"/>
       <use xlink:href="#DejaVuSans-11" transform="translate(63.625 0)"/>
       <use xlink:href="#DejaVuSans-14" transform="translate(95.40625 0)"/>
      </g>
     </g>
    </g>
    <g id="ytick_8">
     <g id="line2d_24">
      <path d="M 329.656384 171.510566
L 576.504236 171.510566
" clip-path="url(#p8a5ab42e3f)" style="fill: none; stroke: #b0b0b0; stroke-opacity: 0.18; stroke-width: 0.6; stroke-linecap: square"/>
     </g>
     <g id="line2d_25">
      <g>
       <use xlink:href="#mf41590833d" x="329.656384" y="171.510566" style="stroke: #000000; stroke-width: 0.8"/>
      </g>
     </g>
     <g id="text_17">
      <!-- 0.2 -->
      <g transform="translate(306.753259 175.309394) scale(0.1 -0.1)">
       <use xlink:href="#DejaVuSans-13"/>
       <use xlink:href="#DejaVuSans-11" transform="translate(63.625 0)"/>
       <use xlink:href="#DejaVuSans-15" transform="translate(95.40625 0)"/>
      </g>
     </g>
    </g>
    <g id="ytick_9">
     <g id="line2d_26">
      <path d="M 329.656384 147.617021
L 576.504236 147.617021
" clip-path="url(#p8a5ab42e3f)" style="fill: none; stroke: #b0b0b0; stroke-opacity: 0.18; stroke-width: 0.6; stroke-linecap: square"/>
     </g>
     <g id="line2d_27">
      <g>
       <use xlink:href="#mf41590833d" x="329.656384" y="147.617021" style="stroke: #000000; stroke-width: 0.8"/>
      </g>
     </g>
     <g id="text_18">
      <!-- 0.3 -->
      <g transform="translate(306.753259 151.415849) scale(0.1 -0.1)">
       <defs>
        <path id="DejaVuSans-16" d="M 2597 2516
Q 3050 2419 3304 2112
Q 3559 1806 3559 1356
Q 3559 666 3084 287
Q 2609 -91 1734 -91
Q 1441 -91 1130 -33
Q 819 25 488 141
L 488 750
Q 750 597 1062 519
Q 1375 441 1716 441
Q 2309 441 2620 675
Q 2931 909 2931 1356
Q 2931 1769 2642 2001
Q 2353 2234 1838 2234
L 1294 2234
L 1294 2753
L 1863 2753
Q 2328 2753 2575 2939
Q 2822 3125 2822 3475
Q 2822 3834 2567 4026
Q 2313 4219 1838 4219
Q 1578 4219 1281 4162
Q 984 4106 628 3988
L 628 4550
Q 988 4650 1302 4700
Q 1616 4750 1894 4750
Q 2613 4750 3031 4423
Q 3450 4097 3450 3541
Q 3450 3153 3228 2886
Q 3006 2619 2597 2516
z
" transform="scale(0.015625)"/>
       </defs>
       <use xlink:href="#DejaVuSans-13"/>
       <use xlink:href="#DejaVuSans-11" transform="translate(63.625 0)"/>
       <use xlink:href="#DejaVuSans-16" transform="translate(95.40625 0)"/>
      </g>
     </g>
    </g>
    <g id="ytick_10">
     <g id="line2d_28">
      <path d="M 329.656384 123.723476
L 576.504236 123.723476
" clip-path="url(#p8a5ab42e3f)" style="fill: none; stroke: #b0b0b0; stroke-opacity: 0.18; stroke-width: 0.6; stroke-linecap: square"/>
     </g>
     <g id="line2d_29">
      <g>
       <use xlink:href="#mf41590833d" x="329.656384" y="123.723476" style="stroke: #000000; stroke-width: 0.8"/>
      </g>
     </g>
     <g id="text_19">
      <!-- 0.4 -->
      <g transform="translate(306.753259 127.522304) scale(0.1 -0.1)">
       <use xlink:href="#DejaVuSans-13"/>
       <use xlink:href="#DejaVuSans-11" transform="translate(63.625 0)"/>
       <use xlink:href="#DejaVuSans-17" transform="translate(95.40625 0)"/>
      </g>
     </g>
    </g>
    <g id="ytick_11">
     <g id="line2d_30">
      <path d="M 329.656384 99.829931
L 576.504236 99.829931
" clip-path="url(#p8a5ab42e3f)" style="fill: none; stroke: #b0b0b0; stroke-opacity: 0.18; stroke-width: 0.6; stroke-linecap: square"/>
     </g>
     <g id="line2d_31">
      <g>
       <use xlink:href="#mf41590833d" x="329.656384" y="99.829931" style="stroke: #000000; stroke-width: 0.8"/>
      </g>
     </g>
     <g id="text_20">
      <!-- 0.5 -->
      <g transform="translate(306.753259 103.62876) scale(0.1 -0.1)">
       <defs>
        <path id="DejaVuSans-18" d="M 691 4666
L 3169 4666
L 3169 4134
L 1269 4134
L 1269 2991
Q 1406 3038 1543 3061
Q 1681 3084 1819 3084
Q 2600 3084 3056 2656
Q 3513 2228 3513 1497
Q 3513 744 3044 326
Q 2575 -91 1722 -91
Q 1428 -91 1123 -41
Q 819 9 494 109
L 494 744
Q 775 591 1075 516
Q 1375 441 1709 441
Q 2250 441 2565 725
Q 2881 1009 2881 1497
Q 2881 1984 2565 2268
Q 2250 2553 1709 2553
Q 1456 2553 1204 2497
Q 953 2441 691 2322
L 691 4666
z
" transform="scale(0.015625)"/>
       </defs>
       <use xlink:href="#DejaVuSans-13"/>
       <use xlink:href="#DejaVuSans-11" transform="translate(63.625 0)"/>
       <use xlink:href="#DejaVuSans-18" transform="translate(95.40625 0)"/>
      </g>
     </g>
    </g>
    <g id="ytick_12">
     <g id="line2d_32">
      <path d="M 329.656384 75.936387
L 576.504236 75.936387
" clip-path="url(#p8a5ab42e3f)" style="fill: none; stroke: #b0b0b0; stroke-opacity: 0.18; stroke-width: 0.6; stroke-linecap: square"/>
     </g>
     <g id="line2d_33">
      <g>
       <use xlink:href="#mf41590833d" x="329.656384" y="75.936387" style="stroke: #000000; stroke-width: 0.8"/>
      </g>
     </g>
     <g id="text_21">
      <!-- 0.6 -->
      <g transform="translate(306.753259 79.735215) scale(0.1 -0.1)">
       <use xlink:href="#DejaVuSans-13"/>
       <use xlink:href="#DejaVuSans-11" transform="translate(63.625 0)"/>
       <use xlink:href="#DejaVuSans-19" transform="translate(95.40625 0)"/>
      </g>
     </g>
    </g>
    <g id="ytick_13">
     <g id="line2d_34">
      <path d="M 329.656384 52.042842
L 576.504236 52.042842
" clip-path="url(#p8a5ab42e3f)" style="fill: none; stroke: #b0b0b0; stroke-opacity: 0.18; stroke-width: 0.6; stroke-linecap: square"/>
     </g>
     <g id="line2d_35">
      <g>
       <use xlink:href="#mf41590833d" x="329.656384" y="52.042842" style="stroke: #000000; stroke-width: 0.8"/>
      </g>
     </g>
     <g id="text_22">
      <!-- 0.7 -->
      <g transform="translate(306.753259 55.84167) scale(0.1 -0.1)">
       <defs>
        <path id="DejaVuSans-1a" d="M 525 4666
L 3525 4666
L 3525 4397
L 1831 0
L 1172 0
L 2766 4134
L 525 4134
L 525 4666
z
" transform="scale(0.015625)"/>
       </defs>
       <use xlink:href="#DejaVuSans-13"/>
       <use xlink:href="#DejaVuSans-11" transform="translate(63.625 0)"/>
       <use xlink:href="#DejaVuSans-1a" transform="translate(95.40625 0)"/>
      </g>
     </g>
    </g>
    <g id="ytick_14">
     <g id="line2d_36">
      <path d="M 329.656384 28.149297
L 576.504236 28.149297
" clip-path="url(#p8a5ab42e3f)" style="fill: none; stroke: #b0b0b0; stroke-opacity: 0.18; stroke-width: 0.6; stroke-linecap: square"/>
     </g>
     <g id="line2d_37">
      <g>
       <use xlink:href="#mf41590833d" x="329.656384" y="28.149297" style="stroke: #000000; stroke-width: 0.8"/>
      </g>
     </g>
     <g id="text_23">
      <!-- 0.8 -->
      <g transform="translate(306.753259 31.948125) scale(0.1 -0.1)">
       <use xlink:href="#DejaVuSans-13"/>
       <use xlink:href="#DejaVuSans-11" transform="translate(63.625 0)"/>
       <use xlink:href="#DejaVuSans-1b" transform="translate(95.40625 0)"/>
      </g>
     </g>
    </g>
    <g id="text_24">
     <!-- fraction -->
     <g transform="translate(300.350915 140.864922) rotate(-90) scale(0.1 -0.1)">
      <defs>
       <path id="DejaVuSans-46" d="M 3122 3366
L 3122 2828
Q 2878 2963 2633 3030
Q 2388 3097 2138 3097
Q 1578 3097 1268 2742
Q 959 2388 959 1747
Q 959 1106 1268 751
Q 1578 397 2138 397
Q 2388 397 2633 464
Q 2878 531 3122 666
L 3122 134
Q 2881 22 2623 -34
Q 2366 -91 2075 -91
Q 1284 -91 818 406
Q 353 903 353 1747
Q 353 2603 823 3093
Q 1294 3584 2113 3584
Q 2378 3584 2631 3529
Q 2884 3475 3122 3366
z
" transform="scale(0.015625)"/>
      </defs>
      <use xlink:href="#DejaVuSans-49"/>
      <use xlink:href="#DejaVuSans-55" transform="translate(35.203125 0)"/>
      <use xlink:href="#DejaVuSans-44" transform="translate(76.3125 0)"/>
      <use xlink:href="#DejaVuSans-46" transform="translate(137.59375 0)"/>
      <use xlink:href="#DejaVuSans-57" transform="translate(192.578125 0)"/>
      <use xlink:href="#DejaVuSans-4c" transform="translate(231.78125 0)"/>
      <use xlink:href="#DejaVuSans-52" transform="translate(259.5625 0)"/>
      <use xlink:href="#DejaVuSans-51" transform="translate(320.75 0)"/>
     </g>
    </g>
   </g>
   <g id="line2d_38">
    <path d="M 340.876741 27.53112
L 565.283879 168.810801
" clip-path="url(#p8a5ab42e3f)" style="fill: none; stroke: #8c6bb1; stroke-width: 1.5; stroke-linecap: square"/>
    <defs>
     <path id="m5c400d75b1" d="M 0 3
C 0.795609 3 1.55874 2.683901 2.12132 2.12132
C 2.683901 1.55874 3 0.795609 3 0
C 3 -0.795609 2.683901 -1.55874 2.12132 -2.12132
C 1.55874 -2.683901 0.795609 -3 0 -3
C -0.795609 -3 -1.55874 -2.683901 -2.12132 -2.12132
C -2.683901 -1.55874 -3 -0.795609 -3 0
C -3 0.795609 -2.683901 1.55874 -2.12132 2.12132
C -1.55874 2.683901 -0.795609 3 0 3
z
" style="stroke: #8c6bb1"/>
    </defs>
    <g clip-path="url(#p8a5ab42e3f)">
     <use xlink:href="#m5c400d75b1" x="340.876741" y="27.53112" style="fill: #8c6bb1; stroke: #8c6bb1"/>
     <use xlink:href="#m5c400d75b1" x="565.283879" y="168.810801" style="fill: #8c6bb1; stroke: #8c6bb1"/>
    </g>
   </g>
   <g id="line2d_39">
    <path d="M 340.876741 33.055998
L 565.283879 215.786224
" clip-path="url(#p8a5ab42e3f)" style="fill: none; stroke: #d88c3d; stroke-width: 1.5; stroke-linecap: square"/>
    <defs>
     <path id="m0473ae7e19" d="M -3 3
L 3 3
L 3 -3
L -3 -3
z
" style="stroke: #d88c3d; stroke-linejoin: miter"/>
    </defs>
    <g clip-path="url(#p8a5ab42e3f)">
     <use xlink:href="#m0473ae7e19" x="340.876741" y="33.055998" style="fill: #d88c3d; stroke: #d88c3d; stroke-linejoin: miter"/>
     <use xlink:href="#m0473ae7e19" x="565.283879" y="215.786224" style="fill: #d88c3d; stroke: #d88c3d; stroke-linejoin: miter"/>
    </g>
   </g>
   <g id="patch_15">
    <path d="M 329.656384 225.198979
L 329.656384 18.118365
" style="fill: none; stroke: #000000; stroke-width: 0.8; stroke-linejoin: miter; stroke-linecap: square"/>
   </g>
   <g id="patch_16">
    <path d="M 329.656384 225.198979
L 576.504236 225.198979
" style="fill: none; stroke: #000000; stroke-width: 0.8; stroke-linejoin: miter; stroke-linecap: square"/>
   </g>
   <g id="text_25">
    <!-- ESS collapses before samples do -->
    <g transform="translate(354.57906 12.118365) scale(0.12 -0.12)">
     <defs>
      <path id="DejaVuSans-36" d="M 3425 4513
L 3425 3897
Q 3066 4069 2747 4153
Q 2428 4238 2131 4238
Q 1616 4238 1336 4038
Q 1056 3838 1056 3469
Q 1056 3159 1242 3001
Q 1428 2844 1947 2747
L 2328 2669
Q 3034 2534 3370 2195
Q 3706 1856 3706 1288
Q 3706 609 3251 259
Q 2797 -91 1919 -91
Q 1588 -91 1214 -16
Q 841 59 441 206
L 441 856
Q 825 641 1194 531
Q 1563 422 1919 422
Q 2459 422 2753 634
Q 3047 847 3047 1241
Q 3047 1584 2836 1778
Q 2625 1972 2144 2069
L 1759 2144
Q 1053 2284 737 2584
Q 422 2884 422 3419
Q 422 4038 858 4394
Q 1294 4750 2059 4750
Q 2388 4750 2728 4690
Q 3069 4631 3425 4513
z
" transform="scale(0.015625)"/>
      <path id="DejaVuSans-45" d="M 3116 1747
Q 3116 2381 2855 2742
Q 2594 3103 2138 3103
Q 1681 3103 1420 2742
Q 1159 2381 1159 1747
Q 1159 1113 1420 752
Q 1681 391 2138 391
Q 2594 391 2855 752
Q 3116 1113 3116 1747
z
M 1159 2969
Q 1341 3281 1617 3432
Q 1894 3584 2278 3584
Q 2916 3584 3314 3078
Q 3713 2572 3713 1747
Q 3713 922 3314 415
Q 2916 -91 2278 -91
Q 1894 -91 1617 61
Q 1341 213 1159 525
L 1159 0
L 581 0
L 581 4863
L 1159 4863
L 1159 2969
z
" transform="scale(0.015625)"/>
     </defs>
     <use xlink:href="#DejaVuSans-28"/>
     <use xlink:href="#DejaVuSans-36" transform="translate(63.1875 0)"/>
     <use xlink:href="#DejaVuSans-36" transform="translate(126.671875 0)"/>
     <use xlink:href="#DejaVuSans-3" transform="translate(190.15625 0)"/>
     <use xlink:href="#DejaVuSans-46" transform="translate(221.9375 0)"/>
     <use xlink:href="#DejaVuSans-52" transform="translate(276.921875 0)"/>
     <use xlink:href="#DejaVuSans-4f" transform="translate(338.109375 0)"/>
     <use xlink:href="#DejaVuSans-4f" transform="translate(365.890625 0)"/>
     <use xlink:href="#DejaVuSans-44" transform="translate(393.671875 0)"/>
     <use xlink:href="#DejaVuSans-53" transform="translate(454.953125 0)"/>
     <use xlink:href="#DejaVuSans-56" transform="translate(518.4375 0)"/>
     <use xlink:href="#DejaVuSans-48" transform="translate(570.53125 0)"/>
     <use xlink:href="#DejaVuSans-56" transform="translate(632.0625 0)"/>
     <use xlink:href="#DejaVuSans-3" transform="translate(684.15625 0)"/>
     <use xlink:href="#DejaVuSans-45" transform="translate(715.9375 0)"/>
     <use xlink:href="#DejaVuSans-48" transform="translate(779.421875 0)"/>
     <use xlink:href="#DejaVuSans-49" transform="translate(840.953125 0)"/>
     <use xlink:href="#DejaVuSans-52" transform="translate(876.15625 0)"/>
     <use xlink:href="#DejaVuSans-55" transform="translate(937.34375 0)"/>
     <use xlink:href="#DejaVuSans-48" transform="translate(976.25 0)"/>
     <use xlink:href="#DejaVuSans-3" transform="translate(1037.78125 0)"/>
     <use xlink:href="#DejaVuSans-56" transform="translate(1069.5625 0)"/>
     <use xlink:href="#DejaVuSans-44" transform="translate(1121.65625 0)"/>
     <use xlink:href="#DejaVuSans-50" transform="translate(1182.9375 0)"/>
     <use xlink:href="#DejaVuSans-53" transform="translate(1280.34375 0)"/>
     <use xlink:href="#DejaVuSans-4f" transform="translate(1343.828125 0)"/>
     <use xlink:href="#DejaVuSans-48" transform="translate(1371.609375 0)"/>
     <use xlink:href="#DejaVuSans-56" transform="translate(1433.140625 0)"/>
     <use xlink:href="#DejaVuSans-3" transform="translate(1485.234375 0)"/>
     <use xlink:href="#DejaVuSans-47" transform="translate(1517.015625 0)"/>
     <use xlink:href="#DejaVuSans-52" transform="translate(1580.5 0)"/>
    </g>
   </g>
   <g id="legend_2">
    <g id="line2d_40">
     <path d="M 465.204236 28.597115
L 473.204236 28.597115
L 481.204236 28.597115
" style="fill: none; stroke: #8c6bb1; stroke-width: 1.5; stroke-linecap: square"/>
     <g>
      <use xlink:href="#m5c400d75b1" x="473.204236" y="28.597115" style="fill: #8c6bb1; stroke: #8c6bb1"/>
     </g>
    </g>
    <g id="text_26">
     <!-- overlap -->
     <g transform="translate(487.604236 31.397115) scale(0.08 -0.08)">
      <use xlink:href="#DejaVuSans-52"/>
      <use xlink:href="#DejaVuSans-59" transform="translate(61.1875 0)"/>
      <use xlink:href="#DejaVuSans-48" transform="translate(120.375 0)"/>
      <use xlink:href="#DejaVuSans-55" transform="translate(181.90625 0)"/>
      <use xlink:href="#DejaVuSans-4f" transform="translate(223.015625 0)"/>
      <use xlink:href="#DejaVuSans-44" transform="translate(250.796875 0)"/>
      <use xlink:href="#DejaVuSans-53" transform="translate(312.078125 0)"/>
     </g>
    </g>
    <g id="line2d_41">
     <path d="M 465.204236 40.59774
L 473.204236 40.59774
L 481.204236 40.59774
" style="fill: none; stroke: #d88c3d; stroke-width: 1.5; stroke-linecap: square"/>
     <g>
      <use xlink:href="#m0473ae7e19" x="473.204236" y="40.59774" style="fill: #d88c3d; stroke: #d88c3d; stroke-linejoin: miter"/>
     </g>
    </g>
    <g id="text_27">
     <!-- forward ESS fraction -->
     <g transform="translate(487.604236 43.39774) scale(0.08 -0.08)">
      <use xlink:href="#DejaVuSans-49"/>
      <use xlink:href="#DejaVuSans-52" transform="translate(35.203125 0)"/>
      <use xlink:href="#DejaVuSans-55" transform="translate(96.390625 0)"/>
      <use xlink:href="#DejaVuSans-5a" transform="translate(137.5 0)"/>
      <use xlink:href="#DejaVuSans-44" transform="translate(219.28125 0)"/>
      <use xlink:href="#DejaVuSans-55" transform="translate(280.5625 0)"/>
      <use xlink:href="#DejaVuSans-47" transform="translate(319.921875 0)"/>
      <use xlink:href="#DejaVuSans-3" transform="translate(383.40625 0)"/>
      <use xlink:href="#DejaVuSans-28" transform="translate(415.1875 0)"/>
      <use xlink:href="#DejaVuSans-36" transform="translate(478.375 0)"/>
      <use xlink:href="#DejaVuSans-36" transform="translate(541.859375 0)"/>
      <use xlink:href="#DejaVuSans-3" transform="translate(605.34375 0)"/>
      <use xlink:href="#DejaVuSans-49" transform="translate(637.125 0)"/>
      <use xlink:href="#DejaVuSans-55" transform="translate(672.328125 0)"/>
      <use xlink:href="#DejaVuSans-44" transform="translate(713.4375 0)"/>
      <use xlink:href="#DejaVuSans-46" transform="translate(774.71875 0)"/>
      <use xlink:href="#DejaVuSans-57" transform="translate(829.703125 0)"/>
      <use xlink:href="#DejaVuSans-4c" transform="translate(868.90625 0)"/>
      <use xlink:href="#DejaVuSans-52" transform="translate(896.6875 0)"/>
      <use xlink:href="#DejaVuSans-51" transform="translate(957.875 0)"/>
     </g>
    </g>
   </g>
  </g>
  <g id="axes_3">
   <g id="patch_17">
    <path d="M 623.161949 225.198979
L 870.009801 225.198979
L 870.009801 18.118365
L 623.161949 18.118365
z
" style="fill: #ffffff"/>
   </g>
   <g id="patch_18">
    <path d="M 634.382306 225.198979
L 640.136335 225.198979
L 640.136335 225.198979
L 634.382306 225.198979
z
" clip-path="url(#p497906c845)" style="fill: #2f6f9f; opacity: 0.55"/>
   </g>
   <g id="patch_19">
    <path d="M 640.136335 225.198979
L 645.890364 225.198979
L 645.890364 225.198979
L 640.136335 225.198979
z
" clip-path="url(#p497906c845)" style="fill: #2f6f9f; opacity: 0.55"/>
   </g>
   <g id="patch_20">
    <path d="M 645.890364 225.198979
L 651.644394 225.198979
L 651.644394 225.198979
L 645.890364 225.198979
z
" clip-path="url(#p497906c845)" style="fill: #2f6f9f; opacity: 0.55"/>
   </g>
   <g id="patch_21">
    <path d="M 651.644394 225.198979
L 657.398423 225.198979
L 657.398423 225.198979
L 651.644394 225.198979
z
" clip-path="url(#p497906c845)" style="fill: #2f6f9f; opacity: 0.55"/>
   </g>
   <g id="patch_22">
    <path d="M 657.398423 225.198979
L 663.152452 225.198979
L 663.152452 225.198979
L 657.398423 225.198979
z
" clip-path="url(#p497906c845)" style="fill: #2f6f9f; opacity: 0.55"/>
   </g>
   <g id="patch_23">
    <path d="M 663.152452 225.198979
L 668.906481 225.198979
L 668.906481 225.198979
L 663.152452 225.198979
z
" clip-path="url(#p497906c845)" style="fill: #2f6f9f; opacity: 0.55"/>
   </g>
   <g id="patch_24">
    <path d="M 668.906481 225.198979
L 674.66051 225.198979
L 674.66051 225.198979
L 668.906481 225.198979
z
" clip-path="url(#p497906c845)" style="fill: #2f6f9f; opacity: 0.55"/>
   </g>
   <g id="patch_25">
    <path d="M 674.66051 225.198979
L 680.414539 225.198979
L 680.414539 225.198979
L 674.66051 225.198979
z
" clip-path="url(#p497906c845)" style="fill: #2f6f9f; opacity: 0.55"/>
   </g>
   <g id="patch_26">
    <path d="M 680.414539 225.198979
L 686.168569 225.198979
L 686.168569 223.716124
L 680.414539 223.716124
z
" clip-path="url(#p497906c845)" style="fill: #2f6f9f; opacity: 0.55"/>
   </g>
   <g id="patch_27">
    <path d="M 686.168569 225.198979
L 691.922598 225.198979
L 691.922598 219.267561
L 686.168569 219.267561
z
" clip-path="url(#p497906c845)" style="fill: #2f6f9f; opacity: 0.55"/>
   </g>
   <g id="patch_28">
    <path d="M 691.922598 225.198979
L 697.676627 225.198979
L 697.676627 198.5076
L 691.922598 198.5076
z
" clip-path="url(#p497906c845)" style="fill: #2f6f9f; opacity: 0.55"/>
   </g>
   <g id="patch_29">
    <path d="M 697.676627 225.198979
L 703.430656 225.198979
L 703.430656 98.41493
L 697.676627 98.41493
z
" clip-path="url(#p497906c845)" style="fill: #2f6f9f; opacity: 0.55"/>
   </g>
   <g id="patch_30">
    <path d="M 703.430656 225.198979
L 709.184685 225.198979
L 709.184685 27.979347
L 703.430656 27.979347
z
" clip-path="url(#p497906c845)" style="fill: #2f6f9f; opacity: 0.55"/>
   </g>
   <g id="patch_31">
    <path d="M 709.184685 225.198979
L 714.938715 225.198979
L 714.938715 76.913541
L 709.184685 76.913541
z
" clip-path="url(#p497906c845)" style="fill: #2f6f9f; opacity: 0.55"/>
   </g>
   <g id="patch_32">
    <path d="M 714.938715 225.198979
L 720.692744 225.198979
L 720.692744 163.660522
L 714.938715 163.660522
z
" clip-path="url(#p497906c845)" style="fill: #2f6f9f; opacity: 0.55"/>
   </g>
   <g id="patch_33">
    <path d="M 720.692744 225.198979
L 726.446773 225.198979
L 726.446773 202.214736
L 720.692744 202.214736
z
" clip-path="url(#p497906c845)" style="fill: #2f6f9f; opacity: 0.55"/>
   </g>
   <g id="patch_34">
    <path d="M 726.446773 225.198979
L 732.200802 225.198979
L 732.200802 222.974697
L 726.446773 222.974697
z
" clip-path="url(#p497906c845)" style="fill: #2f6f9f; opacity: 0.55"/>
   </g>
   <g id="patch_35">
    <path d="M 732.200802 225.198979
L 737.954831 225.198979
L 737.954831 225.198979
L 732.200802 225.198979
z
" clip-path="url(#p497906c845)" style="fill: #2f6f9f; opacity: 0.55"/>
   </g>
   <g id="patch_36">
    <path d="M 737.954831 225.198979
L 743.70886 225.198979
L 743.70886 225.198979
L 737.954831 225.198979
z
" clip-path="url(#p497906c845)" style="fill: #2f6f9f; opacity: 0.55"/>
   </g>
   <g id="patch_37">
    <path d="M 743.70886 225.198979
L 749.46289 225.198979
L 749.46289 225.198979
L 743.70886 225.198979
z
" clip-path="url(#p497906c845)" style="fill: #2f6f9f; opacity: 0.55"/>
   </g>
   <g id="patch_38">
    <path d="M 749.46289 225.198979
L 755.216919 225.198979
L 755.216919 225.198979
L 749.46289 225.198979
z
" clip-path="url(#p497906c845)" style="fill: #2f6f9f; opacity: 0.55"/>
   </g>
   <g id="patch_39">
    <path d="M 755.216919 225.198979
L 760.970948 225.198979
L 760.970948 225.198979
L 755.216919 225.198979
z
" clip-path="url(#p497906c845)" style="fill: #2f6f9f; opacity: 0.55"/>
   </g>
   <g id="patch_40">
    <path d="M 760.970948 225.198979
L 766.724977 225.198979
L 766.724977 225.198979
L 760.970948 225.198979
z
" clip-path="url(#p497906c845)" style="fill: #2f6f9f; opacity: 0.55"/>
   </g>
   <g id="patch_41">
    <path d="M 766.724977 225.198979
L 772.479006 225.198979
L 772.479006 225.198979
L 766.724977 225.198979
z
" clip-path="url(#p497906c845)" style="fill: #2f6f9f; opacity: 0.55"/>
   </g>
   <g id="patch_42">
    <path d="M 772.479006 225.198979
L 778.233035 225.198979
L 778.233035 225.198979
L 772.479006 225.198979
z
" clip-path="url(#p497906c845)" style="fill: #2f6f9f; opacity: 0.55"/>
   </g>
   <g id="patch_43">
    <path d="M 778.233035 225.198979
L 783.987065 225.198979
L 783.987065 225.198979
L 778.233035 225.198979
z
" clip-path="url(#p497906c845)" style="fill: #2f6f9f; opacity: 0.55"/>
   </g>
   <g id="patch_44">
    <path d="M 783.987065 225.198979
L 789.741094 225.198979
L 789.741094 225.198979
L 783.987065 225.198979
z
" clip-path="url(#p497906c845)" style="fill: #2f6f9f; opacity: 0.55"/>
   </g>
   <g id="patch_45">
    <path d="M 789.741094 225.198979
L 795.495123 225.198979
L 795.495123 225.198979
L 789.741094 225.198979
z
" clip-path="url(#p497906c845)" style="fill: #2f6f9f; opacity: 0.55"/>
   </g>
   <g id="patch_46">
    <path d="M 795.495123 225.198979
L 801.249152 225.198979
L 801.249152 225.198979
L 795.495123 225.198979
z
" clip-path="url(#p497906c845)" style="fill: #2f6f9f; opacity: 0.55"/>
   </g>
   <g id="patch_47">
    <path d="M 801.249152 225.198979
L 807.003181 225.198979
L 807.003181 225.198979
L 801.249152 225.198979
z
" clip-path="url(#p497906c845)" style="fill: #2f6f9f; opacity: 0.55"/>
   </g>
   <g id="patch_48">
    <path d="M 807.003181 225.198979
L 812.757211 225.198979
L 812.757211 225.198979
L 807.003181 225.198979
z
" clip-path="url(#p497906c845)" style="fill: #2f6f9f; opacity: 0.55"/>
   </g>
   <g id="patch_49">
    <path d="M 812.757211 225.198979
L 818.51124 225.198979
L 818.51124 225.198979
L 812.757211 225.198979
z
" clip-path="url(#p497906c845)" style="fill: #2f6f9f; opacity: 0.55"/>
   </g>
   <g id="patch_50">
    <path d="M 818.51124 225.198979
L 824.265269 225.198979
L 824.265269 225.198979
L 818.51124 225.198979
z
" clip-path="url(#p497906c845)" style="fill: #2f6f9f; opacity: 0.55"/>
   </g>
   <g id="patch_51">
    <path d="M 824.265269 225.198979
L 830.019298 225.198979
L 830.019298 225.198979
L 824.265269 225.198979
z
" clip-path="url(#p497906c845)" style="fill: #2f6f9f; opacity: 0.55"/>
   </g>
   <g id="patch_52">
    <path d="M 830.019298 225.198979
L 835.773327 225.198979
L 835.773327 225.198979
L 830.019298 225.198979
z
" clip-path="url(#p497906c845)" style="fill: #2f6f9f; opacity: 0.55"/>
   </g>
   <g id="patch_53">
    <path d="M 835.773327 225.198979
L 841.527356 225.198979
L 841.527356 225.198979
L 835.773327 225.198979
z
" clip-path="url(#p497906c845)" style="fill: #2f6f9f; opacity: 0.55"/>
   </g>
   <g id="patch_54">
    <path d="M 841.527356 225.198979
L 847.281386 225.198979
L 847.281386 225.198979
L 841.527356 225.198979
z
" clip-path="url(#p497906c845)" style="fill: #2f6f9f; opacity: 0.55"/>
   </g>
   <g id="patch_55">
    <path d="M 847.281386 225.198979
L 853.035415 225.198979
L 853.035415 225.198979
L 847.281386 225.198979
z
" clip-path="url(#p497906c845)" style="fill: #2f6f9f; opacity: 0.55"/>
   </g>
   <g id="patch_56">
    <path d="M 853.035415 225.198979
L 858.789444 225.198979
L 858.789444 225.198979
L 853.035415 225.198979
z
" clip-path="url(#p497906c845)" style="fill: #2f6f9f; opacity: 0.55"/>
   </g>
   <g id="patch_57">
    <path d="M 634.382306 225.198979
L 640.136335 225.198979
L 640.136335 224.457552
L 634.382306 224.457552
z
" clip-path="url(#p497906c845)" style="fill: #d88c3d; opacity: 0.55"/>
   </g>
   <g id="patch_58">
    <path d="M 640.136335 225.198979
L 645.890364 225.198979
L 645.890364 225.198979
L 640.136335 225.198979
z
" clip-path="url(#p497906c845)" style="fill: #d88c3d; opacity: 0.55"/>
   </g>
   <g id="patch_59">
    <path d="M 645.890364 225.198979
L 651.644394 225.198979
L 651.644394 224.457552
L 645.890364 224.457552
z
" clip-path="url(#p497906c845)" style="fill: #d88c3d; opacity: 0.55"/>
   </g>
   <g id="patch_60">
    <path d="M 651.644394 225.198979
L 657.398423 225.198979
L 657.398423 223.716124
L 651.644394 223.716124
z
" clip-path="url(#p497906c845)" style="fill: #d88c3d; opacity: 0.55"/>
   </g>
   <g id="patch_61">
    <path d="M 657.398423 225.198979
L 663.152452 225.198979
L 663.152452 223.716124
L 657.398423 223.716124
z
" clip-path="url(#p497906c845)" style="fill: #d88c3d; opacity: 0.55"/>
   </g>
   <g id="patch_62">
    <path d="M 663.152452 225.198979
L 668.906481 225.198979
L 668.906481 220.750416
L 663.152452 220.750416
z
" clip-path="url(#p497906c845)" style="fill: #d88c3d; opacity: 0.55"/>
   </g>
   <g id="patch_63">
    <path d="M 668.906481 225.198979
L 674.66051 225.198979
L 674.66051 222.974697
L 668.906481 222.974697
z
" clip-path="url(#p497906c845)" style="fill: #d88c3d; opacity: 0.55"/>
   </g>
   <g id="patch_64">
    <path d="M 674.66051 225.198979
L 680.414539 225.198979
L 680.414539 220.008988
L 674.66051 220.008988
z
" clip-path="url(#p497906c845)" style="fill: #d88c3d; opacity: 0.55"/>
   </g>
   <g id="patch_65">
    <path d="M 680.414539 225.198979
L 686.168569 225.198979
L 686.168569 215.560425
L 680.414539 215.560425
z
" clip-path="url(#p497906c845)" style="fill: #d88c3d; opacity: 0.55"/>
   </g>
   <g id="patch_66">
    <path d="M 686.168569 225.198979
L 691.922598 225.198979
L 691.922598 218.526134
L 686.168569 218.526134
z
" clip-path="url(#p497906c845)" style="fill: #d88c3d; opacity: 0.55"/>
   </g>
   <g id="patch_67">
    <path d="M 691.922598 225.198979
L 697.676627 225.198979
L 697.676627 212.594717
L 691.922598 212.594717
z
" clip-path="url(#p497906c845)" style="fill: #d88c3d; opacity: 0.55"/>
   </g>
   <g id="patch_68">
    <path d="M 697.676627 225.198979
L 703.430656 225.198979
L 703.430656 208.146153
L 697.676627 208.146153
z
" clip-path="url(#p497906c845)" style="fill: #d88c3d; opacity: 0.55"/>
   </g>
   <g id="patch_69">
    <path d="M 703.430656 225.198979
L 709.184685 225.198979
L 709.184685 207.404726
L 703.430656 207.404726
z
" clip-path="url(#p497906c845)" style="fill: #d88c3d; opacity: 0.55"/>
   </g>
   <g id="patch_70">
    <path d="M 709.184685 225.198979
L 714.938715 225.198979
L 714.938715 197.766173
L 709.184685 197.766173
z
" clip-path="url(#p497906c845)" style="fill: #d88c3d; opacity: 0.55"/>
   </g>
   <g id="patch_71">
    <path d="M 714.938715 225.198979
L 720.692744 225.198979
L 720.692744 201.473309
L 714.938715 201.473309
z
" clip-path="url(#p497906c845)" style="fill: #d88c3d; opacity: 0.55"/>
   </g>
   <g id="patch_72">
    <path d="M 720.692744 225.198979
L 726.446773 225.198979
L 726.446773 186.644765
L 720.692744 186.644765
z
" clip-path="url(#p497906c845)" style="fill: #d88c3d; opacity: 0.55"/>
   </g>
   <g id="patch_73">
    <path d="M 726.446773 225.198979
L 732.200802 225.198979
L 732.200802 193.31761
L 726.446773 193.31761
z
" clip-path="url(#p497906c845)" style="fill: #d88c3d; opacity: 0.55"/>
   </g>
   <g id="patch_74">
    <path d="M 732.200802 225.198979
L 737.954831 225.198979
L 737.954831 189.610474
L 732.200802 189.610474
z
" clip-path="url(#p497906c845)" style="fill: #d88c3d; opacity: 0.55"/>
   </g>
   <g id="patch_75">
    <path d="M 737.954831 225.198979
L 743.70886 225.198979
L 743.70886 186.644765
L 737.954831 186.644765
z
" clip-path="url(#p497906c845)" style="fill: #d88c3d; opacity: 0.55"/>
   </g>
   <g id="patch_76">
    <path d="M 743.70886 225.198979
L 749.46289 225.198979
L 749.46289 191.093328
L 743.70886 191.093328
z
" clip-path="url(#p497906c845)" style="fill: #d88c3d; opacity: 0.55"/>
   </g>
   <g id="patch_77">
    <path d="M 749.46289 225.198979
L 755.216919 225.198979
L 755.216919 191.834755
L 749.46289 191.834755
z
" clip-path="url(#p497906c845)" style="fill: #d88c3d; opacity: 0.55"/>
   </g>
   <g id="patch_78">
    <path d="M 755.216919 225.198979
L 760.970948 225.198979
L 760.970948 177.006211
L 755.216919 177.006211
z
" clip-path="url(#p497906c845)" style="fill: #d88c3d; opacity: 0.55"/>
   </g>
   <g id="patch_79">
    <path d="M 760.970948 225.198979
L 766.724977 225.198979
L 766.724977 189.610474
L 760.970948 189.610474
z
" clip-path="url(#p497906c845)" style="fill: #d88c3d; opacity: 0.55"/>
   </g>
   <g id="patch_80">
    <path d="M 766.724977 225.198979
L 772.479006 225.198979
L 772.479006 194.800464
L 766.724977 194.800464
z
" clip-path="url(#p497906c845)" style="fill: #d88c3d; opacity: 0.55"/>
   </g>
   <g id="patch_81">
    <path d="M 772.479006 225.198979
L 778.233035 225.198979
L 778.233035 197.766173
L 772.479006 197.766173
z
" clip-path="url(#p497906c845)" style="fill: #d88c3d; opacity: 0.55"/>
   </g>
   <g id="patch_82">
    <path d="M 778.233035 225.198979
L 783.987065 225.198979
L 783.987065 199.990454
L 778.233035 199.990454
z
" clip-path="url(#p497906c845)" style="fill: #d88c3d; opacity: 0.55"/>
   </g>
   <g id="patch_83">
    <path d="M 783.987065 225.198979
L 789.741094 225.198979
L 789.741094 202.214736
L 783.987065 202.214736
z
" clip-path="url(#p497906c845)" style="fill: #d88c3d; opacity: 0.55"/>
   </g>
   <g id="patch_84">
    <path d="M 789.741094 225.198979
L 795.495123 225.198979
L 795.495123 207.404726
L 789.741094 207.404726
z
" clip-path="url(#p497906c845)" style="fill: #d88c3d; opacity: 0.55"/>
   </g>
   <g id="patch_85">
    <path d="M 795.495123 225.198979
L 801.249152 225.198979
L 801.249152 214.077571
L 795.495123 214.077571
z
" clip-path="url(#p497906c845)" style="fill: #d88c3d; opacity: 0.55"/>
   </g>
   <g id="patch_86">
    <path d="M 801.249152 225.198979
L 807.003181 225.198979
L 807.003181 217.04328
L 801.249152 217.04328
z
" clip-path="url(#p497906c845)" style="fill: #d88c3d; opacity: 0.55"/>
   </g>
   <g id="patch_87">
    <path d="M 807.003181 225.198979
L 812.757211 225.198979
L 812.757211 220.008988
L 807.003181 220.008988
z
" clip-path="url(#p497906c845)" style="fill: #d88c3d; opacity: 0.55"/>
   </g>
   <g id="patch_88">
    <path d="M 812.757211 225.198979
L 818.51124 225.198979
L 818.51124 220.008988
L 812.757211 220.008988
z
" clip-path="url(#p497906c845)" style="fill: #d88c3d; opacity: 0.55"/>
   </g>
   <g id="patch_89">
    <path d="M 818.51124 225.198979
L 824.265269 225.198979
L 824.265269 220.750416
L 818.51124 220.750416
z
" clip-path="url(#p497906c845)" style="fill: #d88c3d; opacity: 0.55"/>
   </g>
   <g id="patch_90">
    <path d="M 824.265269 225.198979
L 830.019298 225.198979
L 830.019298 221.491843
L 824.265269 221.491843
z
" clip-path="url(#p497906c845)" style="fill: #d88c3d; opacity: 0.55"/>
   </g>
   <g id="patch_91">
    <path d="M 830.019298 225.198979
L 835.773327 225.198979
L 835.773327 222.974697
L 830.019298 222.974697
z
" clip-path="url(#p497906c845)" style="fill: #d88c3d; opacity: 0.55"/>
   </g>
   <g id="patch_92">
    <path d="M 835.773327 225.198979
L 841.527356 225.198979
L 841.527356 225.198979
L 835.773327 225.198979
z
" clip-path="url(#p497906c845)" style="fill: #d88c3d; opacity: 0.55"/>
   </g>
   <g id="patch_93">
    <path d="M 841.527356 225.198979
L 847.281386 225.198979
L 847.281386 224.457552
L 841.527356 224.457552
z
" clip-path="url(#p497906c845)" style="fill: #d88c3d; opacity: 0.55"/>
   </g>
   <g id="patch_94">
    <path d="M 847.281386 225.198979
L 853.035415 225.198979
L 853.035415 225.198979
L 847.281386 225.198979
z
" clip-path="url(#p497906c845)" style="fill: #d88c3d; opacity: 0.55"/>
   </g>
   <g id="patch_95">
    <path d="M 853.035415 225.198979
L 858.789444 225.198979
L 858.789444 223.716124
L 853.035415 223.716124
z
" clip-path="url(#p497906c845)" style="fill: #d88c3d; opacity: 0.55"/>
   </g>
   <g id="matplotlib.axis_5">
    <g id="xtick_5">
     <g id="line2d_42">
      <path d="M 627.867781 225.198979
L 627.867781 18.118365
" clip-path="url(#p497906c845)" style="fill: none; stroke: #b0b0b0; stroke-opacity: 0.18; stroke-width: 0.6; stroke-linecap: square"/>
     </g>
     <g id="line2d_43">
      <g>
       <use xlink:href="#m30a26c73de" x="627.867781" y="225.198979" style="stroke: #000000; stroke-width: 0.8"/>
      </g>
     </g>
     <g id="text_28">
      <!-- −5.0 -->
      <g transform="translate(615.726375 239.796635) scale(0.1 -0.1)">
       <defs>
        <path id="DejaVuSans-c9c" d="M 678 2272
L 4684 2272
L 4684 1741
L 678 1741
L 678 2272
z
" transform="scale(0.015625)"/>
       </defs>
       <use xlink:href="#DejaVuSans-c9c"/>
       <use xlink:href="#DejaVuSans-18" transform="translate(83.796875 0)"/>
       <use xlink:href="#DejaVuSans-11" transform="translate(147.421875 0)"/>
       <use xlink:href="#DejaVuSans-13" transform="translate(179.203125 0)"/>
      </g>
     </g>
    </g>
    <g id="xtick_6">
     <g id="line2d_44">
      <path d="M 661.642645 225.198979
L 661.642645 18.118365
" clip-path="url(#p497906c845)" style="fill: none; stroke: #b0b0b0; stroke-opacity: 0.18; stroke-width: 0.6; stroke-linecap: square"/>
     </g>
     <g id="line2d_45">
      <g>
       <use xlink:href="#m30a26c73de" x="661.642645" y="225.198979" style="stroke: #000000; stroke-width: 0.8"/>
      </g>
     </g>
     <g id="text_29">
      <!-- −2.5 -->
      <g transform="translate(649.501238 239.796635) scale(0.1 -0.1)">
       <use xlink:href="#DejaVuSans-c9c"/>
       <use xlink:href="#DejaVuSans-15" transform="translate(83.796875 0)"/>
       <use xlink:href="#DejaVuSans-11" transform="translate(147.421875 0)"/>
       <use xlink:href="#DejaVuSans-18" transform="translate(179.203125 0)"/>
      </g>
     </g>
    </g>
    <g id="xtick_7">
     <g id="line2d_46">
      <path d="M 695.417508 225.198979
L 695.417508 18.118365
" clip-path="url(#p497906c845)" style="fill: none; stroke: #b0b0b0; stroke-opacity: 0.18; stroke-width: 0.6; stroke-linecap: square"/>
     </g>
     <g id="line2d_47">
      <g>
       <use xlink:href="#m30a26c73de" x="695.417508" y="225.198979" style="stroke: #000000; stroke-width: 0.8"/>
      </g>
     </g>
     <g id="text_30">
      <!-- 0.0 -->
      <g transform="translate(687.465946 239.796635) scale(0.1 -0.1)">
       <use xlink:href="#DejaVuSans-13"/>
       <use xlink:href="#DejaVuSans-11" transform="translate(63.625 0)"/>
       <use xlink:href="#DejaVuSans-13" transform="translate(95.40625 0)"/>
      </g>
     </g>
    </g>
    <g id="xtick_8">
     <g id="line2d_48">
      <path d="M 729.192371 225.198979
L 729.192371 18.118365
" clip-path="url(#p497906c845)" style="fill: none; stroke: #b0b0b0; stroke-opacity: 0.18; stroke-width: 0.6; stroke-linecap: square"/>
     </g>
     <g id="line2d_49">
      <g>
       <use xlink:href="#m30a26c73de" x="729.192371" y="225.198979" style="stroke: #000000; stroke-width: 0.8"/>
      </g>
     </g>
     <g id="text_31">
      <!-- 2.5 -->
      <g transform="translate(721.240809 239.796635) scale(0.1 -0.1)">
       <use xlink:href="#DejaVuSans-15"/>
       <use xlink:href="#DejaVuSans-11" transform="translate(63.625 0)"/>
       <use xlink:href="#DejaVuSans-18" transform="translate(95.40625 0)"/>
      </g>
     </g>
    </g>
    <g id="xtick_9">
     <g id="line2d_50">
      <path d="M 762.967235 225.198979
L 762.967235 18.118365
" clip-path="url(#p497906c845)" style="fill: none; stroke: #b0b0b0; stroke-opacity: 0.18; stroke-width: 0.6; stroke-linecap: square"/>
     </g>
     <g id="line2d_51">
      <g>
       <use xlink:href="#m30a26c73de" x="762.967235" y="225.198979" style="stroke: #000000; stroke-width: 0.8"/>
      </g>
     </g>
     <g id="text_32">
      <!-- 5.0 -->
      <g transform="translate(755.015672 239.796635) scale(0.1 -0.1)">
       <use xlink:href="#DejaVuSans-18"/>
       <use xlink:href="#DejaVuSans-11" transform="translate(63.625 0)"/>
       <use xlink:href="#DejaVuSans-13" transform="translate(95.40625 0)"/>
      </g>
     </g>
    </g>
    <g id="xtick_10">
     <g id="line2d_52">
      <path d="M 796.742098 225.198979
L 796.742098 18.118365
" clip-path="url(#p497906c845)" style="fill: none; stroke: #b0b0b0; stroke-opacity: 0.18; stroke-width: 0.6; stroke-linecap: square"/>
     </g>
     <g id="line2d_53">
      <g>
       <use xlink:href="#m30a26c73de" x="796.742098" y="225.198979" style="stroke: #000000; stroke-width: 0.8"/>
      </g>
     </g>
     <g id="text_33">
      <!-- 7.5 -->
      <g transform="translate(788.790535 239.796635) scale(0.1 -0.1)">
       <use xlink:href="#DejaVuSans-1a"/>
       <use xlink:href="#DejaVuSans-11" transform="translate(63.625 0)"/>
       <use xlink:href="#DejaVuSans-18" transform="translate(95.40625 0)"/>
      </g>
     </g>
    </g>
    <g id="xtick_11">
     <g id="line2d_54">
      <path d="M 830.516961 225.198979
L 830.516961 18.118365
" clip-path="url(#p497906c845)" style="fill: none; stroke: #b0b0b0; stroke-opacity: 0.18; stroke-width: 0.6; stroke-linecap: square"/>
     </g>
     <g id="line2d_55">
      <g>
       <use xlink:href="#m30a26c73de" x="830.516961" y="225.198979" style="stroke: #000000; stroke-width: 0.8"/>
      </g>
     </g>
     <g id="text_34">
      <!-- 10.0 -->
      <g transform="translate(819.384149 239.796635) scale(0.1 -0.1)">
       <use xlink:href="#DejaVuSans-14"/>
       <use xlink:href="#DejaVuSans-13" transform="translate(63.625 0)"/>
       <use xlink:href="#DejaVuSans-11" transform="translate(127.25 0)"/>
       <use xlink:href="#DejaVuSans-13" transform="translate(159.03125 0)"/>
      </g>
     </g>
    </g>
    <g id="xtick_12">
     <g id="line2d_56">
      <path d="M 864.291824 225.198979
L 864.291824 18.118365
" clip-path="url(#p497906c845)" style="fill: none; stroke: #b0b0b0; stroke-opacity: 0.18; stroke-width: 0.6; stroke-linecap: square"/>
     </g>
     <g id="line2d_57">
      <g>
       <use xlink:href="#m30a26c73de" x="864.291824" y="225.198979" style="stroke: #000000; stroke-width: 0.8"/>
      </g>
     </g>
     <g id="text_35">
      <!-- 12.5 -->
      <g transform="translate(853.159012 239.796635) scale(0.1 -0.1)">
       <use xlink:href="#DejaVuSans-14"/>
       <use xlink:href="#DejaVuSans-15" transform="translate(63.625 0)"/>
       <use xlink:href="#DejaVuSans-11" transform="translate(127.25 0)"/>
       <use xlink:href="#DejaVuSans-18" transform="translate(159.03125 0)"/>
      </g>
     </g>
    </g>
    <g id="text_36">
     <!-- forward work -->
     <g transform="translate(713.727281 253.797416) scale(0.1 -0.1)">
      <defs>
       <path id="DejaVuSans-4e" d="M 581 4863
L 1159 4863
L 1159 1991
L 2875 3500
L 3609 3500
L 1753 1863
L 3688 0
L 2938 0
L 1159 1709
L 1159 0
L 581 0
L 581 4863
z
" transform="scale(0.015625)"/>
      </defs>
      <use xlink:href="#DejaVuSans-49"/>
      <use xlink:href="#DejaVuSans-52" transform="translate(35.203125 0)"/>
      <use xlink:href="#DejaVuSans-55" transform="translate(96.390625 0)"/>
      <use xlink:href="#DejaVuSans-5a" transform="translate(137.5 0)"/>
      <use xlink:href="#DejaVuSans-44" transform="translate(219.28125 0)"/>
      <use xlink:href="#DejaVuSans-55" transform="translate(280.5625 0)"/>
      <use xlink:href="#DejaVuSans-47" transform="translate(319.921875 0)"/>
      <use xlink:href="#DejaVuSans-3" transform="translate(383.40625 0)"/>
      <use xlink:href="#DejaVuSans-5a" transform="translate(415.1875 0)"/>
      <use xlink:href="#DejaVuSans-52" transform="translate(496.96875 0)"/>
      <use xlink:href="#DejaVuSans-55" transform="translate(558.15625 0)"/>
      <use xlink:href="#DejaVuSans-4e" transform="translate(599.265625 0)"/>
     </g>
    </g>
   </g>
   <g id="matplotlib.axis_6">
    <g id="ytick_15">
     <g id="line2d_58">
      <path d="M 623.161949 225.198979
L 870.009801 225.198979
" clip-path="url(#p497906c845)" style="fill: none; stroke: #b0b0b0; stroke-opacity: 0.18; stroke-width: 0.6; stroke-linecap: square"/>
     </g>
     <g id="line2d_59">
      <g>
       <use xlink:href="#mf41590833d" x="623.161949" y="225.198979" style="stroke: #000000; stroke-width: 0.8"/>
      </g>
     </g>
     <g id="text_37">
      <!-- 0.0 -->
      <g transform="translate(600.258824 228.997807) scale(0.1 -0.1)">
       <use xlink:href="#DejaVuSans-13"/>
       <use xlink:href="#DejaVuSans-11" transform="translate(63.625 0)"/>
       <use xlink:href="#DejaVuSans-13" transform="translate(95.40625 0)"/>
      </g>
     </g>
    </g>
    <g id="ytick_16">
     <g id="line2d_60">
      <path d="M 623.161949 199.936442
L 870.009801 199.936442
" clip-path="url(#p497906c845)" style="fill: none; stroke: #b0b0b0; stroke-opacity: 0.18; stroke-width: 0.6; stroke-linecap: square"/>
     </g>
     <g id="line2d_61">
      <g>
       <use xlink:href="#mf41590833d" x="623.161949" y="199.936442" style="stroke: #000000; stroke-width: 0.8"/>
      </g>
     </g>
     <g id="text_38">
      <!-- 0.1 -->
      <g transform="translate(600.258824 203.73527) scale(0.1 -0.1)">
       <use xlink:href="#DejaVuSans-13"/>
       <use xlink:href="#DejaVuSans-11" transform="translate(63.625 0)"/>
       <use xlink:href="#DejaVuSans-14" transform="translate(95.40625 0)"/>
      </g>
     </g>
    </g>
    <g id="ytick_17">
     <g id="line2d_62">
      <path d="M 623.161949 174.673905
L 870.009801 174.673905
" clip-path="url(#p497906c845)" style="fill: none; stroke: #b0b0b0; stroke-opacity: 0.18; stroke-width: 0.6; stroke-linecap: square"/>
     </g>
     <g id="line2d_63">
      <g>
       <use xlink:href="#mf41590833d" x="623.161949" y="174.673905" style="stroke: #000000; stroke-width: 0.8"/>
      </g>
     </g>
     <g id="text_39">
      <!-- 0.2 -->
      <g transform="translate(600.258824 178.472733) scale(0.1 -0.1)">
       <use xlink:href="#DejaVuSans-13"/>
       <use xlink:href="#DejaVuSans-11" transform="translate(63.625 0)"/>
       <use xlink:href="#DejaVuSans-15" transform="translate(95.40625 0)"/>
      </g>
     </g>
    </g>
    <g id="ytick_18">
     <g id="line2d_64">
      <path d="M 623.161949 149.411368
L 870.009801 149.411368
" clip-path="url(#p497906c845)" style="fill: none; stroke: #b0b0b0; stroke-opacity: 0.18; stroke-width: 0.6; stroke-linecap: square"/>
     </g>
     <g id="line2d_65">
      <g>
       <use xlink:href="#mf41590833d" x="623.161949" y="149.411368" style="stroke: #000000; stroke-width: 0.8"/>
      </g>
     </g>
     <g id="text_40">
      <!-- 0.3 -->
      <g transform="translate(600.258824 153.210196) scale(0.1 -0.1)">
       <use xlink:href="#DejaVuSans-13"/>
       <use xlink:href="#DejaVuSans-11" transform="translate(63.625 0)"/>
       <use xlink:href="#DejaVuSans-16" transform="translate(95.40625 0)"/>
      </g>
     </g>
    </g>
    <g id="ytick_19">
     <g id="line2d_66">
      <path d="M 623.161949 124.148831
L 870.009801 124.148831
" clip-path="url(#p497906c845)" style="fill: none; stroke: #b0b0b0; stroke-opacity: 0.18; stroke-width: 0.6; stroke-linecap: square"/>
     </g>
     <g id="line2d_67">
      <g>
       <use xlink:href="#mf41590833d" x="623.161949" y="124.148831" style="stroke: #000000; stroke-width: 0.8"/>
      </g>
     </g>
     <g id="text_41">
      <!-- 0.4 -->
      <g transform="translate(600.258824 127.947659) scale(0.1 -0.1)">
       <use xlink:href="#DejaVuSans-13"/>
       <use xlink:href="#DejaVuSans-11" transform="translate(63.625 0)"/>
       <use xlink:href="#DejaVuSans-17" transform="translate(95.40625 0)"/>
      </g>
     </g>
    </g>
    <g id="ytick_20">
     <g id="line2d_68">
      <path d="M 623.161949 98.886294
L 870.009801 98.886294
" clip-path="url(#p497906c845)" style="fill: none; stroke: #b0b0b0; stroke-opacity: 0.18; stroke-width: 0.6; stroke-linecap: square"/>
     </g>
     <g id="line2d_69">
      <g>
       <use xlink:href="#mf41590833d" x="623.161949" y="98.886294" style="stroke: #000000; stroke-width: 0.8"/>
      </g>
     </g>
     <g id="text_42">
      <!-- 0.5 -->
      <g transform="translate(600.258824 102.685122) scale(0.1 -0.1)">
       <use xlink:href="#DejaVuSans-13"/>
       <use xlink:href="#DejaVuSans-11" transform="translate(63.625 0)"/>
       <use xlink:href="#DejaVuSans-18" transform="translate(95.40625 0)"/>
      </g>
     </g>
    </g>
    <g id="ytick_21">
     <g id="line2d_70">
      <path d="M 623.161949 73.623757
L 870.009801 73.623757
" clip-path="url(#p497906c845)" style="fill: none; stroke: #b0b0b0; stroke-opacity: 0.18; stroke-width: 0.6; stroke-linecap: square"/>
     </g>
     <g id="line2d_71">
      <g>
       <use xlink:href="#mf41590833d" x="623.161949" y="73.623757" style="stroke: #000000; stroke-width: 0.8"/>
      </g>
     </g>
     <g id="text_43">
      <!-- 0.6 -->
      <g transform="translate(600.258824 77.422585) scale(0.1 -0.1)">
       <use xlink:href="#DejaVuSans-13"/>
       <use xlink:href="#DejaVuSans-11" transform="translate(63.625 0)"/>
       <use xlink:href="#DejaVuSans-19" transform="translate(95.40625 0)"/>
      </g>
     </g>
    </g>
    <g id="ytick_22">
     <g id="line2d_72">
      <path d="M 623.161949 48.361219
L 870.009801 48.361219
" clip-path="url(#p497906c845)" style="fill: none; stroke: #b0b0b0; stroke-opacity: 0.18; stroke-width: 0.6; stroke-linecap: square"/>
     </g>
     <g id="line2d_73">
      <g>
       <use xlink:href="#mf41590833d" x="623.161949" y="48.361219" style="stroke: #000000; stroke-width: 0.8"/>
      </g>
     </g>
     <g id="text_44">
      <!-- 0.7 -->
      <g transform="translate(600.258824 52.160048) scale(0.1 -0.1)">
       <use xlink:href="#DejaVuSans-13"/>
       <use xlink:href="#DejaVuSans-11" transform="translate(63.625 0)"/>
       <use xlink:href="#DejaVuSans-1a" transform="translate(95.40625 0)"/>
      </g>
     </g>
    </g>
    <g id="ytick_23">
     <g id="line2d_74">
      <path d="M 623.161949 23.098682
L 870.009801 23.098682
" clip-path="url(#p497906c845)" style="fill: none; stroke: #b0b0b0; stroke-opacity: 0.18; stroke-width: 0.6; stroke-linecap: square"/>
     </g>
     <g id="line2d_75">
      <g>
       <use xlink:href="#mf41590833d" x="623.161949" y="23.098682" style="stroke: #000000; stroke-width: 0.8"/>
      </g>
     </g>
     <g id="text_45">
      <!-- 0.8 -->
      <g transform="translate(600.258824 26.897511) scale(0.1 -0.1)">
       <use xlink:href="#DejaVuSans-13"/>
       <use xlink:href="#DejaVuSans-11" transform="translate(63.625 0)"/>
       <use xlink:href="#DejaVuSans-1b" transform="translate(95.40625 0)"/>
      </g>
     </g>
    </g>
    <g id="text_46">
     <!-- density -->
     <g transform="translate(593.85648 139.991484) rotate(-90) scale(0.1 -0.1)">
      <defs>
       <path id="DejaVuSans-5c" d="M 2059 -325
Q 1816 -950 1584 -1140
Q 1353 -1331 966 -1331
L 506 -1331
L 506 -850
L 844 -850
Q 1081 -850 1212 -737
Q 1344 -625 1503 -206
L 1606 56
L 191 3500
L 800 3500
L 1894 763
L 2988 3500
L 3597 3500
L 2059 -325
z
" transform="scale(0.015625)"/>
      </defs>
      <use xlink:href="#DejaVuSans-47"/>
      <use xlink:href="#DejaVuSans-48" transform="translate(63.484375 0)"/>
      <use xlink:href="#DejaVuSans-51" transform="translate(125.015625 0)"/>
      <use xlink:href="#DejaVuSans-56" transform="translate(188.390625 0)"/>
      <use xlink:href="#DejaVuSans-4c" transform="translate(240.484375 0)"/>
      <use xlink:href="#DejaVuSans-57" transform="translate(268.265625 0)"/>
      <use xlink:href="#DejaVuSans-5c" transform="translate(307.46875 0)"/>
     </g>
    </g>
   </g>
   <g id="patch_96">
    <path d="M 623.161949 225.198979
L 623.161949 18.118365
" style="fill: none; stroke: #000000; stroke-width: 0.8; stroke-linejoin: miter; stroke-linecap: square"/>
   </g>
   <g id="patch_97">
    <path d="M 623.161949 225.198979
L 870.009801 225.198979
" style="fill: none; stroke: #000000; stroke-width: 0.8; stroke-linejoin: miter; stroke-linecap: square"/>
   </g>
   <g id="text_47">
    <!-- Work tails drive FEP -->
    <g transform="translate(687.138062 12.118365) scale(0.12 -0.12)">
     <defs>
      <path id="DejaVuSans-3a" d="M 213 4666
L 850 4666
L 1831 722
L 2809 4666
L 3519 4666
L 4500 722
L 5478 4666
L 6119 4666
L 4947 0
L 4153 0
L 3169 4050
L 2175 0
L 1381 0
L 213 4666
z
" transform="scale(0.015625)"/>
     </defs>
     <use xlink:href="#DejaVuSans-3a"/>
     <use xlink:href="#DejaVuSans-52" transform="translate(93.015625 0)"/>
     <use xlink:href="#DejaVuSans-55" transform="translate(154.203125 0)"/>
     <use xlink:href="#DejaVuSans-4e" transform="translate(195.3125 0)"/>
     <use xlink:href="#DejaVuSans-3" transform="translate(253.21875 0)"/>
     <use xlink:href="#DejaVuSans-57" transform="translate(285 0)"/>
     <use xlink:href="#DejaVuSans-44" transform="translate(324.203125 0)"/>
     <use xlink:href="#DejaVuSans-4c" transform="translate(385.484375 0)"/>
     <use xlink:href="#DejaVuSans-4f" transform="translate(413.265625 0)"/>
     <use xlink:href="#DejaVuSans-56" transform="translate(441.046875 0)"/>
     <use xlink:href="#DejaVuSans-3" transform="translate(493.140625 0)"/>
     <use xlink:href="#DejaVuSans-47" transform="translate(524.921875 0)"/>
     <use xlink:href="#DejaVuSans-55" transform="translate(588.40625 0)"/>
     <use xlink:href="#DejaVuSans-4c" transform="translate(629.515625 0)"/>
     <use xlink:href="#DejaVuSans-59" transform="translate(657.296875 0)"/>
     <use xlink:href="#DejaVuSans-48" transform="translate(716.484375 0)"/>
     <use xlink:href="#DejaVuSans-3" transform="translate(778.015625 0)"/>
     <use xlink:href="#DejaVuSans-29" transform="translate(809.796875 0)"/>
     <use xlink:href="#DejaVuSans-28" transform="translate(867.3125 0)"/>
     <use xlink:href="#DejaVuSans-33" transform="translate(930.5 0)"/>
    </g>
   </g>
   <g id="legend_3">
    <g id="patch_98">
     <path d="M 787.874801 31.397115
L 803.874801 31.397115
L 803.874801 25.797115
L 787.874801 25.797115
z
" style="fill: #2f6f9f; opacity: 0.55"/>
    </g>
    <g id="text_48">
     <!-- good overlap -->
     <g transform="translate(810.274801 31.397115) scale(0.08 -0.08)">
      <use xlink:href="#DejaVuSans-4a"/>
      <use xlink:href="#DejaVuSans-52" transform="translate(63.484375 0)"/>
      <use xlink:href="#DejaVuSans-52" transform="translate(124.671875 0)"/>
      <use xlink:href="#DejaVuSans-47" transform="translate(185.859375 0)"/>
      <use xlink:href="#DejaVuSans-3" transform="translate(249.34375 0)"/>
      <use xlink:href="#DejaVuSans-52" transform="translate(281.125 0)"/>
      <use xlink:href="#DejaVuSans-59" transform="translate(342.3125 0)"/>
      <use xlink:href="#DejaVuSans-48" transform="translate(401.5 0)"/>
      <use xlink:href="#DejaVuSans-55" transform="translate(463.03125 0)"/>
      <use xlink:href="#DejaVuSans-4f" transform="translate(504.140625 0)"/>
      <use xlink:href="#DejaVuSans-44" transform="translate(531.921875 0)"/>
      <use xlink:href="#DejaVuSans-53" transform="translate(593.203125 0)"/>
     </g>
    </g>
    <g id="patch_99">
     <path d="M 787.874801 43.39774
L 803.874801 43.39774
L 803.874801 37.79774
L 787.874801 37.79774
z
" style="fill: #d88c3d; opacity: 0.55"/>
    </g>
    <g id="text_49">
     <!-- poor overlap -->
     <g transform="translate(810.274801 43.39774) scale(0.08 -0.08)">
      <use xlink:href="#DejaVuSans-53"/>
      <use xlink:href="#DejaVuSans-52" transform="translate(63.484375 0)"/>
      <use xlink:href="#DejaVuSans-52" transform="translate(124.671875 0)"/>
      <use xlink:href="#DejaVuSans-55" transform="translate(185.859375 0)"/>
      <use xlink:href="#DejaVuSans-3" transform="translate(226.96875 0)"/>
      <use xlink:href="#DejaVuSans-52" transform="translate(258.75 0)"/>
      <use xlink:href="#DejaVuSans-59" transform="translate(319.9375 0)"/>
      <use xlink:href="#DejaVuSans-48" transform="translate(379.125 0)"/>
      <use xlink:href="#DejaVuSans-55" transform="translate(440.65625 0)"/>
      <use xlink:href="#DejaVuSans-4f" transform="translate(481.765625 0)"/>
      <use xlink:href="#DejaVuSans-44" transform="translate(509.546875 0)"/>
      <use xlink:href="#DejaVuSans-53" transform="translate(570.828125 0)"/>
     </g>
    </g>
   </g>
  </g>
 </g>
 <defs>
  <clipPath id="p62f664bf7e">
   <rect x="39.904146" y="18.118365" width="246.847852" height="207.080614"/>
  </clipPath>
  <clipPath id="p8a5ab42e3f">
   <rect x="329.656384" y="18.118365" width="246.847852" height="207.080614"/>
  </clipPath>
  <clipPath id="p497906c845">
   <rect x="623.161949" y="18.118365" width="246.847852" height="207.080614"/>
  </clipPath>
 </defs>
</svg>
