<?xml version="1.0" encoding="utf-8" standalone="no"?>
<!DOCTYPE svg PUBLIC "-//W3C//DTD SVG 1.1//EN"
  "http://www.w3.org/Graphics/SVG/1.1/DTD/svg11.dtd">
<svg xmlns:xlink="http://www.w3.org/1999/xlink" width="777.6pt" height="518.4pt" viewBox="0 0 777.6 518.4" xmlns="http://www.w3.org/2000/svg" version="1.1">
 <metadata>
  <rdf:RDF xmlns:dc="http://purl.org/dc/elements/1.1/" xmlns:cc="http://creativecommons.org/ns#" xmlns:rdf="http://www.w3.org/1999/02/22-rdf-syntax-ns#">
   <cc:Work>
    <dc:type rdf:resource="http://purl.org/dc/dcmitype/StillImage"/>
    <dc:format>image/svg+xml</dc:format>
    <dc:creator>
     <cc:Agent>
      <dc:title>Matplotlib v3.11.0, https://matplotlib.org/</dc:title>
     </cc:Agent>
    </dc:creator>
   </cc:Work>
  </rdf:RDF>
 </metadata>
 <defs>
  <style type="text/css">*{stroke-linejoin: round; stroke-linecap: butt}</style>
 </defs>
 <g id="figure_1">
  <g id="patch_1">
   <path d="M 0 518.4
L 777.6 518.4
L 777.6 0
L 0 0
z
" style="fill: #ffffff"/>
  </g>
  <g id="axes_1">
   <g id="patch_2">
    <path d="M 39.904146 227.597182
L 381.73075 227.597182
L 381.73075 18.118365
L 39.904146 18.118365
z
" style="fill: #ffffff"/>
   </g>
   <g id="patch_3">
    <path d="M 55.441719 227.597182
L 193.553478 227.597182
L 193.553478 42.427358
L 55.441719 42.427358
z
" clip-path="url(#p3cc32c393d)" style="fill: #2f6f9f; stroke: #18384f; stroke-width: 0.6; stroke-linejoin: miter"/>
   </g>
   <g id="patch_4">
    <path d="M 228.081418 227.597182
L 366.193177 227.597182
L 366.193177 115.082912
L 228.081418 115.082912
z
" clip-path="url(#p3cc32c393d)" style="fill: #2f6f9f; stroke: #18384f; stroke-width: 0.6; stroke-linejoin: miter"/>
   </g>
   <g id="matplotlib.axis_1">
    <g id="xtick_1">
     <g id="line2d_1">
      <path d="M 124.497599 227.597182
L 124.497599 18.118365
" clip-path="url(#p3cc32c393d)" style="fill: none; stroke: #b0b0b0; stroke-opacity: 0.18; stroke-width: 0.6; stroke-linecap: square"/>
     </g>
     <g id="line2d_2">
      <defs>
       <path id="m809c075421" d="M 0 0
L 0 3.5
" style="stroke: #000000; stroke-width: 0.8"/>
      </defs>
      <g>
       <use xlink:href="#m809c075421" x="124.497599" y="227.597182" style="stroke: #000000; stroke-width: 0.8"/>
      </g>
     </g>
     <g id="text_1">
      <!-- fast -->
      <g transform="translate(116.986349 241.476713) scale(0.08 -0.08)">
       <defs>
        <path id="DejaVuSans-49" d="M 2375 4863
L 2375 4384
L 1825 4384
Q 1516 4384 1395 4259
Q 1275 4134 1275 3809
L 1275 3500
L 2222 3500
L 2222 3053
L 1275 3053
L 1275 0
L 697 0
L 697 3053
L 147 3053
L 147 3500
L 697 3500
L 697 3744
Q 697 4328 969 4595
Q 1241 4863 1831 4863
L 2375 4863
z
" transform="scale(0.015625)"/>
        <path id="DejaVuSans-44" d="M 2194 1759
Q 1497 1759 1228 1600
Q 959 1441 959 1056
Q 959 750 1161 570
Q 1363 391 1709 391
Q 2188 391 2477 730
Q 2766 1069 2766 1631
L 2766 1759
L 2194 1759
z
M 3341 1997
L 3341 0
L 2766 0
L 2766 531
Q 2569 213 2275 61
Q 1981 -91 1556 -91
Q 1019 -91 701 211
Q 384 513 384 1019
Q 384 1609 779 1909
Q 1175 2209 1959 2209
L 2766 2209
L 2766 2266
Q 2766 2663 2505 2880
Q 2244 3097 1772 3097
Q 1472 3097 1187 3025
Q 903 2953 641 2809
L 641 3341
Q 956 3463 1253 3523
Q 1550 3584 1831 3584
Q 2591 3584 2966 3190
Q 3341 2797 3341 1997
z
" transform="scale(0.015625)"/>
        <path id="DejaVuSans-56" d="M 2834 3397
L 2834 2853
Q 2591 2978 2328 3040
Q 2066 3103 1784 3103
Q 1356 3103 1142 2972
Q 928 2841 928 2578
Q 928 2378 1081 2264
Q 1234 2150 1697 2047
L 1894 2003
Q 2506 1872 2764 1633
Q 3022 1394 3022 966
Q 3022 478 2636 193
Q 2250 -91 1575 -91
Q 1294 -91 989 -36
Q 684 19 347 128
L 347 722
Q 666 556 975 473
Q 1284 391 1588 391
Q 1994 391 2212 530
Q 2431 669 2431 922
Q 2431 1156 2273 1281
Q 2116 1406 1581 1522
L 1381 1569
Q 847 1681 609 1914
Q 372 2147 372 2553
Q 372 3047 722 3315
Q 1072 3584 1716 3584
Q 2034 3584 2315 3537
Q 2597 3491 2834 3397
z
" transform="scale(0.015625)"/>
        <path id="DejaVuSans-57" d="M 1172 4494
L 1172 3500
L 2356 3500
L 2356 3053
L 1172 3053
L 1172 1153
Q 1172 725 1289 603
Q 1406 481 1766 481
L 2356 481
L 2356 0
L 1766 0
Q 1100 0 847 248
Q 594 497 594 1153
L 594 3053
L 172 3053
L 172 3500
L 594 3500
L 594 4494
L 1172 4494
z
" transform="scale(0.015625)"/>
       </defs>
       <use xlink:href="#DejaVuSans-49"/>
       <use xlink:href="#DejaVuSans-44" transform="translate(35.203125 0)"/>
       <use xlink:href="#DejaVuSans-56" transform="translate(96.484375 0)"/>
       <use xlink:href="#DejaVuSans-57" transform="translate(148.578125 0)"/>
      </g>
      <!-- barostat -->
      <g transform="translate(107.831974 251.078901) scale(0.08 -0.08)">
       <defs>
        <path id="DejaVuSans-45" d="M 3116 1747
Q 3116 2381 2855 2742
Q 2594 3103 2138 3103
Q 1681 3103 1420 2742
Q 1159 2381 1159 1747
Q 1159 1113 1420 752
Q 1681 391 2138 391
Q 2594 391 2855 752
Q 3116 1113 3116 1747
z
M 1159 2969
Q 1341 3281 1617 3432
Q 1894 3584 2278 3584
Q 2916 3584 3314 3078
Q 3713 2572 3713 1747
Q 3713 922 3314 415
Q 2916 -91 2278 -91
Q 1894 -91 1617 61
Q 1341 213 1159 525
L 1159 0
L 581 0
L 581 4863
L 1159 4863
L 1159 2969
z
" transform="scale(0.015625)"/>
        <path id="DejaVuSans-55" d="M 2631 2963
Q 2534 3019 2420 3045
Q 2306 3072 2169 3072
Q 1681 3072 1420 2755
Q 1159 2438 1159 1844
L 1159 0
L 581 0
L 581 3500
L 1159 3500
L 1159 2956
Q 1341 3275 1631 3429
Q 1922 3584 2338 3584
Q 2397 3584 2469 3576
Q 2541 3569 2628 3553
L 2631 2963
z
" transform="scale(0.015625)"/>
        <path id="DejaVuSans-52" d="M 1959 3097
Q 1497 3097 1228 2736
Q 959 2375 959 1747
Q 959 1119 1226 758
Q 1494 397 1959 397
Q 2419 397 2687 759
Q 2956 1122 2956 1747
Q 2956 2369 2687 2733
Q 2419 3097 1959 3097
z
M 1959 3584
Q 2709 3584 3137 3096
Q 3566 2609 3566 1747
Q 3566 888 3137 398
Q 2709 -91 1959 -91
Q 1206 -91 779 398
Q 353 888 353 1747
Q 353 2609 779 3096
Q 1206 3584 1959 3584
z
" transform="scale(0.015625)"/>
       </defs>
       <use xlink:href="#DejaVuSans-45"/>
       <use xlink:href="#DejaVuSans-44" transform="translate(63.484375 0)"/>
       <use xlink:href="#DejaVuSans-55" transform="translate(124.765625 0)"/>
       <use xlink:href="#DejaVuSans-52" transform="translate(163.671875 0)"/>
       <use xlink:href="#DejaVuSans-56" transform="translate(224.859375 0)"/>
       <use xlink:href="#DejaVuSans-57" transform="translate(276.953125 0)"/>
       <use xlink:href="#DejaVuSans-44" transform="translate(316.15625 0)"/>
       <use xlink:href="#DejaVuSans-57" transform="translate(377.4375 0)"/>
      </g>
     </g>
    </g>
    <g id="xtick_2">
     <g id="line2d_3">
      <path d="M 297.137298 227.597182
L 297.137298 18.118365
" clip-path="url(#p3cc32c393d)" style="fill: none; stroke: #b0b0b0; stroke-opacity: 0.18; stroke-width: 0.6; stroke-linecap: square"/>
     </g>
     <g id="line2d_4">
      <g>
       <use xlink:href="#m809c075421" x="297.137298" y="227.597182" style="stroke: #000000; stroke-width: 0.8"/>
      </g>
     </g>
     <g id="text_2">
      <!-- slow -->
      <g transform="translate(288.223548 241.476713) scale(0.08 -0.08)">
       <defs>
        <path id="DejaVuSans-4f" d="M 603 4863
L 1178 4863
L 1178 0
L 603 0
L 603 4863
z
" transform="scale(0.015625)"/>
        <path id="DejaVuSans-5a" d="M 269 3500
L 844 3500
L 1563 769
L 2278 3500
L 2956 3500
L 3675 769
L 4391 3500
L 4966 3500
L 4050 0
L 3372 0
L 2619 2869
L 1863 0
L 1184 0
L 269 3500
z
" transform="scale(0.015625)"/>
       </defs>
       <use xlink:href="#DejaVuSans-56"/>
       <use xlink:href="#DejaVuSans-4f" transform="translate(52.09375 0)"/>
       <use xlink:href="#DejaVuSans-52" transform="translate(79.875 0)"/>
       <use xlink:href="#DejaVuSans-5a" transform="translate(141.0625 0)"/>
      </g>
      <!-- barostat -->
      <g transform="translate(280.471673 251.078901) scale(0.08 -0.08)">
       <use xlink:href="#DejaVuSans-45"/>
       <use xlink:href="#DejaVuSans-44" transform="translate(63.484375 0)"/>
       <use xlink:href="#DejaVuSans-55" transform="translate(124.765625 0)"/>
       <use xlink:href="#DejaVuSans-52" transform="translate(163.671875 0)"/>
       <use xlink:href="#DejaVuSans-56" transform="translate(224.859375 0)"/>
       <use xlink:href="#DejaVuSans-57" transform="translate(276.953125 0)"/>
       <use xlink:href="#DejaVuSans-44" transform="translate(316.15625 0)"/>
       <use xlink:href="#DejaVuSans-57" transform="translate(377.4375 0)"/>
      </g>
     </g>
    </g>
   </g>
   <g id="matplotlib.axis_2">
    <g id="ytick_1">
     <g id="line2d_5">
      <path d="M 39.904146 227.597182
L 381.73075 227.597182
" clip-path="url(#p3cc32c393d)" style="fill: none; stroke: #b0b0b0; stroke-opacity: 0.18; stroke-width: 0.6; stroke-linecap: square"/>
     </g>
     <g id="line2d_6">
      <defs>
       <path id="m1ee22df26f" d="M 0 0
L -3.5 0
" style="stroke: #000000; stroke-width: 0.8"/>
      </defs>
      <g>
       <use xlink:href="#m1ee22df26f" x="39.904146" y="227.597182" style="stroke: #000000; stroke-width: 0.8"/>
      </g>
     </g>
     <g id="text_3">
      <!-- 0.0 -->
      <g transform="translate(17.001021 231.39601) scale(0.1 -0.1)">
       <defs>
        <path id="DejaVuSans-13" d="M 2034 4250
Q 1547 4250 1301 3770
Q 1056 3291 1056 2328
Q 1056 1369 1301 889
Q 1547 409 2034 409
Q 2525 409 2770 889
Q 3016 1369 3016 2328
Q 3016 3291 2770 3770
Q 2525 4250 2034 4250
z
M 2034 4750
Q 2819 4750 3233 4129
Q 3647 3509 3647 2328
Q 3647 1150 3233 529
Q 2819 -91 2034 -91
Q 1250 -91 836 529
Q 422 1150 422 2328
Q 422 3509 836 4129
Q 1250 4750 2034 4750
z
" transform="scale(0.015625)"/>
        <path id="DejaVuSans-11" d="M 684 794
L 1344 794
L 1344 0
L 684 0
L 684 794
z
" transform="scale(0.015625)"/>
       </defs>
       <use xlink:href="#DejaVuSans-13"/>
       <use xlink:href="#DejaVuSans-11" transform="translate(63.625 0)"/>
       <use xlink:href="#DejaVuSans-13" transform="translate(95.40625 0)"/>
      </g>
     </g>
    </g>
    <g id="ytick_2">
     <g id="line2d_7">
      <path d="M 39.904146 187.696455
L 381.73075 187.696455
" clip-path="url(#p3cc32c393d)" style="fill: none; stroke: #b0b0b0; stroke-opacity: 0.18; stroke-width: 0.6; stroke-linecap: square"/>
     </g>
     <g id="line2d_8">
      <g>
       <use xlink:href="#m1ee22df26f" x="39.904146" y="187.696455" style="stroke: #000000; stroke-width: 0.8"/>
      </g>
     </g>
     <g id="text_4">
      <!-- 0.2 -->
      <g transform="translate(17.001021 191.495283) scale(0.1 -0.1)">
       <defs>
        <path id="DejaVuSans-15" d="M 1228 531
L 3431 531
L 3431 0
L 469 0
L 469 531
Q 828 903 1448 1529
Q 2069 2156 2228 2338
Q 2531 2678 2651 2914
Q 2772 3150 2772 3378
Q 2772 3750 2511 3984
Q 2250 4219 1831 4219
Q 1534 4219 1204 4116
Q 875 4013 500 3803
L 500 4441
Q 881 4594 1212 4672
Q 1544 4750 1819 4750
Q 2544 4750 2975 4387
Q 3406 4025 3406 3419
Q 3406 3131 3298 2873
Q 3191 2616 2906 2266
Q 2828 2175 2409 1742
Q 1991 1309 1228 531
z
" transform="scale(0.015625)"/>
       </defs>
       <use xlink:href="#DejaVuSans-13"/>
       <use xlink:href="#DejaVuSans-11" transform="translate(63.625 0)"/>
       <use xlink:href="#DejaVuSans-15" transform="translate(95.40625 0)"/>
      </g>
     </g>
    </g>
    <g id="ytick_3">
     <g id="line2d_9">
      <path d="M 39.904146 147.795728
L 381.73075 147.795728
" clip-path="url(#p3cc32c393d)" style="fill: none; stroke: #b0b0b0; stroke-opacity: 0.18; stroke-width: 0.6; stroke-linecap: square"/>
     </g>
     <g id="line2d_10">
      <g>
       <use xlink:href="#m1ee22df26f" x="39.904146" y="147.795728" style="stroke: #000000; stroke-width: 0.8"/>
      </g>
     </g>
     <g id="text_5">
      <!-- 0.4 -->
      <g transform="translate(17.001021 151.594556) scale(0.1 -0.1)">
       <defs>
        <path id="DejaVuSans-17" d="M 2419 4116
L 825 1625
L 2419 1625
L 2419 4116
z
M 2253 4666
L 3047 4666
L 3047 1625
L 3713 1625
L 3713 1100
L 3047 1100
L 3047 0
L 2419 0
L 2419 1100
L 313 1100
L 313 1709
L 2253 4666
z
" transform="scale(0.015625)"/>
       </defs>
       <use xlink:href="#DejaVuSans-13"/>
       <use xlink:href="#DejaVuSans-11" transform="translate(63.625 0)"/>
       <use xlink:href="#DejaVuSans-17" transform="translate(95.40625 0)"/>
      </g>
     </g>
    </g>
    <g id="ytick_4">
     <g id="line2d_11">
      <path d="M 39.904146 107.895001
L 381.73075 107.895001
" clip-path="url(#p3cc32c393d)" style="fill: none; stroke: #b0b0b0; stroke-opacity: 0.18; stroke-width: 0.6; stroke-linecap: square"/>
     </g>
     <g id="line2d_12">
      <g>
       <use xlink:href="#m1ee22df26f" x="39.904146" y="107.895001" style="stroke: #000000; stroke-width: 0.8"/>
      </g>
     </g>
     <g id="text_6">
      <!-- 0.6 -->
      <g transform="translate(17.001021 111.693829) scale(0.1 -0.1)">
       <defs>
        <path id="DejaVuSans-19" d="M 2113 2584
Q 1688 2584 1439 2293
Q 1191 2003 1191 1497
Q 1191 994 1439 701
Q 1688 409 2113 409
Q 2538 409 2786 701
Q 3034 994 3034 1497
Q 3034 2003 2786 2293
Q 2538 2584 2113 2584
z
M 3366 4563
L 3366 3988
Q 3128 4100 2886 4159
Q 2644 4219 2406 4219
Q 1781 4219 1451 3797
Q 1122 3375 1075 2522
Q 1259 2794 1537 2939
Q 1816 3084 2150 3084
Q 2853 3084 3261 2657
Q 3669 2231 3669 1497
Q 3669 778 3244 343
Q 2819 -91 2113 -91
Q 1303 -91 875 529
Q 447 1150 447 2328
Q 447 3434 972 4092
Q 1497 4750 2381 4750
Q 2619 4750 2861 4703
Q 3103 4656 3366 4563
z
" transform="scale(0.015625)"/>
       </defs>
       <use xlink:href="#DejaVuSans-13"/>
       <use xlink:href="#DejaVuSans-11" transform="translate(63.625 0)"/>
       <use xlink:href="#DejaVuSans-19" transform="translate(95.40625 0)"/>
      </g>
     </g>
    </g>
    <g id="ytick_5">
     <g id="line2d_13">
      <path d="M 39.904146 67.994274
L 381.73075 67.994274
" clip-path="url(#p3cc32c393d)" style="fill: none; stroke: #b0b0b0; stroke-opacity: 0.18; stroke-width: 0.6; stroke-linecap: square"/>
     </g>
     <g id="line2d_14">
      <g>
       <use xlink:href="#m1ee22df26f" x="39.904146" y="67.994274" style="stroke: #000000; stroke-width: 0.8"/>
      </g>
     </g>
     <g id="text_7">
      <!-- 0.8 -->
      <g transform="translate(17.001021 71.793102) scale(0.1 -0.1)">
       <defs>
        <path id="DejaVuSans-1b" d="M 2034 2216
Q 1584 2216 1326 1975
Q 1069 1734 1069 1313
Q 1069 891 1326 650
Q 1584 409 2034 409
Q 2484 409 2743 651
Q 3003 894 3003 1313
Q 3003 1734 2745 1975
Q 2488 2216 2034 2216
z
M 1403 2484
Q 997 2584 770 2862
Q 544 3141 544 3541
Q 544 4100 942 4425
Q 1341 4750 2034 4750
Q 2731 4750 3128 4425
Q 3525 4100 3525 3541
Q 3525 3141 3298 2862
Q 3072 2584 2669 2484
Q 3125 2378 3379 2068
Q 3634 1759 3634 1313
Q 3634 634 3220 271
Q 2806 -91 2034 -91
Q 1263 -91 848 271
Q 434 634 434 1313
Q 434 1759 690 2068
Q 947 2378 1403 2484
z
M 1172 3481
Q 1172 3119 1398 2916
Q 1625 2713 2034 2713
Q 2441 2713 2670 2916
Q 2900 3119 2900 3481
Q 2900 3844 2670 4047
Q 2441 4250 2034 4250
Q 1625 4250 1398 4047
Q 1172 3844 1172 3481
z
" transform="scale(0.015625)"/>
       </defs>
       <use xlink:href="#DejaVuSans-13"/>
       <use xlink:href="#DejaVuSans-11" transform="translate(63.625 0)"/>
       <use xlink:href="#DejaVuSans-1b" transform="translate(95.40625 0)"/>
      </g>
     </g>
    </g>
    <g id="ytick_6">
     <g id="line2d_15">
      <path d="M 39.904146 28.093547
L 381.73075 28.093547
" clip-path="url(#p3cc32c393d)" style="fill: none; stroke: #b0b0b0; stroke-opacity: 0.18; stroke-width: 0.6; stroke-linecap: square"/>
     </g>
     <g id="line2d_16">
      <g>
       <use xlink:href="#m1ee22df26f" x="39.904146" y="28.093547" style="stroke: #000000; stroke-width: 0.8"/>
      </g>
     </g>
     <g id="text_8">
      <!-- 1.0 -->
      <g transform="translate(17.001021 31.892375) scale(0.1 -0.1)">
       <defs>
        <path id="DejaVuSans-14" d="M 794 531
L 1825 531
L 1825 4091
L 703 3866
L 703 4441
L 1819 4666
L 2450 4666
L 2450 531
L 3481 531
L 3481 0
L 794 0
L 794 531
z
" transform="scale(0.015625)"/>
       </defs>
       <use xlink:href="#DejaVuSans-14"/>
       <use xlink:href="#DejaVuSans-11" transform="translate(63.625 0)"/>
       <use xlink:href="#DejaVuSans-13" transform="translate(95.40625 0)"/>
      </g>
     </g>
    </g>
    <g id="text_9">
     <!-- observed / expected -->
     <g transform="translate(10.598678 174.060117) rotate(-90) scale(0.1 -0.1)">
      <defs>
       <path id="DejaVuSans-48" d="M 3597 1894
L 3597 1613
L 953 1613
Q 991 1019 1311 708
Q 1631 397 2203 397
Q 2534 397 2845 478
Q 3156 559 3463 722
L 3463 178
Q 3153 47 2828 -22
Q 2503 -91 2169 -91
Q 1331 -91 842 396
Q 353 884 353 1716
Q 353 2575 817 3079
Q 1281 3584 2069 3584
Q 2775 3584 3186 3129
Q 3597 2675 3597 1894
z
M 3022 2063
Q 3016 2534 2758 2815
Q 2500 3097 2075 3097
Q 1594 3097 1305 2825
Q 1016 2553 972 2059
L 3022 2063
z
" transform="scale(0.015625)"/>
       <path id="DejaVuSans-59" d="M 191 3500
L 800 3500
L 1894 563
L 2988 3500
L 3597 3500
L 2284 0
L 1503 0
L 191 3500
z
" transform="scale(0.015625)"/>
       <path id="DejaVuSans-47" d="M 2906 2969
L 2906 4863
L 3481 4863
L 3481 0
L 2906 0
L 2906 525
Q 2725 213 2448 61
Q 2172 -91 1784 -91
Q 1150 -91 751 415
Q 353 922 353 1747
Q 353 2572 751 3078
Q 1150 3584 1784 3584
Q 2172 3584 2448 3432
Q 2725 3281 2906 2969
z
M 947 1747
Q 947 1113 1208 752
Q 1469 391 1925 391
Q 2381 391 2643 752
Q 2906 1113 2906 1747
Q 2906 2381 2643 2742
Q 2381 3103 1925 3103
Q 1469 3103 1208 2742
Q 947 2381 947 1747
z
" transform="scale(0.015625)"/>
       <path id="DejaVuSans-3" transform="scale(0.015625)"/>
       <path id="DejaVuSans-12" d="M 1625 4666
L 2156 4666
L 531 -594
L 0 -594
L 1625 4666
z
" transform="scale(0.015625)"/>
       <path id="DejaVuSans-5b" d="M 3513 3500
L 2247 1797
L 3578 0
L 2900 0
L 1881 1375
L 863 0
L 184 0
L 1544 1831
L 300 3500
L 978 3500
L 1906 2253
L 2834 3500
L 3513 3500
z
" transform="scale(0.015625)"/>
       <path id="DejaVuSans-53" d="M 1159 525
L 1159 -1331
L 581 -1331
L 581 3500
L 1159 3500
L 1159 2969
Q 1341 3281 1617 3432
Q 1894 3584 2278 3584
Q 2916 3584 3314 3078
Q 3713 2572 3713 1747
Q 3713 922 3314 415
Q 2916 -91 2278 -91
Q 1894 -91 1617 61
Q 1341 213 1159 525
z
M 3116 1747
Q 3116 2381 2855 2742
Q 2594 3103 2138 3103
Q 1681 3103 1420 2742
Q 1159 2381 1159 1747
Q 1159 1113 1420 752
Q 1681 391 2138 391
Q 2594 391 2855 752
Q 3116 1113 3116 1747
z
" transform="scale(0.015625)"/>
       <path id="DejaVuSans-46" d="M 3122 3366
L 3122 2828
Q 2878 2963 2633 3030
Q 2388 3097 2138 3097
Q 1578 3097 1268 2742
Q 959 2388 959 1747
Q 959 1106 1268 751
Q 1578 397 2138 397
Q 2388 397 2633 464
Q 2878 531 3122 666
L 3122 134
Q 2881 22 2623 -34
Q 2366 -91 2075 -91
Q 1284 -91 818 406
Q 353 903 353 1747
Q 353 2603 823 3093
Q 1294 3584 2113 3584
Q 2378 3584 2631 3529
Q 2884 3475 3122 3366
z
" transform="scale(0.015625)"/>
      </defs>
      <use xlink:href="#DejaVuSans-52"/>
      <use xlink:href="#DejaVuSans-45" transform="translate(61.1875 0)"/>
      <use xlink:href="#DejaVuSans-56" transform="translate(124.671875 0)"/>
      <use xlink:href="#DejaVuSans-48" transform="translate(176.765625 0)"/>
      <use xlink:href="#DejaVuSans-55" transform="translate(238.296875 0)"/>
      <use xlink:href="#DejaVuSans-59" transform="translate(279.40625 0)"/>
      <use xlink:href="#DejaVuSans-48" transform="translate(338.59375 0)"/>
      <use xlink:href="#DejaVuSans-47" transform="translate(400.125 0)"/>
      <use xlink:href="#DejaVuSans-3" transform="translate(463.609375 0)"/>
      <use xlink:href="#DejaVuSans-12" transform="translate(495.390625 0)"/>
      <use xlink:href="#DejaVuSans-3" transform="translate(529.078125 0)"/>
      <use xlink:href="#DejaVuSans-48" transform="translate(560.859375 0)"/>
      <use xlink:href="#DejaVuSans-5b" transform="translate(620.640625 0)"/>
      <use xlink:href="#DejaVuSans-53" transform="translate(679.828125 0)"/>
      <use xlink:href="#DejaVuSans-48" transform="translate(743.3125 0)"/>
      <use xlink:href="#DejaVuSans-46" transform="translate(804.84375 0)"/>
      <use xlink:href="#DejaVuSans-57" transform="translate(859.828125 0)"/>
      <use xlink:href="#DejaVuSans-48" transform="translate(899.03125 0)"/>
      <use xlink:href="#DejaVuSans-47" transform="translate(960.5625 0)"/>
     </g>
    </g>
   </g>
   <g id="line2d_17">
    <path d="M 39.904146 28.093547
L 381.73075 28.093547
" clip-path="url(#p3cc32c393d)" style="fill: none; stroke: #333333; stroke-width: 0.9; stroke-linecap: square"/>
   </g>
   <g id="patch_5">
    <path d="M 39.904146 227.597182
L 39.904146 18.118365
" style="fill: none; stroke: #000000; stroke-width: 0.8; stroke-linejoin: miter; stroke-linecap: square"/>
   </g>
   <g id="patch_6">
    <path d="M 39.904146 227.597182
L 381.73075 227.597182
" style="fill: none; stroke: #000000; stroke-width: 0.8; stroke-linejoin: miter; stroke-linecap: square"/>
   </g>
   <g id="text_10">
    <!-- Volume fluctuation check -->
    <g transform="translate(134.916511 12.118365) scale(0.12 -0.12)">
     <defs>
      <path id="DejaVuSans-39" d="M 1831 0
L 50 4666
L 709 4666
L 2188 738
L 3669 4666
L 4325 4666
L 2547 0
L 1831 0
z
" transform="scale(0.015625)"/>
      <path id="DejaVuSans-58" d="M 544 1381
L 544 3500
L 1119 3500
L 1119 1403
Q 1119 906 1312 657
Q 1506 409 1894 409
Q 2359 409 2629 706
Q 2900 1003 2900 1516
L 2900 3500
L 3475 3500
L 3475 0
L 2900 0
L 2900 538
Q 2691 219 2414 64
Q 2138 -91 1772 -91
Q 1169 -91 856 284
Q 544 659 544 1381
z
M 1991 3584
L 1991 3584
z
" transform="scale(0.015625)"/>
      <path id="DejaVuSans-50" d="M 3328 2828
Q 3544 3216 3844 3400
Q 4144 3584 4550 3584
Q 5097 3584 5394 3201
Q 5691 2819 5691 2113
L 5691 0
L 5113 0
L 5113 2094
Q 5113 2597 4934 2840
Q 4756 3084 4391 3084
Q 3944 3084 3684 2787
Q 3425 2491 3425 1978
L 3425 0
L 2847 0
L 2847 2094
Q 2847 2600 2669 2842
Q 2491 3084 2119 3084
Q 1678 3084 1418 2786
Q 1159 2488 1159 1978
L 1159 0
L 581 0
L 581 3500
L 1159 3500
L 1159 2956
Q 1356 3278 1631 3431
Q 1906 3584 2284 3584
Q 2666 3584 2933 3390
Q 3200 3197 3328 2828
z
" transform="scale(0.015625)"/>
      <path id="DejaVuSans-13b0" d="M 1831 4863
L 3431 4863
L 3431 0
L 2853 0
L 2853 4384
L 1825 4384
Q 1516 4384 1395 4259
Q 1275 4134 1275 3809
L 1275 3500
L 2222 3500
L 2222 3053
L 1275 3053
L 1275 0
L 697 0
L 697 3053
L 147 3053
L 147 3500
L 697 3500
L 697 3744
Q 697 4328 969 4595
Q 1241 4863 1831 4863
z
" transform="scale(0.015625)"/>
      <path id="DejaVuSans-4c" d="M 603 3500
L 1178 3500
L 1178 0
L 603 0
L 603 3500
z
M 603 4863
L 1178 4863
L 1178 4134
L 603 4134
L 603 4863
z
" transform="scale(0.015625)"/>
      <path id="DejaVuSans-51" d="M 3513 2113
L 3513 0
L 2938 0
L 2938 2094
Q 2938 2591 2744 2837
Q 2550 3084 2163 3084
Q 1697 3084 1428 2787
Q 1159 2491 1159 1978
L 1159 0
L 581 0
L 581 3500
L 1159 3500
L 1159 2956
Q 1366 3272 1645 3428
Q 1925 3584 2291 3584
Q 2894 3584 3203 3211
Q 3513 2838 3513 2113
z
" transform="scale(0.015625)"/>
      <path id="DejaVuSans-4b" d="M 3513 2113
L 3513 0
L 2938 0
L 2938 2094
Q 2938 2591 2744 2837
Q 2550 3084 2163 3084
Q 1697 3084 1428 2787
Q 1159 2491 1159 1978
L 1159 0
L 581 0
L 581 4863
L 1159 4863
L 1159 2956
Q 1366 3272 1645 3428
Q 1925 3584 2291 3584
Q 2894 3584 3203 3211
Q 3513 2838 3513 2113
z
" transform="scale(0.015625)"/>
      <path id="DejaVuSans-4e" d="M 581 4863
L 1159 4863
L 1159 1991
L 2875 3500
L 3609 3500
L 1753 1863
L 3688 0
L 2938 0
L 1159 1709
L 1159 0
L 581 0
L 581 4863
z
" transform="scale(0.015625)"/>
     </defs>
     <use xlink:href="#DejaVuSans-39"/>
     <use xlink:href="#DejaVuSans-52" transform="translate(60.640625 0)"/>
     <use xlink:href="#DejaVuSans-4f" transform="translate(121.828125 0)"/>
     <use xlink:href="#DejaVuSans-58" transform="translate(149.609375 0)"/>
     <use xlink:href="#DejaVuSans-50" transform="translate(212.984375 0)"/>
     <use xlink:href="#DejaVuSans-48" transform="translate(310.390625 0)"/>
     <use xlink:href="#DejaVuSans-3" transform="translate(371.921875 0)"/>
     <use xlink:href="#DejaVuSans-13b0" transform="translate(403.703125 0)"/>
     <use xlink:href="#DejaVuSans-58" transform="translate(466.6875 0)"/>
     <use xlink:href="#DejaVuSans-46" transform="translate(530.0625 0)"/>
     <use xlink:href="#DejaVuSans-57" transform="translate(585.046875 0)"/>
     <use xlink:href="#DejaVuSans-58" transform="translate(624.25 0)"/>
     <use xlink:href="#DejaVuSans-44" transform="translate(687.625 0)"/>
     <use xlink:href="#DejaVuSans-57" transform="translate(748.90625 0)"/>
     <use xlink:href="#DejaVuSans-4c" transform="translate(788.109375 0)"/>
     <use xlink:href="#DejaVuSans-52" transform="translate(815.890625 0)"/>
     <use xlink:href="#DejaVuSans-51" transform="translate(877.078125 0)"/>
     <use xlink:href="#DejaVuSans-3" transform="translate(940.453125 0)"/>
     <use xlink:href="#DejaVuSans-46" transform="translate(972.234375 0)"/>
     <use xlink:href="#DejaVuSans-4b" transform="translate(1027.21875 0)"/>
     <use xlink:href="#DejaVuSans-48" transform="translate(1090.59375 0)"/>
     <use xlink:href="#DejaVuSans-46" transform="translate(1152.125 0)"/>
     <use xlink:href="#DejaVuSans-4e" transform="translate(1207.109375 0)"/>
    </g>
   </g>
  </g>
  <g id="axes_2">
   <g id="patch_7">
    <path d="M 432.773156 227.597182
L 774.59976 227.597182
L 774.59976 18.118365
L 432.773156 18.118365
z
" style="fill: #ffffff"/>
   </g>
   <g id="patch_8">
    <path d="M 448.310729 227.597182
L 586.422488 227.597182
L 586.422488 42.427358
L 448.310729 42.427358
z
" clip-path="url(#pa73bf83f5f)" style="fill: #d88c3d; stroke: #784714; stroke-width: 0.6; stroke-linejoin: miter"/>
   </g>
   <g id="patch_9">
    <path d="M 620.950428 227.597182
L 759.062187 227.597182
L 759.062187 115.082912
L 620.950428 115.082912
z
" clip-path="url(#pa73bf83f5f)" style="fill: #d88c3d; stroke: #784714; stroke-width: 0.6; stroke-linejoin: miter"/>
   </g>
   <g id="matplotlib.axis_3">
    <g id="xtick_3">
     <g id="line2d_18">
      <path d="M 517.366609 227.597182
L 517.366609 18.118365
" clip-path="url(#pa73bf83f5f)" style="fill: none; stroke: #b0b0b0; stroke-opacity: 0.18; stroke-width: 0.6; stroke-linecap: square"/>
     </g>
     <g id="line2d_19">
      <g>
       <use xlink:href="#m809c075421" x="517.366609" y="227.597182" style="stroke: #000000; stroke-width: 0.8"/>
      </g>
     </g>
     <g id="text_11">
      <!-- fast -->
      <g transform="translate(509.855359 241.476713) scale(0.08 -0.08)">
       <use xlink:href="#DejaVuSans-49"/>
       <use xlink:href="#DejaVuSans-44" transform="translate(35.203125 0)"/>
       <use xlink:href="#DejaVuSans-56" transform="translate(96.484375 0)"/>
       <use xlink:href="#DejaVuSans-57" transform="translate(148.578125 0)"/>
      </g>
      <!-- barostat -->
      <g transform="translate(500.700984 251.078901) scale(0.08 -0.08)">
       <use xlink:href="#DejaVuSans-45"/>
       <use xlink:href="#DejaVuSans-44" transform="translate(63.484375 0)"/>
       <use xlink:href="#DejaVuSans-55" transform="translate(124.765625 0)"/>
       <use xlink:href="#DejaVuSans-52" transform="translate(163.671875 0)"/>
       <use xlink:href="#DejaVuSans-56" transform="translate(224.859375 0)"/>
       <use xlink:href="#DejaVuSans-57" transform="translate(276.953125 0)"/>
       <use xlink:href="#DejaVuSans-44" transform="translate(316.15625 0)"/>
       <use xlink:href="#DejaVuSans-57" transform="translate(377.4375 0)"/>
      </g>
     </g>
    </g>
    <g id="xtick_4">
     <g id="line2d_20">
      <path d="M 690.006308 227.597182
L 690.006308 18.118365
" clip-path="url(#pa73bf83f5f)" style="fill: none; stroke: #b0b0b0; stroke-opacity: 0.18; stroke-width: 0.6; stroke-linecap: square"/>
     </g>
     <g id="line2d_21">
      <g>
       <use xlink:href="#m809c075421" x="690.006308" y="227.597182" style="stroke: #000000; stroke-width: 0.8"/>
      </g>
     </g>
     <g id="text_12">
      <!-- slow -->
      <g transform="translate(681.092558 241.476713) scale(0.08 -0.08)">
       <use xlink:href="#DejaVuSans-56"/>
       <use xlink:href="#DejaVuSans-4f" transform="translate(52.09375 0)"/>
       <use xlink:href="#DejaVuSans-52" transform="translate(79.875 0)"/>
       <use xlink:href="#DejaVuSans-5a" transform="translate(141.0625 0)"/>
      </g>
      <!-- barostat -->
      <g transform="translate(673.340683 251.078901) scale(0.08 -0.08)">
       <use xlink:href="#DejaVuSans-45"/>
       <use xlink:href="#DejaVuSans-44" transform="translate(63.484375 0)"/>
       <use xlink:href="#DejaVuSans-55" transform="translate(124.765625 0)"/>
       <use xlink:href="#DejaVuSans-52" transform="translate(163.671875 0)"/>
       <use xlink:href="#DejaVuSans-56" transform="translate(224.859375 0)"/>
       <use xlink:href="#DejaVuSans-57" transform="translate(276.953125 0)"/>
       <use xlink:href="#DejaVuSans-44" transform="translate(316.15625 0)"/>
       <use xlink:href="#DejaVuSans-57" transform="translate(377.4375 0)"/>
      </g>
     </g>
    </g>
   </g>
   <g id="matplotlib.axis_4">
    <g id="ytick_7">
     <g id="line2d_22">
      <path d="M 432.773156 227.597182
L 774.59976 227.597182
" clip-path="url(#pa73bf83f5f)" style="fill: none; stroke: #b0b0b0; stroke-opacity: 0.18; stroke-width: 0.6; stroke-linecap: square"/>
     </g>
     <g id="line2d_23">
      <g>
       <use xlink:href="#m1ee22df26f" x="432.773156" y="227.597182" style="stroke: #000000; stroke-width: 0.8"/>
      </g>
     </g>
     <g id="text_13">
      <!-- 0.0 -->
      <g transform="translate(409.870031 231.39601) scale(0.1 -0.1)">
       <use xlink:href="#DejaVuSans-13"/>
       <use xlink:href="#DejaVuSans-11" transform="translate(63.625 0)"/>
       <use xlink:href="#DejaVuSans-13" transform="translate(95.40625 0)"/>
      </g>
     </g>
    </g>
    <g id="ytick_8">
     <g id="line2d_24">
      <path d="M 432.773156 187.696455
L 774.59976 187.696455
" clip-path="url(#pa73bf83f5f)" style="fill: none; stroke: #b0b0b0; stroke-opacity: 0.18; stroke-width: 0.6; stroke-linecap: square"/>
     </g>
     <g id="line2d_25">
      <g>
       <use xlink:href="#m1ee22df26f" x="432.773156" y="187.696455" style="stroke: #000000; stroke-width: 0.8"/>
      </g>
     </g>
     <g id="text_14">
      <!-- 0.2 -->
      <g transform="translate(409.870031 191.495283) scale(0.1 -0.1)">
       <use xlink:href="#DejaVuSans-13"/>
       <use xlink:href="#DejaVuSans-11" transform="translate(63.625 0)"/>
       <use xlink:href="#DejaVuSans-15" transform="translate(95.40625 0)"/>
      </g>
     </g>
    </g>
    <g id="ytick_9">
     <g id="line2d_26">
      <path d="M 432.773156 147.795728
L 774.59976 147.795728
" clip-path="url(#pa73bf83f5f)" style="fill: none; stroke: #b0b0b0; stroke-opacity: 0.18; stroke-width: 0.6; stroke-linecap: square"/>
     </g>
     <g id="line2d_27">
      <g>
       <use xlink:href="#m1ee22df26f" x="432.773156" y="147.795728" style="stroke: #000000; stroke-width: 0.8"/>
      </g>
     </g>
     <g id="text_15">
      <!-- 0.4 -->
      <g transform="translate(409.870031 151.594556) scale(0.1 -0.1)">
       <use xlink:href="#DejaVuSans-13"/>
       <use xlink:href="#DejaVuSans-11" transform="translate(63.625 0)"/>
       <use xlink:href="#DejaVuSans-17" transform="translate(95.40625 0)"/>
      </g>
     </g>
    </g>
    <g id="ytick_10">
     <g id="line2d_28">
      <path d="M 432.773156 107.895001
L 774.59976 107.895001
" clip-path="url(#pa73bf83f5f)" style="fill: none; stroke: #b0b0b0; stroke-opacity: 0.18; stroke-width: 0.6; stroke-linecap: square"/>
     </g>
     <g id="line2d_29">
      <g>
       <use xlink:href="#m1ee22df26f" x="432.773156" y="107.895001" style="stroke: #000000; stroke-width: 0.8"/>
      </g>
     </g>
     <g id="text_16">
      <!-- 0.6 -->
      <g transform="translate(409.870031 111.693829) scale(0.1 -0.1)">
       <use xlink:href="#DejaVuSans-13"/>
       <use xlink:href="#DejaVuSans-11" transform="translate(63.625 0)"/>
       <use xlink:href="#DejaVuSans-19" transform="translate(95.40625 0)"/>
      </g>
     </g>
    </g>
    <g id="ytick_11">
     <g id="line2d_30">
      <path d="M 432.773156 67.994274
L 774.59976 67.994274
" clip-path="url(#pa73bf83f5f)" style="fill: none; stroke: #b0b0b0; stroke-opacity: 0.18; stroke-width: 0.6; stroke-linecap: square"/>
     </g>
     <g id="line2d_31">
      <g>
       <use xlink:href="#m1ee22df26f" x="432.773156" y="67.994274" style="stroke: #000000; stroke-width: 0.8"/>
      </g>
     </g>
     <g id="text_17">
      <!-- 0.8 -->
      <g transform="translate(409.870031 71.793102) scale(0.1 -0.1)">
       <use xlink:href="#DejaVuSans-13"/>
       <use xlink:href="#DejaVuSans-11" transform="translate(63.625 0)"/>
       <use xlink:href="#DejaVuSans-1b" transform="translate(95.40625 0)"/>
      </g>
     </g>
    </g>
    <g id="ytick_12">
     <g id="line2d_32">
      <path d="M 432.773156 28.093547
L 774.59976 28.093547
" clip-path="url(#pa73bf83f5f)" style="fill: none; stroke: #b0b0b0; stroke-opacity: 0.18; stroke-width: 0.6; stroke-linecap: square"/>
     </g>
     <g id="line2d_33">
      <g>
       <use xlink:href="#m1ee22df26f" x="432.773156" y="28.093547" style="stroke: #000000; stroke-width: 0.8"/>
      </g>
     </g>
     <g id="text_18">
      <!-- 1.0 -->
      <g transform="translate(409.870031 31.892375) scale(0.1 -0.1)">
       <use xlink:href="#DejaVuSans-14"/>
       <use xlink:href="#DejaVuSans-11" transform="translate(63.625 0)"/>
       <use xlink:href="#DejaVuSans-13" transform="translate(95.40625 0)"/>
      </g>
     </g>
    </g>
    <g id="text_19">
     <!-- observed / expected -->
     <g transform="translate(403.467688 174.060117) rotate(-90) scale(0.1 -0.1)">
      <use xlink:href="#DejaVuSans-52"/>
      <use xlink:href="#DejaVuSans-45" transform="translate(61.1875 0)"/>
      <use xlink:href="#DejaVuSans-56" transform="translate(124.671875 0)"/>
      <use xlink:href="#DejaVuSans-48" transform="translate(176.765625 0)"/>
      <use xlink:href="#DejaVuSans-55" transform="translate(238.296875 0)"/>
      <use xlink:href="#DejaVuSans-59" transform="translate(279.40625 0)"/>
      <use xlink:href="#DejaVuSans-48" transform="translate(338.59375 0)"/>
      <use xlink:href="#DejaVuSans-47" transform="translate(400.125 0)"/>
      <use xlink:href="#DejaVuSans-3" transform="translate(463.609375 0)"/>
      <use xlink:href="#DejaVuSans-12" transform="translate(495.390625 0)"/>
      <use xlink:href="#DejaVuSans-3" transform="translate(529.078125 0)"/>
      <use xlink:href="#DejaVuSans-48" transform="translate(560.859375 0)"/>
      <use xlink:href="#DejaVuSans-5b" transform="translate(620.640625 0)"/>
      <use xlink:href="#DejaVuSans-53" transform="translate(679.828125 0)"/>
      <use xlink:href="#DejaVuSans-48" transform="translate(743.3125 0)"/>
      <use xlink:href="#DejaVuSans-46" transform="translate(804.84375 0)"/>
      <use xlink:href="#DejaVuSans-57" transform="translate(859.828125 0)"/>
      <use xlink:href="#DejaVuSans-48" transform="translate(899.03125 0)"/>
      <use xlink:href="#DejaVuSans-47" transform="translate(960.5625 0)"/>
     </g>
    </g>
   </g>
   <g id="line2d_34">
    <path d="M 432.773156 28.093547
L 774.59976 28.093547
" clip-path="url(#pa73bf83f5f)" style="fill: none; stroke: #333333; stroke-width: 0.9; stroke-linecap: square"/>
   </g>
   <g id="patch_10">
    <path d="M 432.773156 227.597182
L 432.773156 18.118365
" style="fill: none; stroke: #000000; stroke-width: 0.8; stroke-linejoin: miter; stroke-linecap: square"/>
   </g>
   <g id="patch_11">
    <path d="M 432.773156 227.597182
L 774.59976 227.597182
" style="fill: none; stroke: #000000; stroke-width: 0.8; stroke-linejoin: miter; stroke-linecap: square"/>
   </g>
   <g id="text_20">
    <!-- Pressure fluctuations are large -->
    <g transform="translate(512.106771 12.118365) scale(0.12 -0.12)">
     <defs>
      <path id="DejaVuSans-33" d="M 1259 4147
L 1259 2394
L 2053 2394
Q 2494 2394 2734 2622
Q 2975 2850 2975 3272
Q 2975 3691 2734 3919
Q 2494 4147 2053 4147
L 1259 4147
z
M 628 4666
L 2053 4666
Q 2838 4666 3239 4311
Q 3641 3956 3641 3272
Q 3641 2581 3239 2228
Q 2838 1875 2053 1875
L 1259 1875
L 1259 0
L 628 0
L 628 4666
z
" transform="scale(0.015625)"/>
      <path id="DejaVuSans-4a" d="M 2906 1791
Q 2906 2416 2648 2759
Q 2391 3103 1925 3103
Q 1463 3103 1205 2759
Q 947 2416 947 1791
Q 947 1169 1205 825
Q 1463 481 1925 481
Q 2391 481 2648 825
Q 2906 1169 2906 1791
z
M 3481 434
Q 3481 -459 3084 -895
Q 2688 -1331 1869 -1331
Q 1566 -1331 1297 -1286
Q 1028 -1241 775 -1147
L 775 -588
Q 1028 -725 1275 -790
Q 1522 -856 1778 -856
Q 2344 -856 2625 -561
Q 2906 -266 2906 331
L 2906 616
Q 2728 306 2450 153
Q 2172 0 1784 0
Q 1141 0 747 490
Q 353 981 353 1791
Q 353 2603 747 3093
Q 1141 3584 1784 3584
Q 2172 3584 2450 3431
Q 2728 3278 2906 2969
L 2906 3500
L 3481 3500
L 3481 434
z
" transform="scale(0.015625)"/>
     </defs>
     <use xlink:href="#DejaVuSans-33"/>
     <use xlink:href="#DejaVuSans-55" transform="translate(58.546875 0)"/>
     <use xlink:href="#DejaVuSans-48" transform="translate(97.453125 0)"/>
     <use xlink:href="#DejaVuSans-56" transform="translate(158.984375 0)"/>
     <use xlink:href="#DejaVuSans-56" transform="translate(211.078125 0)"/>
     <use xlink:href="#DejaVuSans-58" transform="translate(263.171875 0)"/>
     <use xlink:href="#DejaVuSans-55" transform="translate(326.546875 0)"/>
     <use xlink:href="#DejaVuSans-48" transform="translate(365.453125 0)"/>
     <use xlink:href="#DejaVuSans-3" transform="translate(426.984375 0)"/>
     <use xlink:href="#DejaVuSans-13b0" transform="translate(458.765625 0)"/>
     <use xlink:href="#DejaVuSans-58" transform="translate(521.75 0)"/>
     <use xlink:href="#DejaVuSans-46" transform="translate(585.125 0)"/>
     <use xlink:href="#DejaVuSans-57" transform="translate(640.109375 0)"/>
     <use xlink:href="#DejaVuSans-58" transform="translate(679.3125 0)"/>
     <use xlink:href="#DejaVuSans-44" transform="translate(742.6875 0)"/>
     <use xlink:href="#DejaVuSans-57" transform="translate(803.96875 0)"/>
     <use xlink:href="#DejaVuSans-4c" transform="translate(843.171875 0)"/>
     <use xlink:href="#DejaVuSans-52" transform="translate(870.953125 0)"/>
     <use xlink:href="#DejaVuSans-51" transform="translate(932.140625 0)"/>
     <use xlink:href="#DejaVuSans-56" transform="translate(995.515625 0)"/>
     <use xlink:href="#DejaVuSans-3" transform="translate(1047.609375 0)"/>
     <use xlink:href="#DejaVuSans-44" transform="translate(1079.390625 0)"/>
     <use xlink:href="#DejaVuSans-55" transform="translate(1140.671875 0)"/>
     <use xlink:href="#DejaVuSans-48" transform="translate(1179.578125 0)"/>
     <use xlink:href="#DejaVuSans-3" transform="translate(1241.109375 0)"/>
     <use xlink:href="#DejaVuSans-4f" transform="translate(1272.890625 0)"/>
     <use xlink:href="#DejaVuSans-44" transform="translate(1300.671875 0)"/>
     <use xlink:href="#DejaVuSans-55" transform="translate(1361.953125 0)"/>
     <use xlink:href="#DejaVuSans-4a" transform="translate(1401.3125 0)"/>
     <use xlink:href="#DejaVuSans-48" transform="translate(1464.796875 0)"/>
    </g>
   </g>
  </g>
  <g id="axes_3">
   <g id="patch_12">
    <path d="M 39.904146 484.398979
L 381.73075 484.398979
L 381.73075 274.920162
L 39.904146 274.920162
z
" style="fill: #ffffff"/>
   </g>
   <g id="patch_13">
    <path d="M 55.441719 484.398979
L 193.553478 484.398979
L 193.553478 415.270419
L 55.441719 415.270419
z
" clip-path="url(#p5d4bd27d78)" style="fill: #8c6bb1; stroke: #44315d; stroke-width: 0.6; stroke-linejoin: miter"/>
   </g>
   <g id="patch_14">
    <path d="M 228.081418 484.398979
L 366.193177 484.398979
L 366.193177 284.895344
L 228.081418 284.895344
z
" clip-path="url(#p5d4bd27d78)" style="fill: #8c6bb1; stroke: #44315d; stroke-width: 0.6; stroke-linejoin: miter"/>
   </g>
   <g id="matplotlib.axis_5">
    <g id="xtick_5">
     <g id="line2d_35">
      <path d="M 124.497599 484.398979
L 124.497599 274.920162
" clip-path="url(#p5d4bd27d78)" style="fill: none; stroke: #b0b0b0; stroke-opacity: 0.18; stroke-width: 0.6; stroke-linecap: square"/>
     </g>
     <g id="line2d_36">
      <g>
       <use xlink:href="#m809c075421" x="124.497599" y="484.398979" style="stroke: #000000; stroke-width: 0.8"/>
      </g>
     </g>
     <g id="text_21">
      <!-- fast -->
      <g transform="translate(116.986349 498.27851) scale(0.08 -0.08)">
       <use xlink:href="#DejaVuSans-49"/>
       <use xlink:href="#DejaVuSans-44" transform="translate(35.203125 0)"/>
       <use xlink:href="#DejaVuSans-56" transform="translate(96.484375 0)"/>
       <use xlink:href="#DejaVuSans-57" transform="translate(148.578125 0)"/>
      </g>
      <!-- barostat -->
      <g transform="translate(107.831974 507.880697) scale(0.08 -0.08)">
       <use xlink:href="#DejaVuSans-45"/>
       <use xlink:href="#DejaVuSans-44" transform="translate(63.484375 0)"/>
       <use xlink:href="#DejaVuSans-55" transform="translate(124.765625 0)"/>
       <use xlink:href="#DejaVuSans-52" transform="translate(163.671875 0)"/>
       <use xlink:href="#DejaVuSans-56" transform="translate(224.859375 0)"/>
       <use xlink:href="#DejaVuSans-57" transform="translate(276.953125 0)"/>
       <use xlink:href="#DejaVuSans-44" transform="translate(316.15625 0)"/>
       <use xlink:href="#DejaVuSans-57" transform="translate(377.4375 0)"/>
      </g>
     </g>
    </g>
    <g id="xtick_6">
     <g id="line2d_37">
      <path d="M 297.137298 484.398979
L 297.137298 274.920162
" clip-path="url(#p5d4bd27d78)" style="fill: none; stroke: #b0b0b0; stroke-opacity: 0.18; stroke-width: 0.6; stroke-linecap: square"/>
     </g>
     <g id="line2d_38">
      <g>
       <use xlink:href="#m809c075421" x="297.137298" y="484.398979" style="stroke: #000000; stroke-width: 0.8"/>
      </g>
     </g>
     <g id="text_22">
      <!-- slow -->
      <g transform="translate(288.223548 498.27851) scale(0.08 -0.08)">
       <use xlink:href="#DejaVuSans-56"/>
       <use xlink:href="#DejaVuSans-4f" transform="translate(52.09375 0)"/>
       <use xlink:href="#DejaVuSans-52" transform="translate(79.875 0)"/>
       <use xlink:href="#DejaVuSans-5a" transform="translate(141.0625 0)"/>
      </g>
      <!-- barostat -->
      <g transform="translate(280.471673 507.880697) scale(0.08 -0.08)">
       <use xlink:href="#DejaVuSans-45"/>
       <use xlink:href="#DejaVuSans-44" transform="translate(63.484375 0)"/>
       <use xlink:href="#DejaVuSans-55" transform="translate(124.765625 0)"/>
       <use xlink:href="#DejaVuSans-52" transform="translate(163.671875 0)"/>
       <use xlink:href="#DejaVuSans-56" transform="translate(224.859375 0)"/>
       <use xlink:href="#DejaVuSans-57" transform="translate(276.953125 0)"/>
       <use xlink:href="#DejaVuSans-44" transform="translate(316.15625 0)"/>
       <use xlink:href="#DejaVuSans-57" transform="translate(377.4375 0)"/>
      </g>
     </g>
    </g>
   </g>
   <g id="matplotlib.axis_6">
    <g id="ytick_13">
     <g id="line2d_39">
      <path d="M 39.904146 484.398979
L 381.73075 484.398979
" clip-path="url(#p5d4bd27d78)" style="fill: none; stroke: #b0b0b0; stroke-opacity: 0.18; stroke-width: 0.6; stroke-linecap: square"/>
     </g>
     <g id="line2d_40">
      <g>
       <use xlink:href="#m1ee22df26f" x="39.904146" y="484.398979" style="stroke: #000000; stroke-width: 0.8"/>
      </g>
     </g>
     <g id="text_23">
      <!-- 0 -->
      <g transform="translate(26.541646 488.197807) scale(0.1 -0.1)">
       <use xlink:href="#DejaVuSans-13"/>
      </g>
     </g>
    </g>
    <g id="ytick_14">
     <g id="line2d_41">
      <path d="M 39.904146 449.298401
L 381.73075 449.298401
" clip-path="url(#p5d4bd27d78)" style="fill: none; stroke: #b0b0b0; stroke-opacity: 0.18; stroke-width: 0.6; stroke-linecap: square"/>
     </g>
     <g id="line2d_42">
      <g>
       <use xlink:href="#m1ee22df26f" x="39.904146" y="449.298401" style="stroke: #000000; stroke-width: 0.8"/>
      </g>
     </g>
     <g id="text_24">
      <!-- 2 -->
      <g transform="translate(26.541646 453.097229) scale(0.1 -0.1)">
       <use xlink:href="#DejaVuSans-15"/>
      </g>
     </g>
    </g>
    <g id="ytick_15">
     <g id="line2d_43">
      <path d="M 39.904146 414.197823
L 381.73075 414.197823
" clip-path="url(#p5d4bd27d78)" style="fill: none; stroke: #b0b0b0; stroke-opacity: 0.18; stroke-width: 0.6; stroke-linecap: square"/>
     </g>
     <g id="line2d_44">
      <g>
       <use xlink:href="#m1ee22df26f" x="39.904146" y="414.197823" style="stroke: #000000; stroke-width: 0.8"/>
      </g>
     </g>
     <g id="text_25">
      <!-- 4 -->
      <g transform="translate(26.541646 417.996651) scale(0.1 -0.1)">
       <use xlink:href="#DejaVuSans-17"/>
      </g>
     </g>
    </g>
    <g id="ytick_16">
     <g id="line2d_45">
      <path d="M 39.904146 379.097245
L 381.73075 379.097245
" clip-path="url(#p5d4bd27d78)" style="fill: none; stroke: #b0b0b0; stroke-opacity: 0.18; stroke-width: 0.6; stroke-linecap: square"/>
     </g>
     <g id="line2d_46">
      <g>
       <use xlink:href="#m1ee22df26f" x="39.904146" y="379.097245" style="stroke: #000000; stroke-width: 0.8"/>
      </g>
     </g>
     <g id="text_26">
      <!-- 6 -->
      <g transform="translate(26.541646 382.896073) scale(0.1 -0.1)">
       <use xlink:href="#DejaVuSans-19"/>
      </g>
     </g>
    </g>
    <g id="ytick_17">
     <g id="line2d_47">
      <path d="M 39.904146 343.996667
L 381.73075 343.996667
" clip-path="url(#p5d4bd27d78)" style="fill: none; stroke: #b0b0b0; stroke-opacity: 0.18; stroke-width: 0.6; stroke-linecap: square"/>
     </g>
     <g id="line2d_48">
      <g>
       <use xlink:href="#m1ee22df26f" x="39.904146" y="343.996667" style="stroke: #000000; stroke-width: 0.8"/>
      </g>
     </g>
     <g id="text_27">
      <!-- 8 -->
      <g transform="translate(26.541646 347.795495) scale(0.1 -0.1)">
       <use xlink:href="#DejaVuSans-1b"/>
      </g>
     </g>
    </g>
    <g id="ytick_18">
     <g id="line2d_49">
      <path d="M 39.904146 308.896089
L 381.73075 308.896089
" clip-path="url(#p5d4bd27d78)" style="fill: none; stroke: #b0b0b0; stroke-opacity: 0.18; stroke-width: 0.6; stroke-linecap: square"/>
     </g>
     <g id="line2d_50">
      <g>
       <use xlink:href="#m1ee22df26f" x="39.904146" y="308.896089" style="stroke: #000000; stroke-width: 0.8"/>
      </g>
     </g>
     <g id="text_28">
      <!-- 10 -->
      <g transform="translate(20.179146 312.694917) scale(0.1 -0.1)">
       <use xlink:href="#DejaVuSans-14"/>
       <use xlink:href="#DejaVuSans-13" transform="translate(63.625 0)"/>
      </g>
     </g>
    </g>
    <g id="text_29">
     <!-- volume autocorrelation time -->
     <g transform="translate(13.776803 450.738477) rotate(-90) scale(0.1 -0.1)">
      <use xlink:href="#DejaVuSans-59"/>
      <use xlink:href="#DejaVuSans-52" transform="translate(59.1875 0)"/>
      <use xlink:href="#DejaVuSans-4f" transform="translate(120.375 0)"/>
      <use xlink:href="#DejaVuSans-58" transform="translate(148.15625 0)"/>
      <use xlink:href="#DejaVuSans-50" transform="translate(211.53125 0)"/>
      <use xlink:href="#DejaVuSans-48" transform="translate(308.9375 0)"/>
      <use xlink:href="#DejaVuSans-3" transform="translate(370.46875 0)"/>
      <use xlink:href="#DejaVuSans-44" transform="translate(402.25 0)"/>
      <use xlink:href="#DejaVuSans-58" transform="translate(463.53125 0)"/>
      <use xlink:href="#DejaVuSans-57" transform="translate(526.90625 0)"/>
      <use xlink:href="#DejaVuSans-52" transform="translate(566.109375 0)"/>
      <use xlink:href="#DejaVuSans-46" transform="translate(627.296875 0)"/>
      <use xlink:href="#DejaVuSans-52" transform="translate(682.28125 0)"/>
      <use xlink:href="#DejaVuSans-55" transform="translate(743.46875 0)"/>
      <use xlink:href="#DejaVuSans-55" transform="translate(782.828125 0)"/>
      <use xlink:href="#DejaVuSans-48" transform="translate(821.734375 0)"/>
      <use xlink:href="#DejaVuSans-4f" transform="translate(883.265625 0)"/>
      <use xlink:href="#DejaVuSans-44" transform="translate(911.046875 0)"/>
      <use xlink:href="#DejaVuSans-57" transform="translate(972.328125 0)"/>
      <use xlink:href="#DejaVuSans-4c" transform="translate(1011.53125 0)"/>
      <use xlink:href="#DejaVuSans-52" transform="translate(1039.3125 0)"/>
      <use xlink:href="#DejaVuSans-51" transform="translate(1100.5 0)"/>
      <use xlink:href="#DejaVuSans-3" transform="translate(1163.875 0)"/>
      <use xlink:href="#DejaVuSans-57" transform="translate(1195.65625 0)"/>
      <use xlink:href="#DejaVuSans-4c" transform="translate(1234.859375 0)"/>
      <use xlink:href="#DejaVuSans-50" transform="translate(1262.640625 0)"/>
      <use xlink:href="#DejaVuSans-48" transform="translate(1360.046875 0)"/>
     </g>
    </g>
   </g>
   <g id="patch_15">
    <path d="M 39.904146 484.398979
L 39.904146 274.920162
" style="fill: none; stroke: #000000; stroke-width: 0.8; stroke-linejoin: miter; stroke-linecap: square"/>
   </g>
   <g id="patch_16">
    <path d="M 39.904146 484.398979
L 381.73075 484.398979
" style="fill: none; stroke: #000000; stroke-width: 0.8; stroke-linejoin: miter; stroke-linecap: square"/>
   </g>
   <g id="text_30">
    <g id="patch_17">
     <path d="M 50.158944 308.178087
L 107.59371 308.178087
Q 109.97371 308.178087 109.97371 305.798087
L 109.97371 285.394103
Q 109.97371 283.014103 107.59371 283.014103
L 50.158944 283.014103
Q 47.778944 283.014103 47.778944 285.394103
L 47.778944 305.798087
Q 47.778944 308.178087 50.158944 308.178087
z
" style="fill: #ffffff; opacity: 0.9; stroke: #000000; stroke-linejoin: miter"/>
    </g>
    <!-- kappa = 0.01 -->
    <g transform="translate(50.158944 292.703605) scale(0.085 -0.085)">
     <defs>
      <path id="DejaVuSans-20" d="M 678 2906
L 4684 2906
L 4684 2381
L 678 2381
L 678 2906
z
M 678 1631
L 4684 1631
L 4684 1100
L 678 1100
L 678 1631
z
" transform="scale(0.015625)"/>
     </defs>
     <use xlink:href="#DejaVuSans-4e"/>
     <use xlink:href="#DejaVuSans-44" transform="translate(56.15625 0)"/>
     <use xlink:href="#DejaVuSans-53" transform="translate(117.4375 0)"/>
     <use xlink:href="#DejaVuSans-53" transform="translate(180.921875 0)"/>
     <use xlink:href="#DejaVuSans-44" transform="translate(244.40625 0)"/>
     <use xlink:href="#DejaVuSans-3" transform="translate(305.6875 0)"/>
     <use xlink:href="#DejaVuSans-20" transform="translate(337.46875 0)"/>
     <use xlink:href="#DejaVuSans-3" transform="translate(421.265625 0)"/>
     <use xlink:href="#DejaVuSans-13" transform="translate(453.046875 0)"/>
     <use xlink:href="#DejaVuSans-11" transform="translate(516.671875 0)"/>
     <use xlink:href="#DejaVuSans-13" transform="translate(548.453125 0)"/>
     <use xlink:href="#DejaVuSans-14" transform="translate(612.078125 0)"/>
    </g>
    <!-- V0 = 1000 -->
    <g transform="translate(50.158944 302.905265) scale(0.085 -0.085)">
     <use xlink:href="#DejaVuSans-39"/>
     <use xlink:href="#DejaVuSans-13" transform="translate(68.40625 0)"/>
     <use xlink:href="#DejaVuSans-3" transform="translate(132.03125 0)"/>
     <use xlink:href="#DejaVuSans-20" transform="translate(163.8125 0)"/>
     <use xlink:href="#DejaVuSans-3" transform="translate(247.609375 0)"/>
     <use xlink:href="#DejaVuSans-14" transform="translate(279.390625 0)"/>
     <use xlink:href="#DejaVuSans-13" transform="translate(343.015625 0)"/>
     <use xlink:href="#DejaVuSans-13" transform="translate(406.640625 0)"/>
     <use xlink:href="#DejaVuSans-13" transform="translate(470.265625 0)"/>
    </g>
   </g>
   <g id="text_31">
    <!-- Barostat time controls memory -->
    <g transform="translate(117.242761 268.920162) scale(0.12 -0.12)">
     <defs>
      <path id="DejaVuSans-25" d="M 1259 2228
L 1259 519
L 2272 519
Q 2781 519 3026 730
Q 3272 941 3272 1375
Q 3272 1813 3026 2020
Q 2781 2228 2272 2228
L 1259 2228
z
M 1259 4147
L 1259 2741
L 2194 2741
Q 2656 2741 2882 2914
Q 3109 3088 3109 3444
Q 3109 3797 2882 3972
Q 2656 4147 2194 4147
L 1259 4147
z
M 628 4666
L 2241 4666
Q 2963 4666 3353 4366
Q 3744 4066 3744 3513
Q 3744 3084 3544 2831
Q 3344 2578 2956 2516
Q 3422 2416 3680 2098
Q 3938 1781 3938 1306
Q 3938 681 3513 340
Q 3088 0 2303 0
L 628 0
L 628 4666
z
" transform="scale(0.015625)"/>
      <path id="DejaVuSans-5c" d="M 2059 -325
Q 1816 -950 1584 -1140
Q 1353 -1331 966 -1331
L 506 -1331
L 506 -850
L 844 -850
Q 1081 -850 1212 -737
Q 1344 -625 1503 -206
L 1606 56
L 191 3500
L 800 3500
L 1894 763
L 2988 3500
L 3597 3500
L 2059 -325
z
" transform="scale(0.015625)"/>
     </defs>
     <use xlink:href="#DejaVuSans-25"/>
     <use xlink:href="#DejaVuSans-44" transform="translate(68.609375 0)"/>
     <use xlink:href="#DejaVuSans-55" transform="translate(129.890625 0)"/>
     <use xlink:href="#DejaVuSans-52" transform="translate(168.796875 0)"/>
     <use xlink:href="#DejaVuSans-56" transform="translate(229.984375 0)"/>
     <use xlink:href="#DejaVuSans-57" transform="translate(282.078125 0)"/>
     <use xlink:href="#DejaVuSans-44" transform="translate(321.28125 0)"/>
     <use xlink:href="#DejaVuSans-57" transform="translate(382.5625 0)"/>
     <use xlink:href="#DejaVuSans-3" transform="translate(421.765625 0)"/>
     <use xlink:href="#DejaVuSans-57" transform="translate(453.546875 0)"/>
     <use xlink:href="#DejaVuSans-4c" transform="translate(492.75 0)"/>
     <use xlink:href="#DejaVuSans-50" transform="translate(520.53125 0)"/>
     <use xlink:href="#DejaVuSans-48" transform="translate(617.9375 0)"/>
     <use xlink:href="#DejaVuSans-3" transform="translate(679.46875 0)"/>
     <use xlink:href="#DejaVuSans-46" transform="translate(711.25 0)"/>
     <use xlink:href="#DejaVuSans-52" transform="translate(766.234375 0)"/>
     <use xlink:href="#DejaVuSans-51" transform="translate(827.421875 0)"/>
     <use xlink:href="#DejaVuSans-57" transform="translate(890.796875 0)"/>
     <use xlink:href="#DejaVuSans-55" transform="translate(930 0)"/>
     <use xlink:href="#DejaVuSans-52" transform="translate(968.90625 0)"/>
     <use xlink:href="#DejaVuSans-4f" transform="translate(1030.09375 0)"/>
     <use xlink:href="#DejaVuSans-56" transform="translate(1057.875 0)"/>
     <use xlink:href="#DejaVuSans-3" transform="translate(1109.96875 0)"/>
     <use xlink:href="#DejaVuSans-50" transform="translate(1141.75 0)"/>
     <use xlink:href="#DejaVuSans-48" transform="translate(1239.15625 0)"/>
     <use xlink:href="#DejaVuSans-50" transform="translate(1300.6875 0)"/>
     <use xlink:href="#DejaVuSans-52" transform="translate(1398.09375 0)"/>
     <use xlink:href="#DejaVuSans-55" transform="translate(1459.28125 0)"/>
     <use xlink:href="#DejaVuSans-5c" transform="translate(1500.390625 0)"/>
    </g>
   </g>
  </g>
  <g id="axes_4">
   <g id="patch_18">
    <path d="M 432.773156 484.398979
L 774.59976 484.398979
L 774.59976 274.920162
L 432.773156 274.920162
z
" style="fill: #ffffff"/>
   </g>
   <g id="matplotlib.axis_7">
    <g id="xtick_7">
     <g id="line2d_51">
      <path d="M 467.781372 484.398979
L 467.781372 274.920162
" clip-path="url(#p966891997d)" style="fill: none; stroke: #b0b0b0; stroke-opacity: 0.18; stroke-width: 0.6; stroke-linecap: square"/>
     </g>
     <g id="line2d_52">
      <g>
       <use xlink:href="#m809c075421" x="467.781372" y="484.398979" style="stroke: #000000; stroke-width: 0.8"/>
      </g>
     </g>
     <g id="text_32">
      <!-- 20 -->
      <g transform="translate(461.418872 498.996635) scale(0.1 -0.1)">
       <use xlink:href="#DejaVuSans-15"/>
       <use xlink:href="#DejaVuSans-13" transform="translate(63.625 0)"/>
      </g>
     </g>
    </g>
    <g id="xtick_8">
     <g id="line2d_53">
      <path d="M 516.457979 484.398979
L 516.457979 274.920162
" clip-path="url(#p966891997d)" style="fill: none; stroke: #b0b0b0; stroke-opacity: 0.18; stroke-width: 0.6; stroke-linecap: square"/>
     </g>
     <g id="line2d_54">
      <g>
       <use xlink:href="#m809c075421" x="516.457979" y="484.398979" style="stroke: #000000; stroke-width: 0.8"/>
      </g>
     </g>
     <g id="text_33">
      <!-- 30 -->
      <g transform="translate(510.095479 498.996635) scale(0.1 -0.1)">
       <defs>
        <path id="DejaVuSans-16" d="M 2597 2516
Q 3050 2419 3304 2112
Q 3559 1806 3559 1356
Q 3559 666 3084 287
Q 2609 -91 1734 -91
Q 1441 -91 1130 -33
Q 819 25 488 141
L 488 750
Q 750 597 1062 519
Q 1375 441 1716 441
Q 2309 441 2620 675
Q 2931 909 2931 1356
Q 2931 1769 2642 2001
Q 2353 2234 1838 2234
L 1294 2234
L 1294 2753
L 1863 2753
Q 2328 2753 2575 2939
Q 2822 3125 2822 3475
Q 2822 3834 2567 4026
Q 2313 4219 1838 4219
Q 1578 4219 1281 4162
Q 984 4106 628 3988
L 628 4550
Q 988 4650 1302 4700
Q 1616 4750 1894 4750
Q 2613 4750 3031 4423
Q 3450 4097 3450 3541
Q 3450 3153 3228 2886
Q 3006 2619 2597 2516
z
" transform="scale(0.015625)"/>
       </defs>
       <use xlink:href="#DejaVuSans-16"/>
       <use xlink:href="#DejaVuSans-13" transform="translate(63.625 0)"/>
      </g>
     </g>
    </g>
    <g id="xtick_9">
     <g id="line2d_55">
      <path d="M 565.134586 484.398979
L 565.134586 274.920162
" clip-path="url(#p966891997d)" style="fill: none; stroke: #b0b0b0; stroke-opacity: 0.18; stroke-width: 0.6; stroke-linecap: square"/>
     </g>
     <g id="line2d_56">
      <g>
       <use xlink:href="#m809c075421" x="565.134586" y="484.398979" style="stroke: #000000; stroke-width: 0.8"/>
      </g>
     </g>
     <g id="text_34">
      <!-- 40 -->
      <g transform="translate(558.772086 498.996635) scale(0.1 -0.1)">
       <use xlink:href="#DejaVuSans-17"/>
       <use xlink:href="#DejaVuSans-13" transform="translate(63.625 0)"/>
      </g>
     </g>
    </g>
    <g id="xtick_10">
     <g id="line2d_57">
      <path d="M 613.811192 484.398979
L 613.811192 274.920162
" clip-path="url(#p966891997d)" style="fill: none; stroke: #b0b0b0; stroke-opacity: 0.18; stroke-width: 0.6; stroke-linecap: square"/>
     </g>
     <g id="line2d_58">
      <g>
       <use xlink:href="#m809c075421" x="613.811192" y="484.398979" style="stroke: #000000; stroke-width: 0.8"/>
      </g>
     </g>
     <g id="text_35">
      <!-- 50 -->
      <g transform="translate(607.448692 498.996635) scale(0.1 -0.1)">
       <defs>
        <path id="DejaVuSans-18" d="M 691 4666
L 3169 4666
L 3169 4134
L 1269 4134
L 1269 2991
Q 1406 3038 1543 3061
Q 1681 3084 1819 3084
Q 2600 3084 3056 2656
Q 3513 2228 3513 1497
Q 3513 744 3044 326
Q 2575 -91 1722 -91
Q 1428 -91 1123 -41
Q 819 9 494 109
L 494 744
Q 775 591 1075 516
Q 1375 441 1709 441
Q 2250 441 2565 725
Q 2881 1009 2881 1497
Q 2881 1984 2565 2268
Q 2250 2553 1709 2553
Q 1456 2553 1204 2497
Q 953 2441 691 2322
L 691 4666
z
" transform="scale(0.015625)"/>
       </defs>
       <use xlink:href="#DejaVuSans-18"/>
       <use xlink:href="#DejaVuSans-13" transform="translate(63.625 0)"/>
      </g>
     </g>
    </g>
    <g id="xtick_11">
     <g id="line2d_59">
      <path d="M 662.487799 484.398979
L 662.487799 274.920162
" clip-path="url(#p966891997d)" style="fill: none; stroke: #b0b0b0; stroke-opacity: 0.18; stroke-width: 0.6; stroke-linecap: square"/>
     </g>
     <g id="line2d_60">
      <g>
       <use xlink:href="#m809c075421" x="662.487799" y="484.398979" style="stroke: #000000; stroke-width: 0.8"/>
      </g>
     </g>
     <g id="text_36">
      <!-- 60 -->
      <g transform="translate(656.125299 498.996635) scale(0.1 -0.1)">
       <use xlink:href="#DejaVuSans-19"/>
       <use xlink:href="#DejaVuSans-13" transform="translate(63.625 0)"/>
      </g>
     </g>
    </g>
    <g id="xtick_12">
     <g id="line2d_61">
      <path d="M 711.164406 484.398979
L 711.164406 274.920162
" clip-path="url(#p966891997d)" style="fill: none; stroke: #b0b0b0; stroke-opacity: 0.18; stroke-width: 0.6; stroke-linecap: square"/>
     </g>
     <g id="line2d_62">
      <g>
       <use xlink:href="#m809c075421" x="711.164406" y="484.398979" style="stroke: #000000; stroke-width: 0.8"/>
      </g>
     </g>
     <g id="text_37">
      <!-- 70 -->
      <g transform="translate(704.801906 498.996635) scale(0.1 -0.1)">
       <defs>
        <path id="DejaVuSans-1a" d="M 525 4666
L 3525 4666
L 3525 4397
L 1831 0
L 1172 0
L 2766 4134
L 525 4134
L 525 4666
z
" transform="scale(0.015625)"/>
       </defs>
       <use xlink:href="#DejaVuSans-1a"/>
       <use xlink:href="#DejaVuSans-13" transform="translate(63.625 0)"/>
      </g>
     </g>
    </g>
    <g id="xtick_13">
     <g id="line2d_63">
      <path d="M 759.841013 484.398979
L 759.841013 274.920162
" clip-path="url(#p966891997d)" style="fill: none; stroke: #b0b0b0; stroke-opacity: 0.18; stroke-width: 0.6; stroke-linecap: square"/>
     </g>
     <g id="line2d_64">
      <g>
       <use xlink:href="#m809c075421" x="759.841013" y="484.398979" style="stroke: #000000; stroke-width: 0.8"/>
      </g>
     </g>
     <g id="text_38">
      <!-- 80 -->
      <g transform="translate(753.478513 498.996635) scale(0.1 -0.1)">
       <use xlink:href="#DejaVuSans-1b"/>
       <use xlink:href="#DejaVuSans-13" transform="translate(63.625 0)"/>
      </g>
     </g>
    </g>
    <g id="text_39">
     <!-- time -->
     <g transform="translate(592.390364 512.997416) scale(0.1 -0.1)">
      <use xlink:href="#DejaVuSans-57"/>
      <use xlink:href="#DejaVuSans-4c" transform="translate(39.203125 0)"/>
      <use xlink:href="#DejaVuSans-50" transform="translate(66.984375 0)"/>
      <use xlink:href="#DejaVuSans-48" transform="translate(164.390625 0)"/>
     </g>
    </g>
   </g>
   <g id="matplotlib.axis_8">
    <g id="ytick_19">
     <g id="line2d_65">
      <path d="M 432.773156 454.01273
L 774.59976 454.01273
" clip-path="url(#p966891997d)" style="fill: none; stroke: #b0b0b0; stroke-opacity: 0.18; stroke-width: 0.6; stroke-linecap: square"/>
     </g>
     <g id="line2d_66">
      <g>
       <use xlink:href="#m1ee22df26f" x="432.773156" y="454.01273" style="stroke: #000000; stroke-width: 0.8"/>
      </g>
     </g>
     <g id="text_40">
      <!-- 0.94 -->
      <g transform="translate(403.507531 457.811558) scale(0.1 -0.1)">
       <defs>
        <path id="DejaVuSans-1c" d="M 703 97
L 703 672
Q 941 559 1184 500
Q 1428 441 1663 441
Q 2288 441 2617 861
Q 2947 1281 2994 2138
Q 2813 1869 2534 1725
Q 2256 1581 1919 1581
Q 1219 1581 811 2004
Q 403 2428 403 3163
Q 403 3881 828 4315
Q 1253 4750 1959 4750
Q 2769 4750 3195 4129
Q 3622 3509 3622 2328
Q 3622 1225 3098 567
Q 2575 -91 1691 -91
Q 1453 -91 1209 -44
Q 966 3 703 97
z
M 1959 2075
Q 2384 2075 2632 2365
Q 2881 2656 2881 3163
Q 2881 3666 2632 3958
Q 2384 4250 1959 4250
Q 1534 4250 1286 3958
Q 1038 3666 1038 3163
Q 1038 2656 1286 2365
Q 1534 2075 1959 2075
z
" transform="scale(0.015625)"/>
       </defs>
       <use xlink:href="#DejaVuSans-13"/>
       <use xlink:href="#DejaVuSans-11" transform="translate(63.625 0)"/>
       <use xlink:href="#DejaVuSans-1c" transform="translate(95.40625 0)"/>
       <use xlink:href="#DejaVuSans-17" transform="translate(159.03125 0)"/>
      </g>
     </g>
    </g>
    <g id="ytick_20">
     <g id="line2d_67">
      <path d="M 432.773156 408.462435
L 774.59976 408.462435
" clip-path="url(#p966891997d)" style="fill: none; stroke: #b0b0b0; stroke-opacity: 0.18; stroke-width: 0.6; stroke-linecap: square"/>
     </g>
     <g id="line2d_68">
      <g>
       <use xlink:href="#m1ee22df26f" x="432.773156" y="408.462435" style="stroke: #000000; stroke-width: 0.8"/>
      </g>
     </g>
     <g id="text_41">
      <!-- 0.96 -->
      <g transform="translate(403.507531 412.261263) scale(0.1 -0.1)">
       <use xlink:href="#DejaVuSans-13"/>
       <use xlink:href="#DejaVuSans-11" transform="translate(63.625 0)"/>
       <use xlink:href="#DejaVuSans-1c" transform="translate(95.40625 0)"/>
       <use xlink:href="#DejaVuSans-19" transform="translate(159.03125 0)"/>
      </g>
     </g>
    </g>
    <g id="ytick_21">
     <g id="line2d_69">
      <path d="M 432.773156 362.912139
L 774.59976 362.912139
" clip-path="url(#p966891997d)" style="fill: none; stroke: #b0b0b0; stroke-opacity: 0.18; stroke-width: 0.6; stroke-linecap: square"/>
     </g>
     <g id="line2d_70">
      <g>
       <use xlink:href="#m1ee22df26f" x="432.773156" y="362.912139" style="stroke: #000000; stroke-width: 0.8"/>
      </g>
     </g>
     <g id="text_42">
      <!-- 0.98 -->
      <g transform="translate(403.507531 366.710968) scale(0.1 -0.1)">
       <use xlink:href="#DejaVuSans-13"/>
       <use xlink:href="#DejaVuSans-11" transform="translate(63.625 0)"/>
       <use xlink:href="#DejaVuSans-1c" transform="translate(95.40625 0)"/>
       <use xlink:href="#DejaVuSans-1b" transform="translate(159.03125 0)"/>
      </g>
     </g>
    </g>
    <g id="ytick_22">
     <g id="line2d_71">
      <path d="M 432.773156 317.361844
L 774.59976 317.361844
" clip-path="url(#p966891997d)" style="fill: none; stroke: #b0b0b0; stroke-opacity: 0.18; stroke-width: 0.6; stroke-linecap: square"/>
     </g>
     <g id="line2d_72">
      <g>
       <use xlink:href="#m1ee22df26f" x="432.773156" y="317.361844" style="stroke: #000000; stroke-width: 0.8"/>
      </g>
     </g>
     <g id="text_43">
      <!-- 1.00 -->
      <g transform="translate(403.507531 321.160672) scale(0.1 -0.1)">
       <use xlink:href="#DejaVuSans-14"/>
       <use xlink:href="#DejaVuSans-11" transform="translate(63.625 0)"/>
       <use xlink:href="#DejaVuSans-13" transform="translate(95.40625 0)"/>
       <use xlink:href="#DejaVuSans-13" transform="translate(159.03125 0)"/>
      </g>
     </g>
    </g>
    <g id="text_44">
     <!-- volume factor -->
     <g transform="translate(397.105188 414.420508) rotate(-90) scale(0.1 -0.1)">
      <use xlink:href="#DejaVuSans-59"/>
      <use xlink:href="#DejaVuSans-52" transform="translate(59.1875 0)"/>
      <use xlink:href="#DejaVuSans-4f" transform="translate(120.375 0)"/>
      <use xlink:href="#DejaVuSans-58" transform="translate(148.15625 0)"/>
      <use xlink:href="#DejaVuSans-50" transform="translate(211.53125 0)"/>
      <use xlink:href="#DejaVuSans-48" transform="translate(308.9375 0)"/>
      <use xlink:href="#DejaVuSans-3" transform="translate(370.46875 0)"/>
      <use xlink:href="#DejaVuSans-49" transform="translate(402.25 0)"/>
      <use xlink:href="#DejaVuSans-44" transform="translate(437.453125 0)"/>
      <use xlink:href="#DejaVuSans-46" transform="translate(498.734375 0)"/>
      <use xlink:href="#DejaVuSans-57" transform="translate(553.71875 0)"/>
      <use xlink:href="#DejaVuSans-52" transform="translate(592.921875 0)"/>
      <use xlink:href="#DejaVuSans-55" transform="translate(654.109375 0)"/>
     </g>
    </g>
   </g>
   <g id="line2d_73">
    <path d="M 448.310729 349.922188
L 449.089555 352.70931
L 449.868381 340.357907
L 450.647206 359.054383
L 451.426032 382.853628
L 452.204858 373.691437
L 452.983683 375.427426
L 453.762509 382.138173
L 454.541335 372.013579
L 455.320161 406.630517
L 456.098986 382.392391
L 456.877812 382.034428
L 457.656638 404.980555
L 458.435463 400.623389
L 459.214289 370.441458
L 459.993115 357.478324
L 460.77194 361.060335
L 461.550766 381.234655
L 462.329592 390.642077
L 463.108418 397.062435
L 463.887243 391.405703
L 464.666069 412.145574
L 465.444895 419.214869
L 466.22372 419.719756
L 467.002546 442.195014
L 467.781372 429.245235
L 468.560198 432.937912
L 469.339023 420.46793
L 470.117849 429.268284
L 470.896675 408.488544
L 471.6755 395.348893
L 472.454326 408.285976
L 473.233152 434.586134
L 474.011978 414.206686
L 474.790803 442.90286
L 476.348455 385.324158
L 477.12728 379.616373
L 477.906106 385.056752
L 478.684932 370.185596
L 479.463758 366.653399
L 480.242583 396.803492
L 481.021409 409.199432
L 481.800235 408.82704
L 483.357886 433.866902
L 484.136712 392.223893
L 484.915537 390.589285
L 485.694363 384.536619
L 486.473189 399.239745
L 487.252015 418.615434
L 488.03084 426.193228
L 488.809666 406.19551
L 489.588492 418.557445
L 490.367317 400.392406
L 491.924969 357.515814
L 492.703795 324.879208
L 493.48262 333.888976
L 494.261446 357.792746
L 495.040272 359.038756
L 495.819097 355.794654
L 496.597923 361.103468
L 497.376749 386.832943
L 498.155575 376.266844
L 498.9344 373.033507
L 499.713226 341.590376
L 500.492052 348.014804
L 501.270877 363.84133
L 502.049703 366.912934
L 502.828529 360.260385
L 503.607354 372.72029
L 504.38618 389.414323
L 505.165006 388.324635
L 505.943832 386.94308
L 506.722657 367.362336
L 507.501483 351.018157
L 508.280309 337.257055
L 509.059134 389.696654
L 509.83796 382.837679
L 510.616786 382.52465
L 511.395612 377.266518
L 512.174437 378.56311
L 512.953263 406.130936
L 513.732089 379.95572
L 514.510914 394.164553
L 515.28974 359.964866
L 516.068566 374.384699
L 516.847392 367.307138
L 517.626217 370.950536
L 518.405043 354.886985
L 519.183869 332.807287
L 519.962694 355.14134
L 520.74152 366.384489
L 521.520346 391.461139
L 523.077997 381.639426
L 523.856823 355.663641
L 524.635649 366.130955
L 525.414474 389.194885
L 526.1933 385.476424
L 526.972126 389.898419
L 527.750951 361.981471
L 528.529777 358.835692
L 529.308603 376.454714
L 530.087429 355.651883
L 530.866254 339.966534
L 531.64508 341.813751
L 532.423906 323.157929
L 533.202731 318.581059
L 533.981557 316.488605
L 534.760383 343.097954
L 535.539209 337.273755
L 536.318034 327.815047
L 537.09686 358.993683
L 537.875686 363.186002
L 538.654511 327.46902
L 539.433337 336.196947
L 540.212163 340.346688
L 540.990989 322.200012
L 541.769814 328.601852
L 542.54864 317.037788
L 543.327466 324.075583
L 544.106291 344.651952
L 544.885117 344.244211
L 545.663943 351.725768
L 546.442769 343.807966
L 547.221594 377.433545
L 548.00042 375.253822
L 548.779246 418.290585
L 549.558071 381.555285
L 550.336897 407.314874
L 551.115723 450.40589
L 551.894548 458.666572
L 552.673374 444.394896
L 553.4522 443.469945
L 554.231026 425.415475
L 555.009851 412.304461
L 555.788677 414.340734
L 556.567503 405.417678
L 557.346328 426.13387
L 558.90398 409.984551
L 559.682806 420.600728
L 560.461631 435.761415
L 561.240457 442.334785
L 562.019283 439.409063
L 562.798108 426.082919
L 563.576934 429.137389
L 564.35576 450.960323
L 565.134586 463.544146
L 565.913411 459.752321
L 566.692237 454.322419
L 567.471063 472.021087
L 568.249888 458.144906
L 569.028714 474.42613
L 569.80754 457.472
L 570.586365 451.343982
L 571.365191 417.930011
L 572.144017 428.949474
L 572.922843 398.083967
L 573.701668 386.984967
L 574.480494 414.920399
L 575.25932 420.275859
L 576.038145 419.875327
L 576.816971 408.00715
L 577.595797 410.825534
L 578.374623 396.034579
L 579.153448 396.344777
L 579.932274 366.243783
L 580.7111 354.744882
L 581.489925 340.668277
L 582.268751 344.6817
L 583.047577 340.963236
L 583.826403 348.926431
L 584.605228 348.313043
L 585.384054 360.124247
L 586.16288 357.964905
L 586.941705 400.900808
L 587.720531 429.247134
L 588.499357 416.02352
L 589.278183 391.445097
L 590.057008 391.022793
L 590.835834 398.353379
L 591.61466 362.632974
L 592.393485 354.557172
L 593.172311 374.300736
L 593.951137 365.263877
L 594.729962 390.947493
L 595.508788 396.94157
L 596.287614 428.109295
L 597.06644 428.759862
L 597.845265 427.30021
L 599.402917 456.095184
L 600.181742 449.525332
L 600.960568 448.441048
L 601.739394 464.858387
L 602.51822 474.877214
L 603.297045 452.47878
L 604.075871 435.65822
L 604.854697 391.065457
L 605.633522 386.36263
L 606.412348 383.727463
L 607.191174 404.469752
L 607.97 415.526528
L 608.748825 406.505418
L 609.527651 410.401347
L 610.306477 422.780626
L 611.085302 409.96438
L 611.864128 400.717706
L 612.642954 413.333977
L 613.421779 388.478625
L 614.200605 386.979108
L 614.979431 386.498435
L 615.758257 390.214261
L 616.537082 381.58428
L 617.315908 387.975322
L 618.094734 344.35596
L 618.873559 357.41286
L 619.652385 349.721671
L 620.431211 366.461303
L 621.210037 371.886619
L 621.988862 372.804908
L 622.767688 388.815662
L 623.546514 408.885716
L 624.325339 414.555973
L 625.104165 413.767589
L 625.882991 431.74721
L 626.661817 443.042027
L 627.440642 443.485415
L 628.219468 436.341258
L 628.998294 444.952694
L 629.777119 449.522597
L 631.334771 388.88723
L 632.113597 410.125196
L 632.892422 419.207484
L 633.671248 406.793615
L 634.450074 405.392126
L 635.228899 372.067145
L 636.007725 424.812513
L 636.786551 415.96248
L 637.565376 400.370895
L 638.344202 401.539828
L 639.123028 418.540797
L 639.901854 448.844485
L 640.680679 424.622191
L 641.459505 435.183329
L 642.238331 443.139557
L 643.795982 421.150382
L 644.574808 418.517502
L 645.353634 394.130591
L 646.132459 411.088559
L 646.911285 408.525287
L 647.690111 396.380872
L 648.468936 398.893682
L 649.247762 387.092385
L 650.026588 377.489791
L 650.805414 395.00143
L 651.584239 388.308289
L 652.363065 409.958778
L 653.141891 382.315184
L 653.920716 387.002005
L 654.699542 389.529558
L 655.478368 401.276539
L 656.257193 390.762139
L 657.036019 383.105822
L 657.814845 388.702359
L 658.593671 401.503117
L 660.151322 439.908026
L 660.930148 428.063788
L 661.708973 396.304319
L 662.487799 390.878571
L 663.266625 377.456635
L 664.045451 350.507696
L 664.824276 336.29923
L 665.603102 369.95053
L 666.381928 390.580914
L 667.160753 377.395442
L 667.939579 357.829545
L 668.718405 343.359816
L 669.497231 342.850624
L 670.276056 358.859619
L 671.054882 357.807785
L 671.833708 359.22214
L 672.612533 351.638179
L 673.391359 353.368162
L 674.170185 363.820765
L 674.949011 360.662595
L 675.727836 361.969582
L 676.506662 376.527579
L 677.285488 347.145737
L 678.064313 376.450713
L 678.843139 353.746313
L 679.621965 376.692589
L 680.40079 388.904201
L 681.179616 365.879402
L 681.958442 385.067572
L 682.737268 369.357295
L 683.516093 345.80305
L 685.073745 398.872008
L 685.85257 386.509544
L 686.631396 382.20518
L 687.410222 325.188015
L 688.189048 319.255916
L 688.967873 317.666713
L 689.746699 335.683735
L 690.525525 361.219714
L 691.30435 344.389222
L 692.083176 348.269462
L 692.862002 345.933074
L 693.640828 339.138684
L 694.419653 329.556354
L 695.198479 351.396638
L 695.977305 346.312857
L 696.75613 339.603281
L 697.534956 356.230894
L 698.313782 352.253501
L 699.092607 351.399456
L 699.871433 353.198394
L 700.650259 345.738392
L 701.429085 352.037676
L 702.20791 340.635706
L 702.986736 325.855569
L 703.765562 327.398259
L 704.544387 328.360324
L 705.323213 316.919745
L 706.102039 317.95689
L 706.880865 327.081002
L 707.65969 375.736255
L 708.438516 391.819586
L 709.217342 363.776432
L 709.996167 370.162674
L 710.774993 362.539424
L 711.553819 367.730429
L 712.332645 373.907495
L 713.11147 371.088043
L 713.890296 369.587791
L 714.669122 360.957979
L 716.226773 299.499876
L 717.005599 315.781004
L 717.784425 337.651733
L 718.56325 311.24836
L 719.342076 311.054893
L 720.120902 284.441926
L 720.899727 298.12866
L 721.678553 321.071835
L 722.457379 328.775105
L 723.236204 324.186866
L 724.01503 317.41526
L 724.793856 290.201239
L 725.572682 300.172166
L 726.351507 311.634429
L 727.130333 307.498463
L 727.909159 294.398324
L 728.687984 287.191138
L 729.46681 289.663
L 730.245636 307.893211
L 731.803287 334.465248
L 732.582113 326.711622
L 733.360939 321.182789
L 734.139764 312.830661
L 734.91859 316.822323
L 735.697416 348.878855
L 736.476242 370.065785
L 737.255067 381.089739
L 738.033893 375.528815
L 738.812719 364.430081
L 739.591544 337.730838
L 740.37037 344.021409
L 741.149196 356.427029
L 741.928022 384.097126
L 742.706847 387.490594
L 743.485673 403.568331
L 744.264499 404.137235
L 745.043324 416.286328
L 745.82215 424.480508
L 746.600976 426.14544
L 747.379801 408.529718
L 748.158627 418.143349
L 748.937453 415.733889
L 749.716279 389.307771
L 750.495104 390.426625
L 751.27393 391.078949
L 752.052756 427.356846
L 752.831581 400.234864
L 753.610407 407.790503
L 754.389233 381.010146
L 755.168059 363.745194
L 755.946884 355.031485
L 756.72571 356.560577
L 757.504536 350.281214
L 758.283361 396.378672
L 759.062187 402.100339
L 759.062187 402.100339
" clip-path="url(#p966891997d)" style="fill: none; stroke: #2b8a6e; stroke-width: 1.4; stroke-linecap: square"/>
   </g>
   <g id="line2d_74">
    <path d="M 432.773156 317.361844
L 774.59976 317.361844
" clip-path="url(#p966891997d)" style="fill: none; stroke-dasharray: 0.8,1.32; stroke-dashoffset: 0; stroke: #333333; stroke-width: 0.8"/>
   </g>
   <g id="patch_19">
    <path d="M 432.773156 484.398979
L 432.773156 274.920162
" style="fill: none; stroke: #000000; stroke-width: 0.8; stroke-linejoin: miter; stroke-linecap: square"/>
   </g>
   <g id="patch_20">
    <path d="M 432.773156 484.398979
L 774.59976 484.398979
" style="fill: none; stroke: #000000; stroke-width: 0.8; stroke-linejoin: miter; stroke-linecap: square"/>
   </g>
   <g id="text_45">
    <g id="patch_21">
     <path d="M 446.44622 308.178087
L 507.128252 308.178087
Q 509.508252 308.178087 509.508252 305.798087
L 509.508252 285.394103
Q 509.508252 283.014103 507.128252 283.014103
L 446.44622 283.014103
Q 444.06622 283.014103 444.06622 285.394103
L 444.06622 305.798087
Q 444.06622 308.178087 446.44622 308.178087
z
" style="fill: #ffffff; opacity: 0.9; stroke: #000000; stroke-linejoin: miter"/>
    </g>
    <!-- Neff = 13.8 -->
    <g transform="translate(446.44622 292.703605) scale(0.085 -0.085)">
     <defs>
      <path id="DejaVuSans-31" d="M 628 4666
L 1478 4666
L 3547 763
L 3547 4666
L 4159 4666
L 4159 0
L 3309 0
L 1241 3903
L 1241 0
L 628 0
L 628 4666
z
" transform="scale(0.015625)"/>
      <path id="DejaVuSans-13ae" d="M 4531 4863
L 4531 4384
L 3981 4384
Q 3672 4384 3551 4259
Q 3431 4134 3431 3809
L 3431 3500
L 4378 3500
L 4378 3053
L 3431 3053
L 3431 0
L 2853 0
L 2853 3053
L 1275 3053
L 1275 0
L 697 0
L 697 3053
L 147 3053
L 147 3500
L 697 3500
L 697 3744
Q 697 4328 969 4595
Q 1241 4863 1831 4863
L 2375 4863
L 2375 4384
L 1825 4384
Q 1516 4384 1394 4259
Q 1275 4134 1275 3809
L 1275 3500
L 2853 3500
L 2853 3744
Q 2853 4328 3125 4595
Q 3397 4863 3988 4863
L 4531 4863
z
" transform="scale(0.015625)"/>
     </defs>
     <use xlink:href="#DejaVuSans-31"/>
     <use xlink:href="#DejaVuSans-48" transform="translate(74.8125 0)"/>
     <use xlink:href="#DejaVuSans-13ae" transform="translate(136.34375 0)"/>
     <use xlink:href="#DejaVuSans-3" transform="translate(205.234375 0)"/>
     <use xlink:href="#DejaVuSans-20" transform="translate(237.015625 0)"/>
     <use xlink:href="#DejaVuSans-3" transform="translate(320.8125 0)"/>
     <use xlink:href="#DejaVuSans-14" transform="translate(352.59375 0)"/>
     <use xlink:href="#DejaVuSans-16" transform="translate(416.21875 0)"/>
     <use xlink:href="#DejaVuSans-11" transform="translate(479.84375 0)"/>
     <use xlink:href="#DejaVuSans-1b" transform="translate(511.625 0)"/>
    </g>
    <!-- Pmean = 0.58 -->
    <g transform="translate(446.44622 302.905265) scale(0.085 -0.085)">
     <use xlink:href="#DejaVuSans-33"/>
     <use xlink:href="#DejaVuSans-50" transform="translate(60.296875 0)"/>
     <use xlink:href="#DejaVuSans-48" transform="translate(157.703125 0)"/>
     <use xlink:href="#DejaVuSans-44" transform="translate(219.234375 0)"/>
     <use xlink:href="#DejaVuSans-51" transform="translate(280.515625 0)"/>
     <use xlink:href="#DejaVuSans-3" transform="translate(343.890625 0)"/>
     <use xlink:href="#DejaVuSans-20" transform="translate(375.671875 0)"/>
     <use xlink:href="#DejaVuSans-3" transform="translate(459.46875 0)"/>
     <use xlink:href="#DejaVuSans-13" transform="translate(491.25 0)"/>
     <use xlink:href="#DejaVuSans-11" transform="translate(554.875 0)"/>
     <use xlink:href="#DejaVuSans-18" transform="translate(586.65625 0)"/>
     <use xlink:href="#DejaVuSans-1b" transform="translate(650.28125 0)"/>
    </g>
   </g>
   <g id="text_46">
    <!-- Argon moving-cell check -->
    <g transform="translate(529.722396 268.920162) scale(0.12 -0.12)">
     <defs>
      <path id="DejaVuSans-24" d="M 2188 4044
L 1331 1722
L 3047 1722
L 2188 4044
z
M 1831 4666
L 2547 4666
L 4325 0
L 3669 0
L 3244 1197
L 1141 1197
L 716 0
L 50 0
L 1831 4666
z
" transform="scale(0.015625)"/>
      <path id="DejaVuSans-10" d="M 313 2009
L 1997 2009
L 1997 1497
L 313 1497
L 313 2009
z
" transform="scale(0.015625)"/>
     </defs>
     <use xlink:href="#DejaVuSans-24"/>
     <use xlink:href="#DejaVuSans-55" transform="translate(68.40625 0)"/>
     <use xlink:href="#DejaVuSans-4a" transform="translate(107.765625 0)"/>
     <use xlink:href="#DejaVuSans-52" transform="translate(171.25 0)"/>
     <use xlink:href="#DejaVuSans-51" transform="translate(232.4375 0)"/>
     <use xlink:href="#DejaVuSans-3" transform="translate(295.8125 0)"/>
     <use xlink:href="#DejaVuSans-50" transform="translate(327.59375 0)"/>
     <use xlink:href="#DejaVuSans-52" transform="translate(425 0)"/>
     <use xlink:href="#DejaVuSans-59" transform="translate(486.1875 0)"/>
     <use xlink:href="#DejaVuSans-4c" transform="translate(545.375 0)"/>
     <use xlink:href="#DejaVuSans-51" transform="translate(573.15625 0)"/>
     <use xlink:href="#DejaVuSans-4a" transform="translate(636.53125 0)"/>
     <use xlink:href="#DejaVuSans-10" transform="translate(700.015625 0)"/>
     <use xlink:href="#DejaVuSans-46" transform="translate(736.09375 0)"/>
     <use xlink:href="#DejaVuSans-48" transform="translate(791.078125 0)"/>
     <use xlink:href="#DejaVuSans-4f" transform="translate(852.609375 0)"/>
     <use xlink:href="#DejaVuSans-4f" transform="translate(880.390625 0)"/>
     <use xlink:href="#DejaVuSans-3" transform="translate(908.171875 0)"/>
     <use xlink:href="#DejaVuSans-46" transform="translate(939.953125 0)"/>
     <use xlink:href="#DejaVuSans-4b" transform="translate(994.9375 0)"/>
     <use xlink:href="#DejaVuSans-48" transform="translate(1058.3125 0)"/>
     <use xlink:href="#DejaVuSans-46" transform="translate(1119.84375 0)"/>
     <use xlink:href="#DejaVuSans-4e" transform="translate(1174.828125 0)"/>
    </g>
   </g>
  </g>
 </g>
 <defs>
  <clipPath id="p3cc32c393d">
   <rect x="39.904146" y="18.118365" width="341.826604" height="209.478817"/>
  </clipPath>
  <clipPath id="pa73bf83f5f">
   <rect x="432.773156" y="18.118365" width="341.826604" height="209.478817"/>
  </clipPath>
  <clipPath id="p5d4bd27d78">
   <rect x="39.904146" y="274.920162" width="341.826604" height="209.478817"/>
  </clipPath>
  <clipPath id="p966891997d">
   <rect x="432.773156" y="274.920162" width="341.826604" height="209.478817"/>
  </clipPath>
 </defs>
</svg>
